solid OpenSCAD_Model
  facet normal -0.707106 0.707107 0
    outer loop
      vertex -28.2843 -21.2132 0
      vertex -7.07107 0 3
      vertex -7.07107 0 0
    endloop
  endfacet
  facet normal -0.707106 0.707107 0
    outer loop
      vertex -7.07107 0 3
      vertex -28.2843 -21.2132 0
      vertex -28.2843 -21.2132 3
    endloop
  endfacet
  facet normal -0.707107 0.707106 0
    outer loop
      vertex 0 7.07107 0
      vertex 21.2132 28.2843 3
      vertex 21.2132 28.2843 0
    endloop
  endfacet
  facet normal -0.707107 0.707106 0
    outer loop
      vertex 21.2132 28.2843 3
      vertex 0 7.07107 0
      vertex 0 7.07107 3
    endloop
  endfacet
  facet normal 0 0 1
    outer loop
      vertex -2.4 -1.4 3
      vertex -1.80194 -0.867767 3
      vertex -2.4 1.4 3
    endloop
  endfacet
  facet normal 0 0 1
    outer loop
      vertex -1.4 2.4 3
      vertex -3.02918 2.25873 3
      vertex -2.4 1.4 3
    endloop
  endfacet
  facet normal 0 0 1
    outer loop
      vertex -5 1.4 3
      vertex -3.02918 2.25873 3
      vertex -4.37082 2.69466 3
    endloop
  endfacet
  facet normal 0 0 1
    outer loop
      vertex -3.02918 2.25873 3
      vertex -5 1.4 3
      vertex -2.4 1.4 3
    endloop
  endfacet
  facet normal 0 0 1
    outer loop
      vertex -1.80194 -0.867767 3
      vertex -2.4 -1.4 3
      vertex -2.2 -3.4 3
    endloop
  endfacet
  facet normal 0 0 1
    outer loop
      vertex -2.4 -1.4 3
      vertex -3.02918 -2.25873 3
      vertex -2.2 -3.4 3
    endloop
  endfacet
  facet normal -0 0 1
    outer loop
      vertex -5 -1.4 3
      vertex -3.02918 -2.25873 3
      vertex -2.4 -1.4 3
    endloop
  endfacet
  facet normal 0 0 1
    outer loop
      vertex -4.37082 -2.69466 3
      vertex -5 -1.4 3
      vertex -4.37082 -4.10534 3
    endloop
  endfacet
  facet normal 0 0 1
    outer loop
      vertex -3.02918 -2.25873 3
      vertex -5 -1.4 3
      vertex -4.37082 -2.69466 3
    endloop
  endfacet
  facet normal 0 0 1
    outer loop
      vertex 2.4 -1.4 3
      vertex 1.24698 -1.56366 3
      vertex 1.4 -2.4 3
    endloop
  endfacet
  facet normal -0 0 1
    outer loop
      vertex -0.445042 -1.94986 3
      vertex 1.4 -2.4 3
      vertex 1.24698 -1.56366 3
    endloop
  endfacet
  facet normal 0 0 1
    outer loop
      vertex -0.445042 -1.94986 3
      vertex -1.4 -2.4 3
      vertex 1.4 -2.4 3
    endloop
  endfacet
  facet normal 0 0 1
    outer loop
      vertex -2.2 -3.4 3
      vertex -1.4 -2.4 3
      vertex -1.80194 -0.867767 3
    endloop
  endfacet
  facet normal 0 0 1
    outer loop
      vertex -1.80194 -0.867767 3
      vertex -1.4 -2.4 3
      vertex -0.445042 -1.94986 3
    endloop
  endfacet
  facet normal -0 0 1
    outer loop
      vertex 1.24698 1.56366 3
      vertex 2.4 1.4 3
      vertex 1.4 2.4 3
    endloop
  endfacet
  facet normal 0 0 1
    outer loop
      vertex 2.4 1.4 3
      vertex 1.24698 1.56366 3
      vertex 2 0 3
    endloop
  endfacet
  facet normal 0 0 1
    outer loop
      vertex 1.4 2.4 3
      vertex -0.445042 1.94986 3
      vertex 1.24698 1.56366 3
    endloop
  endfacet
  facet normal -0 0 1
    outer loop
      vertex -1.4 2.4 3
      vertex -0.445042 1.94986 3
      vertex 1.4 2.4 3
    endloop
  endfacet
  facet normal 0 0 1
    outer loop
      vertex -0.445042 1.94986 3
      vertex -1.4 2.4 3
      vertex -1.80194 0.867767 3
    endloop
  endfacet
  facet normal 0 0 1
    outer loop
      vertex 5 -1.4 3
      vertex 3.77082 -2.25873 3
      vertex 4.6 -3.4 3
    endloop
  endfacet
  facet normal -0 0 1
    outer loop
      vertex 2.4 -1.4 3
      vertex 3.77082 -2.25873 3
      vertex 5 -1.4 3
    endloop
  endfacet
  facet normal -0 0 1
    outer loop
      vertex 1.4 -2.4 3
      vertex 2.42918 -2.69466 3
      vertex 2.4 -1.4 3
    endloop
  endfacet
  facet normal 0 0 1
    outer loop
      vertex 3.77082 -2.25873 3
      vertex 2.4 -1.4 3
      vertex 2.42918 -2.69466 3
    endloop
  endfacet
  facet normal 0 0 1
    outer loop
      vertex 29.3681 26.6622 3
      vertex 29.3681 22.8353 3
      vertex 29.7487 24.7487 3
    endloop
  endfacet
  facet normal 0 0 1
    outer loop
      vertex 28.2843 28.2843 3
      vertex 29.3681 22.8353 3
      vertex 29.3681 26.6622 3
    endloop
  endfacet
  facet normal 0 0 1
    outer loop
      vertex 28.2843 28.2843 3
      vertex 28.2843 21.2132 3
      vertex 29.3681 22.8353 3
    endloop
  endfacet
  facet normal 0 0 1
    outer loop
      vertex 26.6622 29.3681 3
      vertex 28.2843 21.2132 3
      vertex 28.2843 28.2843 3
    endloop
  endfacet
  facet normal 0 0 1
    outer loop
      vertex 24.7487 29.7487 3
      vertex 28.2843 21.2132 3
      vertex 26.6622 29.3681 3
    endloop
  endfacet
  facet normal -0 0 1
    outer loop
      vertex 22.8353 29.3681 3
      vertex 28.2843 21.2132 3
      vertex 24.7487 29.7487 3
    endloop
  endfacet
  facet normal -0 0 1
    outer loop
      vertex 21.2132 28.2843 3
      vertex 28.2843 21.2132 3
      vertex 22.8353 29.3681 3
    endloop
  endfacet
  facet normal 0 0 1
    outer loop
      vertex 3.77082 4.54127 3
      vertex 28.2843 21.2132 3
      vertex 21.2132 28.2843 3
    endloop
  endfacet
  facet normal 0 0 1
    outer loop
      vertex 28.2843 21.2132 3
      vertex 4.6 3.4 3
      vertex 7.07107 0 3
    endloop
  endfacet
  facet normal 0 0 1
    outer loop
      vertex 7.07107 0 3
      vertex 4.6 3.4 3
      vertex 5 1.4 3
    endloop
  endfacet
  facet normal 0 0 1
    outer loop
      vertex 28.2843 21.2132 3
      vertex 3.77082 4.54127 3
      vertex 4.6 3.4 3
    endloop
  endfacet
  facet normal -0 0 1
    outer loop
      vertex 0 7.07107 3
      vertex 3.77082 4.54127 3
      vertex 21.2132 28.2843 3
    endloop
  endfacet
  facet normal 0 0 1
    outer loop
      vertex 1.4 2.4 3
      vertex 2.42918 4.10534 3
      vertex 1.4 5 3
    endloop
  endfacet
  facet normal 0 0 1
    outer loop
      vertex 2.4 1.4 3
      vertex 2 0 3
      vertex 2.4 -1.4 3
    endloop
  endfacet
  facet normal 0 0 1
    outer loop
      vertex 2.42918 4.10534 3
      vertex 1.4 2.4 3
      vertex 2.42918 2.69466 3
    endloop
  endfacet
  facet normal 0 0 1
    outer loop
      vertex 2.42918 2.69466 3
      vertex 1.4 2.4 3
      vertex 2.4 1.4 3
    endloop
  endfacet
  facet normal -0 -0 1
    outer loop
      vertex 1.4 5 3
      vertex 3.77082 4.54127 3
      vertex 0 7.07107 3
    endloop
  endfacet
  facet normal 0 0 1
    outer loop
      vertex 3.77082 4.54127 3
      vertex 1.4 5 3
      vertex 2.42918 4.10534 3
    endloop
  endfacet
  facet normal 0 0 1
    outer loop
      vertex 0 7.07107 3
      vertex -1.4 5 3
      vertex 1.4 5 3
    endloop
  endfacet
  facet normal -0 0 1
    outer loop
      vertex -2.2 3.4 3
      vertex -1.4 2.4 3
      vertex -1.4 5 3
    endloop
  endfacet
  facet normal 0 0 1
    outer loop
      vertex -1.4 2.4 3
      vertex -2.4 1.4 3
      vertex -1.80194 0.867767 3
    endloop
  endfacet
  facet normal 0 0 1
    outer loop
      vertex -3.02918 2.25873 3
      vertex -1.4 2.4 3
      vertex -2.2 3.4 3
    endloop
  endfacet
  facet normal 0 0 1
    outer loop
      vertex -1.4 5 3
      vertex -3.02918 4.54127 3
      vertex -2.2 3.4 3
    endloop
  endfacet
  facet normal 0 0 1
    outer loop
      vertex 0 7.07107 3
      vertex -3.02918 4.54127 3
      vertex -1.4 5 3
    endloop
  endfacet
  facet normal 0 0 1
    outer loop
      vertex 0 7.07107 3
      vertex -4.37082 4.10534 3
      vertex -3.02918 4.54127 3
    endloop
  endfacet
  facet normal 0 0 1
    outer loop
      vertex -4.37082 4.10534 3
      vertex -5 1.4 3
      vertex -4.37082 2.69466 3
    endloop
  endfacet
  facet normal 0 0 1
    outer loop
      vertex -5 1.4 3
      vertex -7.07107 0 3
      vertex -5 -1.4 3
    endloop
  endfacet
  facet normal 0 0 1
    outer loop
      vertex -4.37082 4.10534 3
      vertex -7.07107 0 3
      vertex -5 1.4 3
    endloop
  endfacet
  facet normal 0 0 1
    outer loop
      vertex -21.2132 28.2843 3
      vertex -4.37082 4.10534 3
      vertex 0 7.07107 3
    endloop
  endfacet
  facet normal -0 0 1
    outer loop
      vertex -28.2843 21.2132 3
      vertex -4.37082 4.10534 3
      vertex -21.2132 28.2843 3
    endloop
  endfacet
  facet normal 0 0 1
    outer loop
      vertex -28.2843 21.2132 3
      vertex -21.2132 28.2843 3
      vertex -22.8353 29.3681 3
    endloop
  endfacet
  facet normal 0 0 1
    outer loop
      vertex -28.2843 21.2132 3
      vertex -22.8353 29.3681 3
      vertex -24.7487 29.7487 3
    endloop
  endfacet
  facet normal 0 0 1
    outer loop
      vertex -28.2843 21.2132 3
      vertex -24.7487 29.7487 3
      vertex -26.6622 29.3681 3
    endloop
  endfacet
  facet normal 0 0 1
    outer loop
      vertex -28.2843 21.2132 3
      vertex -26.6622 29.3681 3
      vertex -28.2843 28.2843 3
    endloop
  endfacet
  facet normal 0 0 1
    outer loop
      vertex -4.37082 4.10534 3
      vertex -28.2843 21.2132 3
      vertex -7.07107 0 3
    endloop
  endfacet
  facet normal -0 0 1
    outer loop
      vertex -29.3681 26.6622 3
      vertex -28.2843 21.2132 3
      vertex -28.2843 28.2843 3
    endloop
  endfacet
  facet normal 0 0 1
    outer loop
      vertex -29.3681 26.6622 3
      vertex -29.3681 22.8353 3
      vertex -28.2843 21.2132 3
    endloop
  endfacet
  facet normal 0 -0 1
    outer loop
      vertex -29.3681 22.8353 3
      vertex -29.3681 26.6622 3
      vertex -29.7487 24.7487 3
    endloop
  endfacet
  facet normal 0 0 1
    outer loop
      vertex 29.3681 -22.8353 3
      vertex 29.3681 -26.6622 3
      vertex 29.7487 -24.7487 3
    endloop
  endfacet
  facet normal 0 0 1
    outer loop
      vertex 28.2843 -21.2132 3
      vertex 29.3681 -26.6622 3
      vertex 29.3681 -22.8353 3
    endloop
  endfacet
  facet normal 0 0 1
    outer loop
      vertex 28.2843 -21.2132 3
      vertex 28.2843 -28.2843 3
      vertex 29.3681 -26.6622 3
    endloop
  endfacet
  facet normal 0 0 1
    outer loop
      vertex 28.2843 -21.2132 3
      vertex 26.6622 -29.3681 3
      vertex 28.2843 -28.2843 3
    endloop
  endfacet
  facet normal 0 0 1
    outer loop
      vertex 28.2843 -21.2132 3
      vertex 24.7487 -29.7487 3
      vertex 26.6622 -29.3681 3
    endloop
  endfacet
  facet normal 0 0 1
    outer loop
      vertex 28.2843 -21.2132 3
      vertex 22.8353 -29.3681 3
      vertex 24.7487 -29.7487 3
    endloop
  endfacet
  facet normal 0 0 1
    outer loop
      vertex 28.2843 -21.2132 3
      vertex 21.2132 -28.2843 3
      vertex 22.8353 -29.3681 3
    endloop
  endfacet
  facet normal -0 0 1
    outer loop
      vertex 4.6 -3.4 3
      vertex 28.2843 -21.2132 3
      vertex 7.07107 0 3
    endloop
  endfacet
  facet normal 0 0 1
    outer loop
      vertex 5 -1.4 3
      vertex 7.07107 0 3
      vertex 5 1.4 3
    endloop
  endfacet
  facet normal 0 0 1
    outer loop
      vertex 4.6 -3.4 3
      vertex 7.07107 0 3
      vertex 5 -1.4 3
    endloop
  endfacet
  facet normal -0 0 1
    outer loop
      vertex 3.77082 -4.54127 3
      vertex 28.2843 -21.2132 3
      vertex 4.6 -3.4 3
    endloop
  endfacet
  facet normal 0 0 1
    outer loop
      vertex 28.2843 -21.2132 3
      vertex 3.77082 -4.54127 3
      vertex 21.2132 -28.2843 3
    endloop
  endfacet
  facet normal 0 0 1
    outer loop
      vertex 1.4 -5 3
      vertex 3.77082 -4.54127 3
      vertex 2.42918 -4.10534 3
    endloop
  endfacet
  facet normal 0 0 1
    outer loop
      vertex 1.24698 -1.56366 3
      vertex 2.4 -1.4 3
      vertex 2 0 3
    endloop
  endfacet
  facet normal 0 0 1
    outer loop
      vertex 2.42918 -2.69466 3
      vertex 1.4 -2.4 3
      vertex 2.42918 -4.10534 3
    endloop
  endfacet
  facet normal 0 0 1
    outer loop
      vertex 1.4 -5 3
      vertex 2.42918 -4.10534 3
      vertex 1.4 -2.4 3
    endloop
  endfacet
  facet normal 0 0 1
    outer loop
      vertex 3.77082 -4.54127 3
      vertex 1.4 -5 3
      vertex 0 -7.07107 3
    endloop
  endfacet
  facet normal 0 0 1
    outer loop
      vertex 3.77082 -4.54127 3
      vertex 0 -7.07107 3
      vertex 21.2132 -28.2843 3
    endloop
  endfacet
  facet normal -0 0 1
    outer loop
      vertex -1.4 -5 3
      vertex 0 -7.07107 3
      vertex 1.4 -5 3
    endloop
  endfacet
  facet normal 0 0 1
    outer loop
      vertex -1.80194 0.867767 3
      vertex -2.4 1.4 3
      vertex -1.80194 -0.867767 3
    endloop
  endfacet
  facet normal 0 0 1
    outer loop
      vertex -1.4 -2.4 3
      vertex -2.2 -3.4 3
      vertex -1.4 -5 3
    endloop
  endfacet
  facet normal -0 0 1
    outer loop
      vertex -3.02918 -4.54127 3
      vertex -1.4 -5 3
      vertex -2.2 -3.4 3
    endloop
  endfacet
  facet normal 0 0 1
    outer loop
      vertex -3.02918 -4.54127 3
      vertex 0 -7.07107 3
      vertex -1.4 -5 3
    endloop
  endfacet
  facet normal 0 0 1
    outer loop
      vertex -4.37082 -4.10534 3
      vertex 0 -7.07107 3
      vertex -3.02918 -4.54127 3
    endloop
  endfacet
  facet normal 0 0 1
    outer loop
      vertex -7.07107 0 3
      vertex -4.37082 -4.10534 3
      vertex -5 -1.4 3
    endloop
  endfacet
  facet normal 0 0 1
    outer loop
      vertex -4.37082 -4.10534 3
      vertex -21.2132 -28.2843 3
      vertex 0 -7.07107 3
    endloop
  endfacet
  facet normal 0 0 1
    outer loop
      vertex -28.2843 -21.2132 3
      vertex -4.37082 -4.10534 3
      vertex -7.07107 0 3
    endloop
  endfacet
  facet normal 0 0 1
    outer loop
      vertex -4.37082 -4.10534 3
      vertex -28.2843 -21.2132 3
      vertex -21.2132 -28.2843 3
    endloop
  endfacet
  facet normal 0 0 1
    outer loop
      vertex -21.2132 -28.2843 3
      vertex -28.2843 -21.2132 3
      vertex -22.8353 -29.3681 3
    endloop
  endfacet
  facet normal 0 0 1
    outer loop
      vertex -22.8353 -29.3681 3
      vertex -28.2843 -21.2132 3
      vertex -24.7487 -29.7487 3
    endloop
  endfacet
  facet normal 0 0 1
    outer loop
      vertex -24.7487 -29.7487 3
      vertex -28.2843 -21.2132 3
      vertex -26.6622 -29.3681 3
    endloop
  endfacet
  facet normal 0 0 1
    outer loop
      vertex -28.2843 -21.2132 3
      vertex -28.2843 -28.2843 3
      vertex -26.6622 -29.3681 3
    endloop
  endfacet
  facet normal -0 0 1
    outer loop
      vertex -29.3681 -22.8353 3
      vertex -28.2843 -28.2843 3
      vertex -28.2843 -21.2132 3
    endloop
  endfacet
  facet normal 0 0 1
    outer loop
      vertex -29.3681 -22.8353 3
      vertex -29.3681 -26.6622 3
      vertex -28.2843 -28.2843 3
    endloop
  endfacet
  facet normal 0 -0 1
    outer loop
      vertex -29.3681 -26.6622 3
      vertex -29.3681 -22.8353 3
      vertex -29.7487 -24.7487 3
    endloop
  endfacet
  facet normal -0 0 1
    outer loop
      vertex 3.77082 2.25873 3
      vertex 5 1.4 3
      vertex 4.6 3.4 3
    endloop
  endfacet
  facet normal 0 0 1
    outer loop
      vertex 2.4 1.4 3
      vertex 3.77082 2.25873 3
      vertex 2.42918 2.69466 3
    endloop
  endfacet
  facet normal 0 0 1
    outer loop
      vertex 3.77082 2.25873 3
      vertex 2.4 1.4 3
      vertex 5 1.4 3
    endloop
  endfacet
  facet normal 0.555552 0.831482 -0
    outer loop
      vertex 28.2843 28.2843 0
      vertex 26.6622 29.3681 3
      vertex 28.2843 28.2843 3
    endloop
  endfacet
  facet normal 0.555552 0.831482 0
    outer loop
      vertex 26.6622 29.3681 3
      vertex 28.2843 28.2843 0
      vertex 26.6622 29.3681 0
    endloop
  endfacet
  facet normal 0.555552 -0.831482 0
    outer loop
      vertex -22.8353 -29.3681 0
      vertex -21.2132 -28.2843 3
      vertex -22.8353 -29.3681 3
    endloop
  endfacet
  facet normal 0.555552 -0.831482 0
    outer loop
      vertex -21.2132 -28.2843 3
      vertex -22.8353 -29.3681 0
      vertex -21.2132 -28.2843 0
    endloop
  endfacet
  facet normal -0.831482 -0.555552 0
    outer loop
      vertex -28.2843 -28.2843 0
      vertex -29.3681 -26.6622 3
      vertex -29.3681 -26.6622 0
    endloop
  endfacet
  facet normal -0.831482 -0.555552 0
    outer loop
      vertex -29.3681 -26.6622 3
      vertex -28.2843 -28.2843 0
      vertex -28.2843 -28.2843 3
    endloop
  endfacet
  facet normal 0.195091 -0.980785 0
    outer loop
      vertex -24.7487 -29.7487 0
      vertex -22.8353 -29.3681 3
      vertex -24.7487 -29.7487 3
    endloop
  endfacet
  facet normal 0.195091 -0.980785 0
    outer loop
      vertex -22.8353 -29.3681 3
      vertex -24.7487 -29.7487 0
      vertex -22.8353 -29.3681 0
    endloop
  endfacet
  facet normal -0.980787 -0.195081 0
    outer loop
      vertex -29.3681 -26.6622 0
      vertex -29.7487 -24.7487 3
      vertex -29.7487 -24.7487 0
    endloop
  endfacet
  facet normal -0.980787 -0.195081 0
    outer loop
      vertex -29.7487 -24.7487 3
      vertex -29.3681 -26.6622 0
      vertex -29.3681 -26.6622 3
    endloop
  endfacet
  facet normal -0.195091 0.980785 0
    outer loop
      vertex 24.7487 29.7487 0
      vertex 22.8353 29.3681 3
      vertex 24.7487 29.7487 3
    endloop
  endfacet
  facet normal -0.195091 0.980785 0
    outer loop
      vertex 22.8353 29.3681 3
      vertex 24.7487 29.7487 0
      vertex 22.8353 29.3681 0
    endloop
  endfacet
  facet normal 0.707107 -0.707106 0
    outer loop
      vertex -21.2132 -28.2843 3
      vertex 0 -7.07107 0
      vertex 0 -7.07107 3
    endloop
  endfacet
  facet normal 0.707107 -0.707106 0
    outer loop
      vertex 0 -7.07107 0
      vertex -21.2132 -28.2843 3
      vertex -21.2132 -28.2843 0
    endloop
  endfacet
  facet normal 0.707106 -0.707107 0
    outer loop
      vertex 7.07107 0 3
      vertex 28.2843 21.2132 0
      vertex 28.2843 21.2132 3
    endloop
  endfacet
  facet normal 0.707106 -0.707107 0
    outer loop
      vertex 28.2843 21.2132 0
      vertex 7.07107 0 3
      vertex 7.07107 0 0
    endloop
  endfacet
  facet normal 0.831482 0.555552 0
    outer loop
      vertex 29.3681 26.6622 3
      vertex 28.2843 28.2843 0
      vertex 28.2843 28.2843 3
    endloop
  endfacet
  facet normal 0.831482 0.555552 0
    outer loop
      vertex 28.2843 28.2843 0
      vertex 29.3681 26.6622 3
      vertex 29.3681 26.6622 0
    endloop
  endfacet
  facet normal 0.980787 0.195081 0
    outer loop
      vertex 29.7487 24.7487 3
      vertex 29.3681 26.6622 0
      vertex 29.3681 26.6622 3
    endloop
  endfacet
  facet normal 0.980787 0.195081 0
    outer loop
      vertex 29.3681 26.6622 0
      vertex 29.7487 24.7487 3
      vertex 29.7487 24.7487 0
    endloop
  endfacet
  facet normal -0.831482 0.555552 0
    outer loop
      vertex -29.3681 -22.8353 0
      vertex -28.2843 -21.2132 3
      vertex -28.2843 -21.2132 0
    endloop
  endfacet
  facet normal -0.831482 0.555552 0
    outer loop
      vertex -28.2843 -21.2132 3
      vertex -29.3681 -22.8353 0
      vertex -29.3681 -22.8353 3
    endloop
  endfacet
  facet normal -0.980785 0.195091 0
    outer loop
      vertex -29.7487 -24.7487 0
      vertex -29.3681 -22.8353 3
      vertex -29.3681 -22.8353 0
    endloop
  endfacet
  facet normal -0.980785 0.195091 0
    outer loop
      vertex -29.3681 -22.8353 3
      vertex -29.7487 -24.7487 0
      vertex -29.7487 -24.7487 3
    endloop
  endfacet
  facet normal 0.195081 0.980787 -0
    outer loop
      vertex 26.6622 29.3681 0
      vertex 24.7487 29.7487 3
      vertex 26.6622 29.3681 3
    endloop
  endfacet
  facet normal 0.195081 0.980787 0
    outer loop
      vertex 24.7487 29.7487 3
      vertex 26.6622 29.3681 0
      vertex 24.7487 29.7487 0
    endloop
  endfacet
  facet normal -0.555552 0.831482 0
    outer loop
      vertex 22.8353 29.3681 0
      vertex 21.2132 28.2843 3
      vertex 22.8353 29.3681 3
    endloop
  endfacet
  facet normal -0.555552 0.831482 0
    outer loop
      vertex 21.2132 28.2843 3
      vertex 22.8353 29.3681 0
      vertex 21.2132 28.2843 0
    endloop
  endfacet
  facet normal 0.831482 -0.555552 0
    outer loop
      vertex 28.2843 21.2132 3
      vertex 29.3681 22.8353 0
      vertex 29.3681 22.8353 3
    endloop
  endfacet
  facet normal 0.831482 -0.555552 0
    outer loop
      vertex 29.3681 22.8353 0
      vertex 28.2843 21.2132 3
      vertex 28.2843 21.2132 0
    endloop
  endfacet
  facet normal -0.195081 -0.980787 0
    outer loop
      vertex -26.6622 -29.3681 0
      vertex -24.7487 -29.7487 3
      vertex -26.6622 -29.3681 3
    endloop
  endfacet
  facet normal -0.195081 -0.980787 -0
    outer loop
      vertex -24.7487 -29.7487 3
      vertex -26.6622 -29.3681 0
      vertex -24.7487 -29.7487 0
    endloop
  endfacet
  facet normal -0.555552 -0.831482 0
    outer loop
      vertex -28.2843 -28.2843 0
      vertex -26.6622 -29.3681 3
      vertex -28.2843 -28.2843 3
    endloop
  endfacet
  facet normal -0.555552 -0.831482 -0
    outer loop
      vertex -26.6622 -29.3681 3
      vertex -28.2843 -28.2843 0
      vertex -26.6622 -29.3681 0
    endloop
  endfacet
  facet normal 0.980785 -0.195091 0
    outer loop
      vertex 29.3681 22.8353 3
      vertex 29.7487 24.7487 0
      vertex 29.7487 24.7487 3
    endloop
  endfacet
  facet normal 0.980785 -0.195091 0
    outer loop
      vertex 29.7487 24.7487 0
      vertex 29.3681 22.8353 3
      vertex 29.3681 22.8353 0
    endloop
  endfacet
  facet normal 0 0 -1
    outer loop
      vertex -3.02918 2.25873 0
      vertex -2.00739 2.22943 0
      vertex -2.42705 1.76336 0
    endloop
  endfacet
  facet normal 0 0 -1
    outer loop
      vertex -3.02918 2.25873 0
      vertex -2.42705 1.76336 0
      vertex -2.74064 1.22021 0
    endloop
  endfacet
  facet normal 0 0 -1
    outer loop
      vertex -4.37082 2.69466 0
      vertex -2.74064 1.22021 0
      vertex -2.93444 0.623734 0
    endloop
  endfacet
  facet normal 0 0 -1
    outer loop
      vertex -2.00739 2.22943 0
      vertex -3.02918 2.25873 0
      vertex -2.2 3.4 0
    endloop
  endfacet
  facet normal 0 0 -1
    outer loop
      vertex -7.07107 0 0
      vertex -2.93444 0.623734 0
      vertex -3 0 0
    endloop
  endfacet
  facet normal 0 0 -1
    outer loop
      vertex -7.07107 0 0
      vertex -2.93444 -0.623734 0
      vertex -4.37082 -2.69466 0
    endloop
  endfacet
  facet normal 0 0 -1
    outer loop
      vertex -2.93444 -0.623734 0
      vertex -7.07107 0 0
      vertex -3 0 0
    endloop
  endfacet
  facet normal -0 0 -1
    outer loop
      vertex -2.93444 0.623734 0
      vertex -7.07107 0 0
      vertex -4.37082 2.69466 0
    endloop
  endfacet
  facet normal 0 0 -1
    outer loop
      vertex -3.02918 -2.25873 0
      vertex -2.00739 -2.22943 0
      vertex -2.2 -3.4 0
    endloop
  endfacet
  facet normal -0 0 -1
    outer loop
      vertex -2.00739 -2.22943 0
      vertex -3.02918 -2.25873 0
      vertex -2.42705 -1.76336 0
    endloop
  endfacet
  facet normal -0 0 -1
    outer loop
      vertex -2.42705 -1.76336 0
      vertex -3.02918 -2.25873 0
      vertex -2.74064 -1.22021 0
    endloop
  endfacet
  facet normal -0 0 -1
    outer loop
      vertex -2.74064 -1.22021 0
      vertex -4.37082 -2.69466 0
      vertex -2.93444 -0.623734 0
    endloop
  endfacet
  facet normal 0 0 -1
    outer loop
      vertex -4.37082 -2.69466 0
      vertex -2.74064 -1.22021 0
      vertex -3.02918 -2.25873 0
    endloop
  endfacet
  facet normal 0 0 -1
    outer loop
      vertex 2.93444 -0.623734 0
      vertex 7.07107 0 0
      vertex 3.77082 -2.25873 0
    endloop
  endfacet
  facet normal 0 0 -1
    outer loop
      vertex 7.07107 0 0
      vertex 3.77082 2.25873 0
      vertex 4.6 3.4 0
    endloop
  endfacet
  facet normal 0 0 -1
    outer loop
      vertex 2.93444 0.623734 0
      vertex 7.07107 0 0
      vertex 3 0 0
    endloop
  endfacet
  facet normal -0 0 -1
    outer loop
      vertex 7.07107 0 0
      vertex 2.93444 -0.623734 0
      vertex 3 0 0
    endloop
  endfacet
  facet normal 0 0 -1
    outer loop
      vertex 3.77082 -2.25873 0
      vertex 2.74064 -1.22021 0
      vertex 2.93444 -0.623734 0
    endloop
  endfacet
  facet normal 0 0 -1
    outer loop
      vertex 2.42705 -1.76336 0
      vertex 3.77082 -2.25873 0
      vertex 2.42918 -2.69466 0
    endloop
  endfacet
  facet normal 0 0 -1
    outer loop
      vertex 3.77082 -2.25873 0
      vertex 2.42705 -1.76336 0
      vertex 2.74064 -1.22021 0
    endloop
  endfacet
  facet normal 0 0 -1
    outer loop
      vertex 29.3681 -26.6622 0
      vertex 29.3681 -22.8353 0
      vertex 29.7487 -24.7487 0
    endloop
  endfacet
  facet normal 0 0 -1
    outer loop
      vertex 28.2843 -28.2843 0
      vertex 29.3681 -22.8353 0
      vertex 29.3681 -26.6622 0
    endloop
  endfacet
  facet normal 0 0 -1
    outer loop
      vertex 28.2843 -28.2843 0
      vertex 28.2843 -21.2132 0
      vertex 29.3681 -22.8353 0
    endloop
  endfacet
  facet normal 0 0 -1
    outer loop
      vertex 26.6622 -29.3681 0
      vertex 28.2843 -21.2132 0
      vertex 28.2843 -28.2843 0
    endloop
  endfacet
  facet normal 0 0 -1
    outer loop
      vertex 24.7487 -29.7487 0
      vertex 28.2843 -21.2132 0
      vertex 26.6622 -29.3681 0
    endloop
  endfacet
  facet normal 0 0 -1
    outer loop
      vertex 22.8353 -29.3681 0
      vertex 28.2843 -21.2132 0
      vertex 24.7487 -29.7487 0
    endloop
  endfacet
  facet normal 0 0 -1
    outer loop
      vertex 21.2132 -28.2843 0
      vertex 28.2843 -21.2132 0
      vertex 22.8353 -29.3681 0
    endloop
  endfacet
  facet normal 0 0 -1
    outer loop
      vertex 3.77082 -4.54127 0
      vertex 28.2843 -21.2132 0
      vertex 21.2132 -28.2843 0
    endloop
  endfacet
  facet normal 0 0 -1
    outer loop
      vertex 28.2843 -21.2132 0
      vertex 4.6 -3.4 0
      vertex 7.07107 0 0
    endloop
  endfacet
  facet normal 0 0 -1
    outer loop
      vertex 28.2843 -21.2132 0
      vertex 3.77082 -4.54127 0
      vertex 4.6 -3.4 0
    endloop
  endfacet
  facet normal 0 0 -1
    outer loop
      vertex 0 -7.07107 0
      vertex 3.77082 -4.54127 0
      vertex 21.2132 -28.2843 0
    endloop
  endfacet
  facet normal 0 0 -1
    outer loop
      vertex 1.5 -2.59808 0
      vertex 2.42918 -2.69466 0
      vertex 2.42918 -4.10534 0
    endloop
  endfacet
  facet normal 0 0 -1
    outer loop
      vertex 2.42918 -2.69466 0
      vertex 2.00739 -2.22943 0
      vertex 2.42705 -1.76336 0
    endloop
  endfacet
  facet normal 0 0 -1
    outer loop
      vertex 2.42918 -2.69466 0
      vertex 1.5 -2.59808 0
      vertex 2.00739 -2.22943 0
    endloop
  endfacet
  facet normal 0 0 -1
    outer loop
      vertex 2.42918 -4.10534 0
      vertex 0.927051 -2.85317 0
      vertex 1.5 -2.59808 0
    endloop
  endfacet
  facet normal -0 0 -1
    outer loop
      vertex 3.77082 -4.54127 0
      vertex 0 -7.07107 0
      vertex 2.42918 -4.10534 0
    endloop
  endfacet
  facet normal 0 -0 -1
    outer loop
      vertex 0.313585 -2.98357 0
      vertex 2.42918 -4.10534 0
      vertex 0 -7.07107 0
    endloop
  endfacet
  facet normal 0 0 -1
    outer loop
      vertex 2.42918 -4.10534 0
      vertex 0.313585 -2.98357 0
      vertex 0.927051 -2.85317 0
    endloop
  endfacet
  facet normal 0 0 -1
    outer loop
      vertex 0 -7.07107 0
      vertex -0.313585 -2.98357 0
      vertex 0.313585 -2.98357 0
    endloop
  endfacet
  facet normal 0 0 -1
    outer loop
      vertex -2.2 -3.4 0
      vertex -0.313585 -2.98357 0
      vertex 0 -7.07107 0
    endloop
  endfacet
  facet normal -0 0 -1
    outer loop
      vertex -0.313585 -2.98357 0
      vertex -2.2 -3.4 0
      vertex -0.927051 -2.85317 0
    endloop
  endfacet
  facet normal -0 0 -1
    outer loop
      vertex -0.927051 -2.85317 0
      vertex -2.2 -3.4 0
      vertex -1.5 -2.59808 0
    endloop
  endfacet
  facet normal -0 0 -1
    outer loop
      vertex -1.5 -2.59808 0
      vertex -2.2 -3.4 0
      vertex -2.00739 -2.22943 0
    endloop
  endfacet
  facet normal 0 0 -1
    outer loop
      vertex 0 -7.07107 0
      vertex -3.02918 -4.54127 0
      vertex -2.2 -3.4 0
    endloop
  endfacet
  facet normal 0 0 -1
    outer loop
      vertex 0 -7.07107 0
      vertex -4.37082 -4.10534 0
      vertex -3.02918 -4.54127 0
    endloop
  endfacet
  facet normal 0 0 -1
    outer loop
      vertex -7.07107 0 0
      vertex -4.37082 -2.69466 0
      vertex -4.37082 -4.10534 0
    endloop
  endfacet
  facet normal 0 0 -1
    outer loop
      vertex -2.74064 1.22021 0
      vertex -4.37082 2.69466 0
      vertex -3.02918 2.25873 0
    endloop
  endfacet
  facet normal -0 0 -1
    outer loop
      vertex -4.37082 2.69466 0
      vertex -7.07107 0 0
      vertex -4.37082 4.10534 0
    endloop
  endfacet
  facet normal 0 0 -1
    outer loop
      vertex -21.2132 -28.2843 0
      vertex -4.37082 -4.10534 0
      vertex 0 -7.07107 0
    endloop
  endfacet
  facet normal 0 0 -1
    outer loop
      vertex -28.2843 -21.2132 0
      vertex -4.37082 -4.10534 0
      vertex -21.2132 -28.2843 0
    endloop
  endfacet
  facet normal 0 0 -1
    outer loop
      vertex -28.2843 -21.2132 0
      vertex -21.2132 -28.2843 0
      vertex -22.8353 -29.3681 0
    endloop
  endfacet
  facet normal 0 0 -1
    outer loop
      vertex -28.2843 -21.2132 0
      vertex -22.8353 -29.3681 0
      vertex -24.7487 -29.7487 0
    endloop
  endfacet
  facet normal 0 0 -1
    outer loop
      vertex -28.2843 -21.2132 0
      vertex -24.7487 -29.7487 0
      vertex -26.6622 -29.3681 0
    endloop
  endfacet
  facet normal 0 0 -1
    outer loop
      vertex -28.2843 -21.2132 0
      vertex -26.6622 -29.3681 0
      vertex -28.2843 -28.2843 0
    endloop
  endfacet
  facet normal -0 0 -1
    outer loop
      vertex -4.37082 -4.10534 0
      vertex -28.2843 -21.2132 0
      vertex -7.07107 0 0
    endloop
  endfacet
  facet normal 0 0 -1
    outer loop
      vertex -29.3681 -26.6622 0
      vertex -28.2843 -21.2132 0
      vertex -28.2843 -28.2843 0
    endloop
  endfacet
  facet normal 0 0 -1
    outer loop
      vertex -29.3681 -26.6622 0
      vertex -29.3681 -22.8353 0
      vertex -28.2843 -21.2132 0
    endloop
  endfacet
  facet normal 0 -0 -1
    outer loop
      vertex -29.3681 -22.8353 0
      vertex -29.3681 -26.6622 0
      vertex -29.7487 -24.7487 0
    endloop
  endfacet
  facet normal 0 0 -1
    outer loop
      vertex 29.3681 22.8353 0
      vertex 29.3681 26.6622 0
      vertex 29.7487 24.7487 0
    endloop
  endfacet
  facet normal 0 0 -1
    outer loop
      vertex 28.2843 21.2132 0
      vertex 29.3681 26.6622 0
      vertex 29.3681 22.8353 0
    endloop
  endfacet
  facet normal 0 0 -1
    outer loop
      vertex 28.2843 21.2132 0
      vertex 28.2843 28.2843 0
      vertex 29.3681 26.6622 0
    endloop
  endfacet
  facet normal 0 0 -1
    outer loop
      vertex 28.2843 21.2132 0
      vertex 26.6622 29.3681 0
      vertex 28.2843 28.2843 0
    endloop
  endfacet
  facet normal 0 0 -1
    outer loop
      vertex 28.2843 21.2132 0
      vertex 24.7487 29.7487 0
      vertex 26.6622 29.3681 0
    endloop
  endfacet
  facet normal 0 0 -1
    outer loop
      vertex 28.2843 21.2132 0
      vertex 22.8353 29.3681 0
      vertex 24.7487 29.7487 0
    endloop
  endfacet
  facet normal 0 0 -1
    outer loop
      vertex 28.2843 21.2132 0
      vertex 21.2132 28.2843 0
      vertex 22.8353 29.3681 0
    endloop
  endfacet
  facet normal 0 0 -1
    outer loop
      vertex 4.6 3.4 0
      vertex 28.2843 21.2132 0
      vertex 7.07107 0 0
    endloop
  endfacet
  facet normal 0 0 -1
    outer loop
      vertex 3.77082 -2.25873 0
      vertex 7.07107 0 0
      vertex 4.6 -3.4 0
    endloop
  endfacet
  facet normal 0 0 -1
    outer loop
      vertex 3.77082 4.54127 0
      vertex 28.2843 21.2132 0
      vertex 4.6 3.4 0
    endloop
  endfacet
  facet normal -0 0 -1
    outer loop
      vertex 28.2843 21.2132 0
      vertex 3.77082 4.54127 0
      vertex 21.2132 28.2843 0
    endloop
  endfacet
  facet normal 0 0 -1
    outer loop
      vertex 0 7.07107 0
      vertex 3.77082 4.54127 0
      vertex 2.42918 4.10534 0
    endloop
  endfacet
  facet normal 0 0 -1
    outer loop
      vertex 1.5 2.59808 0
      vertex 2.42918 2.69466 0
      vertex 2.00739 2.22943 0
    endloop
  endfacet
  facet normal -0 0 -1
    outer loop
      vertex 2.42918 2.69466 0
      vertex 1.5 2.59808 0
      vertex 2.42918 4.10534 0
    endloop
  endfacet
  facet normal 0 0 -1
    outer loop
      vertex 0.927051 2.85317 0
      vertex 2.42918 4.10534 0
      vertex 1.5 2.59808 0
    endloop
  endfacet
  facet normal 0 0 -1
    outer loop
      vertex 0.313585 2.98357 0
      vertex 2.42918 4.10534 0
      vertex 0.927051 2.85317 0
    endloop
  endfacet
  facet normal -0 0 -1
    outer loop
      vertex 2.42918 4.10534 0
      vertex 0.313585 2.98357 0
      vertex 0 7.07107 0
    endloop
  endfacet
  facet normal 0 0 -1
    outer loop
      vertex 3.77082 4.54127 0
      vertex 0 7.07107 0
      vertex 21.2132 28.2843 0
    endloop
  endfacet
  facet normal 0 0 -1
    outer loop
      vertex -0.313585 2.98357 0
      vertex 0 7.07107 0
      vertex 0.313585 2.98357 0
    endloop
  endfacet
  facet normal 0 0 -1
    outer loop
      vertex -2.2 3.4 0
      vertex -0.313585 2.98357 0
      vertex -0.927051 2.85317 0
    endloop
  endfacet
  facet normal 0 0 -1
    outer loop
      vertex -2.2 3.4 0
      vertex -0.927051 2.85317 0
      vertex -1.5 2.59808 0
    endloop
  endfacet
  facet normal 0 0 -1
    outer loop
      vertex -2.2 3.4 0
      vertex -1.5 2.59808 0
      vertex -2.00739 2.22943 0
    endloop
  endfacet
  facet normal 0 0 -1
    outer loop
      vertex -0.313585 2.98357 0
      vertex -2.2 3.4 0
      vertex 0 7.07107 0
    endloop
  endfacet
  facet normal 0 0 -1
    outer loop
      vertex -3.02918 4.54127 0
      vertex 0 7.07107 0
      vertex -2.2 3.4 0
    endloop
  endfacet
  facet normal 0 0 -1
    outer loop
      vertex -4.37082 4.10534 0
      vertex 0 7.07107 0
      vertex -3.02918 4.54127 0
    endloop
  endfacet
  facet normal 0 0 -1
    outer loop
      vertex -4.37082 4.10534 0
      vertex -21.2132 28.2843 0
      vertex 0 7.07107 0
    endloop
  endfacet
  facet normal 0 0 -1
    outer loop
      vertex -28.2843 21.2132 0
      vertex -4.37082 4.10534 0
      vertex -7.07107 0 0
    endloop
  endfacet
  facet normal 0 0 -1
    outer loop
      vertex -4.37082 4.10534 0
      vertex -28.2843 21.2132 0
      vertex -21.2132 28.2843 0
    endloop
  endfacet
  facet normal -0 0 -1
    outer loop
      vertex -21.2132 28.2843 0
      vertex -28.2843 21.2132 0
      vertex -22.8353 29.3681 0
    endloop
  endfacet
  facet normal -0 0 -1
    outer loop
      vertex -22.8353 29.3681 0
      vertex -28.2843 21.2132 0
      vertex -24.7487 29.7487 0
    endloop
  endfacet
  facet normal 0 0 -1
    outer loop
      vertex -24.7487 29.7487 0
      vertex -28.2843 21.2132 0
      vertex -26.6622 29.3681 0
    endloop
  endfacet
  facet normal 0 0 -1
    outer loop
      vertex -28.2843 21.2132 0
      vertex -28.2843 28.2843 0
      vertex -26.6622 29.3681 0
    endloop
  endfacet
  facet normal 0 0 -1
    outer loop
      vertex -29.3681 22.8353 0
      vertex -28.2843 28.2843 0
      vertex -28.2843 21.2132 0
    endloop
  endfacet
  facet normal 0 0 -1
    outer loop
      vertex -29.3681 22.8353 0
      vertex -29.3681 26.6622 0
      vertex -28.2843 28.2843 0
    endloop
  endfacet
  facet normal 0 -0 -1
    outer loop
      vertex -29.3681 26.6622 0
      vertex -29.3681 22.8353 0
      vertex -29.7487 24.7487 0
    endloop
  endfacet
  facet normal 0 0 -1
    outer loop
      vertex 7.07107 0 0
      vertex 2.93444 0.623734 0
      vertex 3.77082 2.25873 0
    endloop
  endfacet
  facet normal 0 0 -1
    outer loop
      vertex 2.74064 1.22021 0
      vertex 3.77082 2.25873 0
      vertex 2.93444 0.623734 0
    endloop
  endfacet
  facet normal 0 0 -1
    outer loop
      vertex 2.42705 1.76336 0
      vertex 3.77082 2.25873 0
      vertex 2.74064 1.22021 0
    endloop
  endfacet
  facet normal 0 0 -1
    outer loop
      vertex 2.00739 2.22943 0
      vertex 2.42918 2.69466 0
      vertex 2.42705 1.76336 0
    endloop
  endfacet
  facet normal -0 0 -1
    outer loop
      vertex 3.77082 2.25873 0
      vertex 2.42705 1.76336 0
      vertex 2.42918 2.69466 0
    endloop
  endfacet
  facet normal 0.195091 0.980785 -0
    outer loop
      vertex -22.8353 29.3681 0
      vertex -24.7487 29.7487 3
      vertex -22.8353 29.3681 3
    endloop
  endfacet
  facet normal 0.195091 0.980785 0
    outer loop
      vertex -24.7487 29.7487 3
      vertex -22.8353 29.3681 0
      vertex -24.7487 29.7487 0
    endloop
  endfacet
  facet normal -0.195091 -0.980785 0
    outer loop
      vertex 22.8353 -29.3681 0
      vertex 24.7487 -29.7487 3
      vertex 22.8353 -29.3681 3
    endloop
  endfacet
  facet normal -0.195091 -0.980785 -0
    outer loop
      vertex 24.7487 -29.7487 3
      vertex 22.8353 -29.3681 0
      vertex 24.7487 -29.7487 0
    endloop
  endfacet
  facet normal -0.707107 -0.707106 0
    outer loop
      vertex 21.2132 -28.2843 0
      vertex 0 -7.07107 3
      vertex 0 -7.07107 0
    endloop
  endfacet
  facet normal -0.707107 -0.707106 0
    outer loop
      vertex 0 -7.07107 3
      vertex 21.2132 -28.2843 0
      vertex 21.2132 -28.2843 3
    endloop
  endfacet
  facet normal -0.707106 -0.707107 0
    outer loop
      vertex -7.07107 0 0
      vertex -28.2843 21.2132 3
      vertex -28.2843 21.2132 0
    endloop
  endfacet
  facet normal -0.707106 -0.707107 0
    outer loop
      vertex -28.2843 21.2132 3
      vertex -7.07107 0 0
      vertex -7.07107 0 3
    endloop
  endfacet
  facet normal 0.980785 0.195091 0
    outer loop
      vertex 29.7487 -24.7487 3
      vertex 29.3681 -22.8353 0
      vertex 29.3681 -22.8353 3
    endloop
  endfacet
  facet normal 0.980785 0.195091 0
    outer loop
      vertex 29.3681 -22.8353 0
      vertex 29.7487 -24.7487 3
      vertex 29.7487 -24.7487 0
    endloop
  endfacet
  facet normal 0.831482 0.555552 0
    outer loop
      vertex 29.3681 -22.8353 3
      vertex 28.2843 -21.2132 0
      vertex 28.2843 -21.2132 3
    endloop
  endfacet
  facet normal 0.831482 0.555552 0
    outer loop
      vertex 28.2843 -21.2132 0
      vertex 29.3681 -22.8353 3
      vertex 29.3681 -22.8353 0
    endloop
  endfacet
  facet normal 0.831482 -0.555552 0
    outer loop
      vertex 28.2843 -28.2843 3
      vertex 29.3681 -26.6622 0
      vertex 29.3681 -26.6622 3
    endloop
  endfacet
  facet normal 0.831482 -0.555552 0
    outer loop
      vertex 29.3681 -26.6622 0
      vertex 28.2843 -28.2843 3
      vertex 28.2843 -28.2843 0
    endloop
  endfacet
  facet normal 0.555552 0.831482 -0
    outer loop
      vertex -21.2132 28.2843 0
      vertex -22.8353 29.3681 3
      vertex -21.2132 28.2843 3
    endloop
  endfacet
  facet normal 0.555552 0.831482 0
    outer loop
      vertex -22.8353 29.3681 3
      vertex -21.2132 28.2843 0
      vertex -22.8353 29.3681 0
    endloop
  endfacet
  facet normal -0.555552 0.831482 0
    outer loop
      vertex -26.6622 29.3681 0
      vertex -28.2843 28.2843 3
      vertex -26.6622 29.3681 3
    endloop
  endfacet
  facet normal -0.555552 0.831482 0
    outer loop
      vertex -28.2843 28.2843 3
      vertex -26.6622 29.3681 0
      vertex -28.2843 28.2843 0
    endloop
  endfacet
  facet normal 0.195081 -0.980787 0
    outer loop
      vertex 24.7487 -29.7487 0
      vertex 26.6622 -29.3681 3
      vertex 24.7487 -29.7487 3
    endloop
  endfacet
  facet normal 0.195081 -0.980787 0
    outer loop
      vertex 26.6622 -29.3681 3
      vertex 24.7487 -29.7487 0
      vertex 26.6622 -29.3681 0
    endloop
  endfacet
  facet normal -0.555552 -0.831482 0
    outer loop
      vertex 21.2132 -28.2843 0
      vertex 22.8353 -29.3681 3
      vertex 21.2132 -28.2843 3
    endloop
  endfacet
  facet normal -0.555552 -0.831482 -0
    outer loop
      vertex 22.8353 -29.3681 3
      vertex 21.2132 -28.2843 0
      vertex 22.8353 -29.3681 0
    endloop
  endfacet
  facet normal -0.980785 -0.195091 0
    outer loop
      vertex -29.3681 22.8353 0
      vertex -29.7487 24.7487 3
      vertex -29.7487 24.7487 0
    endloop
  endfacet
  facet normal -0.980785 -0.195091 0
    outer loop
      vertex -29.7487 24.7487 3
      vertex -29.3681 22.8353 0
      vertex -29.3681 22.8353 3
    endloop
  endfacet
  facet normal 0.707106 0.707107 0
    outer loop
      vertex 28.2843 -21.2132 3
      vertex 7.07107 0 0
      vertex 7.07107 0 3
    endloop
  endfacet
  facet normal 0.707106 0.707107 0
    outer loop
      vertex 7.07107 0 0
      vertex 28.2843 -21.2132 3
      vertex 28.2843 -21.2132 0
    endloop
  endfacet
  facet normal 0.707107 0.707106 0
    outer loop
      vertex 0 7.07107 3
      vertex -21.2132 28.2843 0
      vertex -21.2132 28.2843 3
    endloop
  endfacet
  facet normal 0.707107 0.707106 0
    outer loop
      vertex -21.2132 28.2843 0
      vertex 0 7.07107 3
      vertex 0 7.07107 0
    endloop
  endfacet
  facet normal -0.195081 0.980787 0
    outer loop
      vertex -24.7487 29.7487 0
      vertex -26.6622 29.3681 3
      vertex -24.7487 29.7487 3
    endloop
  endfacet
  facet normal -0.195081 0.980787 0
    outer loop
      vertex -26.6622 29.3681 3
      vertex -24.7487 29.7487 0
      vertex -26.6622 29.3681 0
    endloop
  endfacet
  facet normal -0.831482 -0.555552 0
    outer loop
      vertex -28.2843 21.2132 0
      vertex -29.3681 22.8353 3
      vertex -29.3681 22.8353 0
    endloop
  endfacet
  facet normal -0.831482 -0.555552 0
    outer loop
      vertex -29.3681 22.8353 3
      vertex -28.2843 21.2132 0
      vertex -28.2843 21.2132 3
    endloop
  endfacet
  facet normal -0.980787 0.195081 0
    outer loop
      vertex -29.7487 24.7487 0
      vertex -29.3681 26.6622 3
      vertex -29.3681 26.6622 0
    endloop
  endfacet
  facet normal -0.980787 0.195081 0
    outer loop
      vertex -29.3681 26.6622 3
      vertex -29.7487 24.7487 0
      vertex -29.7487 24.7487 3
    endloop
  endfacet
  facet normal 0.980787 -0.195081 0
    outer loop
      vertex 29.3681 -26.6622 3
      vertex 29.7487 -24.7487 0
      vertex 29.7487 -24.7487 3
    endloop
  endfacet
  facet normal 0.980787 -0.195081 0
    outer loop
      vertex 29.7487 -24.7487 0
      vertex 29.3681 -26.6622 3
      vertex 29.3681 -26.6622 0
    endloop
  endfacet
  facet normal 0.555552 -0.831482 0
    outer loop
      vertex 26.6622 -29.3681 0
      vertex 28.2843 -28.2843 3
      vertex 26.6622 -29.3681 3
    endloop
  endfacet
  facet normal 0.555552 -0.831482 0
    outer loop
      vertex 28.2843 -28.2843 3
      vertex 26.6622 -29.3681 0
      vertex 28.2843 -28.2843 0
    endloop
  endfacet
  facet normal -0.831482 0.555552 0
    outer loop
      vertex -29.3681 26.6622 0
      vertex -28.2843 28.2843 3
      vertex -28.2843 28.2843 0
    endloop
  endfacet
  facet normal -0.831482 0.555552 0
    outer loop
      vertex -28.2843 28.2843 3
      vertex -29.3681 26.6622 0
      vertex -29.3681 26.6622 3
    endloop
  endfacet
  facet normal 1 -0 0
    outer loop
      vertex 5 -1.4 33
      vertex 5 1.4 3
      vertex 5 1.4 33
    endloop
  endfacet
  facet normal 1 0 0
    outer loop
      vertex 5 1.4 3
      vertex 5 -1.4 33
      vertex 5 -1.4 3
    endloop
  endfacet
  facet normal -1 0 0
    outer loop
      vertex -5 -1.4 3
      vertex -5 1.4 33
      vertex -5 1.4 3
    endloop
  endfacet
  facet normal -1 -0 0
    outer loop
      vertex -5 1.4 33
      vertex -5 -1.4 3
      vertex -5 -1.4 33
    endloop
  endfacet
  facet normal 0 1 -0
    outer loop
      vertex 1.4 5 3
      vertex -1.4 5 33
      vertex 1.4 5 33
    endloop
  endfacet
  facet normal 0 1 0
    outer loop
      vertex -1.4 5 33
      vertex 1.4 5 3
      vertex -1.4 5 3
    endloop
  endfacet
  facet normal -0 0 1
    outer loop
      vertex 2.4 1.4 33
      vertex 5 -1.4 33
      vertex 5 1.4 33
    endloop
  endfacet
  facet normal 0 0 1
    outer loop
      vertex 5 -1.4 33
      vertex 2.4 1.4 33
      vertex 2.4 -1.4 33
    endloop
  endfacet
  facet normal -1 0 0
    outer loop
      vertex 2.4 -1.4 3
      vertex 2.4 1.4 33
      vertex 2.4 1.4 3
    endloop
  endfacet
  facet normal -1 -0 0
    outer loop
      vertex 2.4 1.4 33
      vertex 2.4 -1.4 3
      vertex 2.4 -1.4 33
    endloop
  endfacet
  facet normal 0 1 -0
    outer loop
      vertex 5 1.4 3
      vertex 2.4 1.4 33
      vertex 5 1.4 33
    endloop
  endfacet
  facet normal 0 1 0
    outer loop
      vertex 2.4 1.4 33
      vertex 5 1.4 3
      vertex 2.4 1.4 3
    endloop
  endfacet
  facet normal 0 -1 0
    outer loop
      vertex 2.4 -1.4 3
      vertex 5 -1.4 33
      vertex 2.4 -1.4 33
    endloop
  endfacet
  facet normal 0 -1 -0
    outer loop
      vertex 5 -1.4 33
      vertex 2.4 -1.4 3
      vertex 5 -1.4 3
    endloop
  endfacet
  facet normal 1 -0 0
    outer loop
      vertex -2.4 -1.4 33
      vertex -2.4 1.4 3
      vertex -2.4 1.4 33
    endloop
  endfacet
  facet normal 1 0 0
    outer loop
      vertex -2.4 1.4 3
      vertex -2.4 -1.4 33
      vertex -2.4 -1.4 3
    endloop
  endfacet
  facet normal -0 0 1
    outer loop
      vertex -5 1.4 33
      vertex -2.4 -1.4 33
      vertex -2.4 1.4 33
    endloop
  endfacet
  facet normal 0 0 1
    outer loop
      vertex -2.4 -1.4 33
      vertex -5 1.4 33
      vertex -5 -1.4 33
    endloop
  endfacet
  facet normal 0 1 -0
    outer loop
      vertex -2.4 1.4 3
      vertex -5 1.4 33
      vertex -2.4 1.4 33
    endloop
  endfacet
  facet normal 0 1 0
    outer loop
      vertex -5 1.4 33
      vertex -2.4 1.4 3
      vertex -5 1.4 3
    endloop
  endfacet
  facet normal 0 -1 0
    outer loop
      vertex -5 -1.4 3
      vertex -2.4 -1.4 33
      vertex -5 -1.4 33
    endloop
  endfacet
  facet normal 0 -1 -0
    outer loop
      vertex -2.4 -1.4 33
      vertex -5 -1.4 3
      vertex -2.4 -1.4 3
    endloop
  endfacet
  facet normal 1 -0 0
    outer loop
      vertex 1.4 2.4 33
      vertex 1.4 5 3
      vertex 1.4 5 33
    endloop
  endfacet
  facet normal 1 0 0
    outer loop
      vertex 1.4 5 3
      vertex 1.4 2.4 33
      vertex 1.4 2.4 3
    endloop
  endfacet
  facet normal -0 0 1
    outer loop
      vertex -1.4 5 33
      vertex 1.4 2.4 33
      vertex 1.4 5 33
    endloop
  endfacet
  facet normal 0 0 1
    outer loop
      vertex 1.4 2.4 33
      vertex -1.4 5 33
      vertex -1.4 2.4 33
    endloop
  endfacet
  facet normal -1 0 0
    outer loop
      vertex -1.4 2.4 3
      vertex -1.4 5 33
      vertex -1.4 5 3
    endloop
  endfacet
  facet normal -1 -0 0
    outer loop
      vertex -1.4 5 33
      vertex -1.4 2.4 3
      vertex -1.4 2.4 33
    endloop
  endfacet
  facet normal 0 -1 0
    outer loop
      vertex -1.4 2.4 3
      vertex 1.4 2.4 33
      vertex -1.4 2.4 33
    endloop
  endfacet
  facet normal 0 -1 -0
    outer loop
      vertex 1.4 2.4 33
      vertex -1.4 2.4 3
      vertex 1.4 2.4 3
    endloop
  endfacet
  facet normal 1 -0 0
    outer loop
      vertex 1.4 -5 33
      vertex 1.4 -2.4 3
      vertex 1.4 -2.4 33
    endloop
  endfacet
  facet normal 1 0 0
    outer loop
      vertex 1.4 -2.4 3
      vertex 1.4 -5 33
      vertex 1.4 -5 3
    endloop
  endfacet
  facet normal -0 0 1
    outer loop
      vertex -1.4 -2.4 33
      vertex 1.4 -5 33
      vertex 1.4 -2.4 33
    endloop
  endfacet
  facet normal 0 0 1
    outer loop
      vertex 1.4 -5 33
      vertex -1.4 -2.4 33
      vertex -1.4 -5 33
    endloop
  endfacet
  facet normal -1 0 0
    outer loop
      vertex -1.4 -5 3
      vertex -1.4 -2.4 33
      vertex -1.4 -2.4 3
    endloop
  endfacet
  facet normal -1 -0 0
    outer loop
      vertex -1.4 -2.4 33
      vertex -1.4 -5 3
      vertex -1.4 -5 33
    endloop
  endfacet
  facet normal 0 1 -0
    outer loop
      vertex 1.4 -2.4 3
      vertex -1.4 -2.4 33
      vertex 1.4 -2.4 33
    endloop
  endfacet
  facet normal 0 1 0
    outer loop
      vertex -1.4 -2.4 33
      vertex 1.4 -2.4 3
      vertex -1.4 -2.4 3
    endloop
  endfacet
  facet normal 0 -1 0
    outer loop
      vertex -1.4 -5 3
      vertex 1.4 -5 33
      vertex -1.4 -5 33
    endloop
  endfacet
  facet normal 0 -1 -0
    outer loop
      vertex 1.4 -5 33
      vertex -1.4 -5 3
      vertex 1.4 -5 3
    endloop
  endfacet
  facet normal 0.30902 0.951056 -0
    outer loop
      vertex 3.77082 2.25873 0
      vertex 2.42918 2.69466 3
      vertex 3.77082 2.25873 3
    endloop
  endfacet
  facet normal 0.30902 0.951056 0
    outer loop
      vertex 2.42918 2.69466 3
      vertex 3.77082 2.25873 0
      vertex 2.42918 2.69466 0
    endloop
  endfacet
  facet normal 0.30902 -0.951056 0
    outer loop
      vertex 2.42918 4.10534 0
      vertex 3.77082 4.54127 3
      vertex 2.42918 4.10534 3
    endloop
  endfacet
  facet normal 0.30902 -0.951056 0
    outer loop
      vertex 3.77082 4.54127 3
      vertex 2.42918 4.10534 0
      vertex 3.77082 4.54127 0
    endloop
  endfacet
  facet normal -0.809017 -0.587785 0
    outer loop
      vertex 4.6 3.4 0
      vertex 3.77082 4.54127 3
      vertex 3.77082 4.54127 0
    endloop
  endfacet
  facet normal -0.809017 -0.587785 0
    outer loop
      vertex 3.77082 4.54127 3
      vertex 4.6 3.4 0
      vertex 4.6 3.4 3
    endloop
  endfacet
  facet normal 1 -0 0
    outer loop
      vertex 2.42918 2.69466 3
      vertex 2.42918 4.10534 0
      vertex 2.42918 4.10534 3
    endloop
  endfacet
  facet normal 1 0 0
    outer loop
      vertex 2.42918 4.10534 0
      vertex 2.42918 2.69466 3
      vertex 2.42918 2.69466 0
    endloop
  endfacet
  facet normal -0.809017 0.587785 0
    outer loop
      vertex 3.77082 2.25873 0
      vertex 4.6 3.4 3
      vertex 4.6 3.4 0
    endloop
  endfacet
  facet normal -0.809017 0.587785 0
    outer loop
      vertex 4.6 3.4 3
      vertex 3.77082 2.25873 0
      vertex 3.77082 2.25873 3
    endloop
  endfacet
  facet normal 0.30902 0.951056 -0
    outer loop
      vertex -3.02918 2.25873 0
      vertex -4.37082 2.69466 3
      vertex -3.02918 2.25873 3
    endloop
  endfacet
  facet normal 0.30902 0.951056 0
    outer loop
      vertex -4.37082 2.69466 3
      vertex -3.02918 2.25873 0
      vertex -4.37082 2.69466 0
    endloop
  endfacet
  facet normal 0.30902 -0.951056 0
    outer loop
      vertex -4.37082 4.10534 0
      vertex -3.02918 4.54127 3
      vertex -4.37082 4.10534 3
    endloop
  endfacet
  facet normal 0.30902 -0.951056 0
    outer loop
      vertex -3.02918 4.54127 3
      vertex -4.37082 4.10534 0
      vertex -3.02918 4.54127 0
    endloop
  endfacet
  facet normal -0.809017 -0.587785 0
    outer loop
      vertex -2.2 3.4 0
      vertex -3.02918 4.54127 3
      vertex -3.02918 4.54127 0
    endloop
  endfacet
  facet normal -0.809017 -0.587785 0
    outer loop
      vertex -3.02918 4.54127 3
      vertex -2.2 3.4 0
      vertex -2.2 3.4 3
    endloop
  endfacet
  facet normal 1 -0 0
    outer loop
      vertex -4.37082 2.69466 3
      vertex -4.37082 4.10534 0
      vertex -4.37082 4.10534 3
    endloop
  endfacet
  facet normal 1 0 0
    outer loop
      vertex -4.37082 4.10534 0
      vertex -4.37082 2.69466 3
      vertex -4.37082 2.69466 0
    endloop
  endfacet
  facet normal -0.809017 0.587785 0
    outer loop
      vertex -3.02918 2.25873 0
      vertex -2.2 3.4 3
      vertex -2.2 3.4 0
    endloop
  endfacet
  facet normal -0.809017 0.587785 0
    outer loop
      vertex -2.2 3.4 3
      vertex -3.02918 2.25873 0
      vertex -3.02918 2.25873 3
    endloop
  endfacet
  facet normal 0.30902 0.951056 -0
    outer loop
      vertex 3.77082 -4.54127 0
      vertex 2.42918 -4.10534 3
      vertex 3.77082 -4.54127 3
    endloop
  endfacet
  facet normal 0.30902 0.951056 0
    outer loop
      vertex 2.42918 -4.10534 3
      vertex 3.77082 -4.54127 0
      vertex 2.42918 -4.10534 0
    endloop
  endfacet
  facet normal 0.30902 -0.951056 0
    outer loop
      vertex 2.42918 -2.69466 0
      vertex 3.77082 -2.25873 3
      vertex 2.42918 -2.69466 3
    endloop
  endfacet
  facet normal 0.30902 -0.951056 0
    outer loop
      vertex 3.77082 -2.25873 3
      vertex 2.42918 -2.69466 0
      vertex 3.77082 -2.25873 0
    endloop
  endfacet
  facet normal -0.809017 -0.587785 0
    outer loop
      vertex 4.6 -3.4 0
      vertex 3.77082 -2.25873 3
      vertex 3.77082 -2.25873 0
    endloop
  endfacet
  facet normal -0.809017 -0.587785 0
    outer loop
      vertex 3.77082 -2.25873 3
      vertex 4.6 -3.4 0
      vertex 4.6 -3.4 3
    endloop
  endfacet
  facet normal 1 -0 0
    outer loop
      vertex 2.42918 -4.10534 3
      vertex 2.42918 -2.69466 0
      vertex 2.42918 -2.69466 3
    endloop
  endfacet
  facet normal 1 0 0
    outer loop
      vertex 2.42918 -2.69466 0
      vertex 2.42918 -4.10534 3
      vertex 2.42918 -4.10534 0
    endloop
  endfacet
  facet normal -0.809017 0.587785 0
    outer loop
      vertex 3.77082 -4.54127 0
      vertex 4.6 -3.4 3
      vertex 4.6 -3.4 0
    endloop
  endfacet
  facet normal -0.809017 0.587785 0
    outer loop
      vertex 4.6 -3.4 3
      vertex 3.77082 -4.54127 0
      vertex 3.77082 -4.54127 3
    endloop
  endfacet
  facet normal 0.30902 0.951056 -0
    outer loop
      vertex -3.02918 -4.54127 0
      vertex -4.37082 -4.10534 3
      vertex -3.02918 -4.54127 3
    endloop
  endfacet
  facet normal 0.30902 0.951056 0
    outer loop
      vertex -4.37082 -4.10534 3
      vertex -3.02918 -4.54127 0
      vertex -4.37082 -4.10534 0
    endloop
  endfacet
  facet normal 0.30902 -0.951056 0
    outer loop
      vertex -4.37082 -2.69466 0
      vertex -3.02918 -2.25873 3
      vertex -4.37082 -2.69466 3
    endloop
  endfacet
  facet normal 0.30902 -0.951056 0
    outer loop
      vertex -3.02918 -2.25873 3
      vertex -4.37082 -2.69466 0
      vertex -3.02918 -2.25873 0
    endloop
  endfacet
  facet normal -0.809017 -0.587785 0
    outer loop
      vertex -2.2 -3.4 0
      vertex -3.02918 -2.25873 3
      vertex -3.02918 -2.25873 0
    endloop
  endfacet
  facet normal -0.809017 -0.587785 0
    outer loop
      vertex -3.02918 -2.25873 3
      vertex -2.2 -3.4 0
      vertex -2.2 -3.4 3
    endloop
  endfacet
  facet normal 1 -0 0
    outer loop
      vertex -4.37082 -4.10534 3
      vertex -4.37082 -2.69466 0
      vertex -4.37082 -2.69466 3
    endloop
  endfacet
  facet normal 1 0 0
    outer loop
      vertex -4.37082 -2.69466 0
      vertex -4.37082 -4.10534 3
      vertex -4.37082 -4.10534 0
    endloop
  endfacet
  facet normal -0.809017 0.587785 0
    outer loop
      vertex -3.02918 -4.54127 0
      vertex -2.2 -3.4 3
      vertex -2.2 -3.4 0
    endloop
  endfacet
  facet normal -0.809017 0.587785 0
    outer loop
      vertex -2.2 -3.4 3
      vertex -3.02918 -4.54127 0
      vertex -3.02918 -4.54127 3
    endloop
  endfacet
  facet normal -0.222525 -0.974927 2.36732e-06
    outer loop
      vertex 0.317493 1.77581 1.68273
      vertex 1.24698 1.56366 3
      vertex -0.445042 1.94986 3
    endloop
  endfacet
  facet normal -0.222518 -0.974928 -2.39016e-06
    outer loop
      vertex 1.24698 1.56366 3
      vertex 0.317493 1.77581 1.68273
      vertex 0.55908 1.72067 1.6877
    endloop
  endfacet
  facet normal -0.222554 -0.97492 -1.5391e-05
    outer loop
      vertex -0.445042 1.94986 3
      vertex 0.189711 1.80498 1.68011
      vertex 0.317493 1.77581 1.68273
    endloop
  endfacet
  facet normal -0.222523 -0.974927 2.92421e-07
    outer loop
      vertex -0.445042 1.94986 3
      vertex -0.199037 1.89371 1.56115
      vertex 0.189711 1.80498 1.68011
    endloop
  endfacet
  facet normal -0.222527 -0.974926 -5.16522e-07
    outer loop
      vertex -0.445042 1.94986 3
      vertex -0.411654 1.94224 1.43824
      vertex -0.199037 1.89371 1.56115
    endloop
  endfacet
  facet normal -0.222504 -0.974932 0
    outer loop
      vertex -0.411654 1.94224 1.43824
      vertex -0.445042 1.94986 3
      vertex -0.445042 1.94986 1.41894
    endloop
  endfacet
  facet normal -0.22253 -0.974926 4.05704e-06
    outer loop
      vertex 0.791978 1.66751 1.62581
      vertex 1.24698 1.56366 3
      vertex 0.55908 1.72067 1.6877
    endloop
  endfacet
  facet normal -0.22248 -0.974937 -1.32478e-05
    outer loop
      vertex 0.942857 1.63308 1.58571
      vertex 1.24698 1.56366 3
      vertex 0.791978 1.66751 1.62581
    endloop
  endfacet
  facet normal -0.222539 -0.974924 -4.06245e-10
    outer loop
      vertex 1.14048 1.58797 1.4789
      vertex 1.24698 1.56366 3
      vertex 0.942857 1.63308 1.58571
    endloop
  endfacet
  facet normal -0.222539 -0.974924 -0
    outer loop
      vertex 1.24698 1.56366 3
      vertex 1.14048 1.58797 1.4789
      vertex 1.24698 1.56366 1.42134
    endloop
  endfacet
  facet normal -0.900982 -0.433857 0
    outer loop
      vertex 1.30306 1.4472 1.50347
      vertex 1.24698 1.56366 3
      vertex 1.24698 1.56366 1.42134
    endloop
  endfacet
  facet normal -0.900954 -0.433915 5.49907e-06
    outer loop
      vertex 1.38049 1.28643 1.57056
      vertex 1.24698 1.56366 3
      vertex 1.30306 1.4472 1.50347
    endloop
  endfacet
  facet normal -0.90097 -0.433881 -2.5887e-06
    outer loop
      vertex 1.48161 1.07645 1.65817
      vertex 1.24698 1.56366 3
      vertex 1.38049 1.28643 1.57056
    endloop
  endfacet
  facet normal -0.900969 -0.433883 -1.54994e-06
    outer loop
      vertex 1.64689 0.733242 1.69634
      vertex 1.24698 1.56366 3
      vertex 1.48161 1.07645 1.65817
    endloop
  endfacet
  facet normal -0.900971 -0.433878 3.16245e-06
    outer loop
      vertex 2 0 3
      vertex 1.64689 0.733242 1.69634
      vertex 1.75199 0.514996 1.65275
    endloop
  endfacet
  facet normal -0.900958 -0.433907 -1.04378e-05
    outer loop
      vertex 2 0 3
      vertex 1.75199 0.514996 1.65275
      vertex 1.81429 0.385638 1.62691
    endloop
  endfacet
  facet normal -0.900971 -0.433879 -6.1269e-07
    outer loop
      vertex 2 0 3
      vertex 1.81429 0.385638 1.62691
      vertex 1.91343 0.179769 1.52357
    endloop
  endfacet
  facet normal -0.900973 -0.433875 -0
    outer loop
      vertex 2 0 3
      vertex 1.91343 0.179769 1.52357
      vertex 2 0 1.43333
    endloop
  endfacet
  facet normal -0.900969 -0.433884 -8.43405e-07
    outer loop
      vertex 1.64689 0.733242 1.69634
      vertex 2 0 3
      vertex 1.24698 1.56366 3
    endloop
  endfacet
  facet normal -0.900973 0.433875 0
    outer loop
      vertex 1.91343 -0.179769 1.52357
      vertex 2 0 3
      vertex 2 0 1.43333
    endloop
  endfacet
  facet normal -0.900971 0.433879 -6.1269e-07
    outer loop
      vertex 1.81429 -0.385638 1.62691
      vertex 2 0 3
      vertex 1.91343 -0.179769 1.52357
    endloop
  endfacet
  facet normal -0.900958 0.433907 -1.04378e-05
    outer loop
      vertex 1.75199 -0.514996 1.65275
      vertex 2 0 3
      vertex 1.81429 -0.385638 1.62691
    endloop
  endfacet
  facet normal -0.900971 0.433878 3.16245e-06
    outer loop
      vertex 1.64689 -0.733242 1.69634
      vertex 2 0 3
      vertex 1.75199 -0.514996 1.65275
    endloop
  endfacet
  facet normal -0.900969 0.433883 -1.54994e-06
    outer loop
      vertex 1.24698 -1.56366 3
      vertex 1.64689 -0.733242 1.69634
      vertex 1.48161 -1.07645 1.65817
    endloop
  endfacet
  facet normal -0.90097 0.433881 -2.5887e-06
    outer loop
      vertex 1.24698 -1.56366 3
      vertex 1.48161 -1.07645 1.65817
      vertex 1.38049 -1.28643 1.57056
    endloop
  endfacet
  facet normal -0.900954 0.433915 5.49907e-06
    outer loop
      vertex 1.24698 -1.56366 3
      vertex 1.38049 -1.28643 1.57056
      vertex 1.30306 -1.4472 1.50347
    endloop
  endfacet
  facet normal -0.900982 0.433857 0
    outer loop
      vertex 1.24698 -1.56366 3
      vertex 1.30306 -1.4472 1.50347
      vertex 1.24698 -1.56366 1.42134
    endloop
  endfacet
  facet normal -0.900969 0.433884 -8.43405e-07
    outer loop
      vertex 1.64689 -0.733242 1.69634
      vertex 1.24698 -1.56366 3
      vertex 2 0 3
    endloop
  endfacet
  facet normal 0.623491 0.781831 4.40287e-06
    outer loop
      vertex -0.445042 -1.94986 3
      vertex -1.20789 -1.3415 1.69311
      vertex -1.80194 -0.867767 3
    endloop
  endfacet
  facet normal 0.623488 0.781833 7.36315e-06
    outer loop
      vertex -0.445042 -1.94986 3
      vertex -1.01513 -1.49522 1.67828
      vertex -1.20789 -1.3415 1.69311
    endloop
  endfacet
  facet normal 0.623515 0.781812 -1.16286e-05
    outer loop
      vertex -0.445042 -1.94986 3
      vertex -0.911146 -1.57815 1.67028
      vertex -1.01513 -1.49522 1.67828
    endloop
  endfacet
  facet normal 0.623486 0.781834 4.69793e-06
    outer loop
      vertex -0.445042 -1.94986 3
      vertex -0.79257 -1.67271 1.61912
      vertex -0.911146 -1.57815 1.67028
    endloop
  endfacet
  facet normal 0.623484 0.781836 5.58303e-06
    outer loop
      vertex -0.445042 -1.94986 3
      vertex -0.594754 -1.83046 1.53378
      vertex -0.79257 -1.67271 1.61912
    endloop
  endfacet
  facet normal 0.623517 0.781809 0
    outer loop
      vertex -0.594754 -1.83046 1.53378
      vertex -0.445042 -1.94986 3
      vertex -0.445042 -1.94986 1.41894
    endloop
  endfacet
  facet normal 0.623464 0.781852 -1.55632e-05
    outer loop
      vertex -1.31461 -1.2564 1.66313
      vertex -1.80194 -0.867767 3
      vertex -1.20789 -1.3415 1.69311
    endloop
  endfacet
  facet normal 0.623484 0.781836 -3.44368e-06
    outer loop
      vertex -1.5123 -1.09875 1.6076
      vertex -1.80194 -0.867767 3
      vertex -1.31461 -1.2564 1.66313
    endloop
  endfacet
  facet normal 0.623494 0.781828 0
    outer loop
      vertex -1.80194 -0.867767 3
      vertex -1.5123 -1.09875 1.6076
      vertex -1.80194 -0.867767 1.42614
    endloop
  endfacet
  facet normal -0.222518 0.974928 -2.39016e-06
    outer loop
      vertex 0.317493 -1.77581 1.68273
      vertex 1.24698 -1.56366 3
      vertex 0.55908 -1.72067 1.6877
    endloop
  endfacet
  facet normal -0.22253 0.974926 4.05704e-06
    outer loop
      vertex 1.24698 -1.56366 3
      vertex 0.791978 -1.66751 1.62581
      vertex 0.55908 -1.72067 1.6877
    endloop
  endfacet
  facet normal -0.22248 0.974937 -1.32478e-05
    outer loop
      vertex 1.24698 -1.56366 3
      vertex 0.942857 -1.63308 1.58571
      vertex 0.791978 -1.66751 1.62581
    endloop
  endfacet
  facet normal -0.222539 0.974924 -4.06245e-10
    outer loop
      vertex 1.24698 -1.56366 3
      vertex 1.14048 -1.58797 1.4789
      vertex 0.942857 -1.63308 1.58571
    endloop
  endfacet
  facet normal -0.222539 0.974924 0
    outer loop
      vertex 1.14048 -1.58797 1.4789
      vertex 1.24698 -1.56366 3
      vertex 1.24698 -1.56366 1.42134
    endloop
  endfacet
  facet normal -0.222525 0.974927 2.36732e-06
    outer loop
      vertex 1.24698 -1.56366 3
      vertex 0.317493 -1.77581 1.68273
      vertex -0.445042 -1.94986 3
    endloop
  endfacet
  facet normal -0.222554 0.97492 -1.5391e-05
    outer loop
      vertex 0.189711 -1.80498 1.68011
      vertex -0.445042 -1.94986 3
      vertex 0.317493 -1.77581 1.68273
    endloop
  endfacet
  facet normal -0.222523 0.974927 2.92421e-07
    outer loop
      vertex -0.199037 -1.89371 1.56115
      vertex -0.445042 -1.94986 3
      vertex 0.189711 -1.80498 1.68011
    endloop
  endfacet
  facet normal -0.222527 0.974926 -5.16522e-07
    outer loop
      vertex -0.411654 -1.94224 1.43824
      vertex -0.445042 -1.94986 3
      vertex -0.199037 -1.89371 1.56115
    endloop
  endfacet
  facet normal -0.222504 0.974932 0
    outer loop
      vertex -0.445042 -1.94986 3
      vertex -0.411654 -1.94224 1.43824
      vertex -0.445042 -1.94986 1.41894
    endloop
  endfacet
  facet normal 1 0 0
    outer loop
      vertex -1.80194 0.867767 3
      vertex -1.80194 0.802274 1.47004
      vertex -1.80194 0.867767 1.42614
    endloop
  endfacet
  facet normal 1 0 0
    outer loop
      vertex -1.80194 0.867767 3
      vertex -1.80194 0.550624 1.5743
      vertex -1.80194 0.802274 1.47004
    endloop
  endfacet
  facet normal 1 0 0
    outer loop
      vertex -1.80194 0.867767 3
      vertex -1.80194 0.383013 1.64374
      vertex -1.80194 0.550624 1.5743
    endloop
  endfacet
  facet normal 1 0 0
    outer loop
      vertex -1.80194 0.867767 3
      vertex -1.80194 0.13129 1.67902
      vertex -1.80194 0.383013 1.64374
    endloop
  endfacet
  facet normal 1 0 0
    outer loop
      vertex -1.80194 0.867767 3
      vertex -1.80194 0 1.69742
      vertex -1.80194 0.13129 1.67902
    endloop
  endfacet
  facet normal 1 -0 0
    outer loop
      vertex -1.80194 -0.867767 3
      vertex -1.80194 0 1.69742
      vertex -1.80194 0.867767 3
    endloop
  endfacet
  facet normal 1 0 0
    outer loop
      vertex -1.80194 0 1.69742
      vertex -1.80194 -0.867767 3
      vertex -1.80194 -0.13129 1.67902
    endloop
  endfacet
  facet normal 1 0 0
    outer loop
      vertex -1.80194 -0.13129 1.67902
      vertex -1.80194 -0.867767 3
      vertex -1.80194 -0.383013 1.64374
    endloop
  endfacet
  facet normal 1 0 0
    outer loop
      vertex -1.80194 -0.383013 1.64374
      vertex -1.80194 -0.867767 3
      vertex -1.80194 -0.550624 1.5743
    endloop
  endfacet
  facet normal 1 0 0
    outer loop
      vertex -1.80194 -0.550624 1.5743
      vertex -1.80194 -0.867767 3
      vertex -1.80194 -0.802274 1.47004
    endloop
  endfacet
  facet normal 1 0 0
    outer loop
      vertex -1.80194 -0.802274 1.47004
      vertex -1.80194 -0.867767 3
      vertex -1.80194 -0.867767 1.42614
    endloop
  endfacet
  facet normal 0.623491 -0.781831 4.40287e-06
    outer loop
      vertex -1.80194 0.867767 3
      vertex -1.20789 1.3415 1.69311
      vertex -0.445042 1.94986 3
    endloop
  endfacet
  facet normal 0.623464 -0.781852 -1.55632e-05
    outer loop
      vertex -1.80194 0.867767 3
      vertex -1.31461 1.2564 1.66313
      vertex -1.20789 1.3415 1.69311
    endloop
  endfacet
  facet normal 0.623484 -0.781836 -3.44368e-06
    outer loop
      vertex -1.80194 0.867767 3
      vertex -1.5123 1.09875 1.6076
      vertex -1.31461 1.2564 1.66313
    endloop
  endfacet
  facet normal 0.623494 -0.781828 0
    outer loop
      vertex -1.5123 1.09875 1.6076
      vertex -1.80194 0.867767 3
      vertex -1.80194 0.867767 1.42614
    endloop
  endfacet
  facet normal 0.623488 -0.781833 7.36315e-06
    outer loop
      vertex -1.01513 1.49522 1.67828
      vertex -0.445042 1.94986 3
      vertex -1.20789 1.3415 1.69311
    endloop
  endfacet
  facet normal 0.623515 -0.781812 -1.16286e-05
    outer loop
      vertex -0.911146 1.57815 1.67028
      vertex -0.445042 1.94986 3
      vertex -1.01513 1.49522 1.67828
    endloop
  endfacet
  facet normal 0.623486 -0.781834 4.69793e-06
    outer loop
      vertex -0.79257 1.67271 1.61912
      vertex -0.445042 1.94986 3
      vertex -0.911146 1.57815 1.67028
    endloop
  endfacet
  facet normal 0.623484 -0.781836 5.58303e-06
    outer loop
      vertex -0.594754 1.83046 1.53378
      vertex -0.445042 1.94986 3
      vertex -0.79257 1.67271 1.61912
    endloop
  endfacet
  facet normal 0.623517 -0.781809 0
    outer loop
      vertex -0.445042 1.94986 3
      vertex -0.594754 1.83046 1.53378
      vertex -0.445042 1.94986 1.41894
    endloop
  endfacet
  facet normal -0.762343 0.24772 -0.597887
    outer loop
      vertex 2.93444 -0.623734 0.1
      vertex 1.75199 -0.514996 1.65275
      vertex 1.81429 -0.385638 1.62691
    endloop
  endfacet
  facet normal -0.762349 0.247693 -0.59789
    outer loop
      vertex 1.75199 -0.514996 1.65275
      vertex 2.93444 -0.623734 0.1
      vertex 2.74064 -1.22021 0.1
    endloop
  endfacet
  facet normal 0.743138 -0.669138 0
    outer loop
      vertex -2.42705 1.76336 0.1
      vertex -2.00739 2.22943 0
      vertex -2.00739 2.22943 0.1
    endloop
  endfacet
  facet normal 0.743138 -0.669138 0
    outer loop
      vertex -2.00739 2.22943 0
      vertex -2.42705 1.76336 0.1
      vertex -2.42705 1.76336 0
    endloop
  endfacet
  facet normal -0.471167 0.648481 -0.597892
    outer loop
      vertex 1.14048 -1.58797 1.4789
      vertex 1.24698 -1.56366 1.42134
      vertex 2.00739 -2.22943 0.1
    endloop
  endfacet
  facet normal -0.471132 0.648511 -0.597887
    outer loop
      vertex 1.30306 -1.4472 1.50347
      vertex 2.00739 -2.22943 0.1
      vertex 1.24698 -1.56366 1.42134
    endloop
  endfacet
  facet normal -0.95106 0.309007 0
    outer loop
      vertex 2.74064 -1.22021 0
      vertex 2.93444 -0.623734 0.1
      vertex 2.93444 -0.623734 0
    endloop
  endfacet
  facet normal -0.95106 0.309007 0
    outer loop
      vertex 2.93444 -0.623734 0.1
      vertex 2.74064 -1.22021 0
      vertex 2.74064 -1.22021 0.1
    endloop
  endfacet
  facet normal 0.207917 0.978146 -0
    outer loop
      vertex -0.313585 -2.98357 0
      vertex -0.927051 -2.85317 0.1
      vertex -0.313585 -2.98357 0.1
    endloop
  endfacet
  facet normal 0.207917 0.978146 0
    outer loop
      vertex -0.927051 -2.85317 0.1
      vertex -0.313585 -2.98357 0
      vertex -0.927051 -2.85317 0
    endloop
  endfacet
  facet normal 0.95106 0.309007 0
    outer loop
      vertex -2.74064 -1.22021 0.1
      vertex -2.93444 -0.623734 0
      vertex -2.93444 -0.623734 0.1
    endloop
  endfacet
  facet normal 0.95106 0.309007 0
    outer loop
      vertex -2.93444 -0.623734 0
      vertex -2.74064 -1.22021 0.1
      vertex -2.74064 -1.22021 0
    endloop
  endfacet
  facet normal -0.32601 -0.732283 -0.597895
    outer loop
      vertex 0.927051 2.85317 0.1
      vertex 0.942857 1.63308 1.58571
      vertex 0.791978 1.66751 1.62581
    endloop
  endfacet
  facet normal -0.326027 -0.732279 -0.597891
    outer loop
      vertex 0.942857 1.63308 1.58571
      vertex 0.927051 2.85317 0.1
      vertex 1.5 2.59808 0.1
    endloop
  endfacet
  facet normal -0.866024 0.500003 0
    outer loop
      vertex 2.42705 -1.76336 0
      vertex 2.74064 -1.22021 0.1
      vertex 2.74064 -1.22021 0
    endloop
  endfacet
  facet normal -0.866024 0.500003 0
    outer loop
      vertex 2.74064 -1.22021 0.1
      vertex 2.42705 -1.76336 0
      vertex 2.42705 -1.76336 0.1
    endloop
  endfacet
  facet normal 2.42907e-06 0.801578 -0.59789
    outer loop
      vertex 0.313585 -2.98357 0.1
      vertex -0.199037 -1.89371 1.56115
      vertex 0.189711 -1.80498 1.68011
    endloop
  endfacet
  facet normal 0 0.801578 -0.59789
    outer loop
      vertex -0.199037 -1.89371 1.56115
      vertex 0.313585 -2.98357 0.1
      vertex -0.313585 -2.98357 0.1
    endloop
  endfacet
  facet normal -0.694183 0.400795 -0.597891
    outer loop
      vertex 2.74064 -1.22021 0.1
      vertex 1.48161 -1.07645 1.65817
      vertex 1.64689 -0.733242 1.69634
    endloop
  endfacet
  facet normal -0.694185 0.400791 -0.597892
    outer loop
      vertex 1.48161 -1.07645 1.65817
      vertex 2.74064 -1.22021 0.1
      vertex 2.42705 -1.76336 0.1
    endloop
  endfacet
  facet normal 0.166667 0.78406 -0.59789
    outer loop
      vertex -0.313585 -2.98357 0.1
      vertex -0.411654 -1.94224 1.43824
      vertex -0.199037 -1.89371 1.56115
    endloop
  endfacet
  facet normal 0.166662 0.78406 -0.597891
    outer loop
      vertex -0.411654 -1.94224 1.43824
      vertex -0.313585 -2.98357 0.1
      vertex -0.927051 -2.85317 0.1
    endloop
  endfacet
  facet normal -0.79719 0.0837802 -0.597887
    outer loop
      vertex 1.91343 -0.179769 1.52357
      vertex 2.93444 -0.623734 0.1
      vertex 1.81429 -0.385638 1.62691
    endloop
  endfacet
  facet normal -0.471163 0.648484 -0.597891
    outer loop
      vertex 1.5 -2.59808 0.1
      vertex 1.14048 -1.58797 1.4789
      vertex 2.00739 -2.22943 0.1
    endloop
  endfacet
  facet normal -0.471168 0.648481 -0.597891
    outer loop
      vertex 1.14048 -1.58797 1.4789
      vertex 1.5 -2.59808 0.1
      vertex 0.942857 -1.63308 1.58571
    endloop
  endfacet
  facet normal 0.587795 -0.80901 0
    outer loop
      vertex -2.00739 2.22943 0
      vertex -1.5 2.59808 0.1
      vertex -2.00739 2.22943 0.1
    endloop
  endfacet
  facet normal 0.587795 -0.80901 0
    outer loop
      vertex -1.5 2.59808 0.1
      vertex -2.00739 2.22943 0
      vertex -1.5 2.59808 0
    endloop
  endfacet
  facet normal 0.16668 -0.784054 -0.597893
    outer loop
      vertex -0.594754 1.83046 1.53378
      vertex -0.927051 2.85317 0.1
      vertex -0.445042 1.94986 1.41894
    endloop
  endfacet
  facet normal 0.166671 -0.784057 -0.597892
    outer loop
      vertex -0.411654 1.94224 1.43824
      vertex -0.445042 1.94986 1.41894
      vertex -0.927051 2.85317 0.1
    endloop
  endfacet
  facet normal -0.166724 -0.78405 -0.597887
    outer loop
      vertex 0.313585 2.98357 0.1
      vertex 0.317493 1.77581 1.68273
      vertex 0.189711 1.80498 1.68011
    endloop
  endfacet
  facet normal -0.166662 -0.784059 -0.597893
    outer loop
      vertex 0.317493 1.77581 1.68273
      vertex 0.313585 2.98357 0.1
      vertex 0.927051 2.85317 0.1
    endloop
  endfacet
  facet normal -0.694185 -0.400791 -0.597892
    outer loop
      vertex 2.74064 1.22021 0.1
      vertex 1.48161 1.07645 1.65817
      vertex 2.42705 1.76336 0.1
    endloop
  endfacet
  facet normal -0.694183 -0.400795 -0.597891
    outer loop
      vertex 1.48161 1.07645 1.65817
      vertex 2.74064 1.22021 0.1
      vertex 1.64689 0.733242 1.69634
    endloop
  endfacet
  facet normal -0.595683 0.536367 -0.597889
    outer loop
      vertex 1.30306 -1.4472 1.50347
      vertex 2.42705 -1.76336 0.1
      vertex 2.00739 -2.22943 0.1
    endloop
  endfacet
  facet normal -0.595671 0.536387 -0.597884
    outer loop
      vertex 2.42705 -1.76336 0.1
      vertex 1.30306 -1.4472 1.50347
      vertex 1.38049 -1.28643 1.57056
    endloop
  endfacet
  facet normal -0.79719 -0.0837802 -0.597887
    outer loop
      vertex 2.93444 0.623734 0.1
      vertex 1.91343 0.179769 1.52357
      vertex 1.81429 0.385638 1.62691
    endloop
  endfacet
  facet normal 0 1 -0
    outer loop
      vertex 0.313585 -2.98357 0
      vertex -0.313585 -2.98357 0.1
      vertex 0.313585 -2.98357 0.1
    endloop
  endfacet
  facet normal 0 1 0
    outer loop
      vertex -0.313585 -2.98357 0.1
      vertex 0.313585 -2.98357 0
      vertex -0.313585 -2.98357 0
    endloop
  endfacet
  facet normal 0.471154 -0.648493 -0.597889
    outer loop
      vertex -1.01513 1.49522 1.67828
      vertex -1.20789 1.3415 1.69311
      vertex -2.00739 2.22943 0.1
    endloop
  endfacet
  facet normal -0.797186 0.0837913 -0.597891
    outer loop
      vertex 2.93444 -0.623734 0.1
      vertex 2 0 1.43333
      vertex 3 0 0.1
    endloop
  endfacet
  facet normal -0.797192 0.0837722 -0.597886
    outer loop
      vertex 2 0 1.43333
      vertex 2.93444 -0.623734 0.1
      vertex 1.91343 -0.179769 1.52357
    endloop
  endfacet
  facet normal -0.326027 0.732279 -0.597891
    outer loop
      vertex 0.927051 -2.85317 0.1
      vertex 0.942857 -1.63308 1.58571
      vertex 1.5 -2.59808 0.1
    endloop
  endfacet
  facet normal -0.32601 0.732283 -0.597895
    outer loop
      vertex 0.942857 -1.63308 1.58571
      vertex 0.927051 -2.85317 0.1
      vertex 0.791978 -1.66751 1.62581
    endloop
  endfacet
  facet normal -0.994521 -0.104533 0
    outer loop
      vertex 3 0 0
      vertex 2.93444 0.623734 0.1
      vertex 2.93444 0.623734 0
    endloop
  endfacet
  facet normal -0.994521 -0.104533 0
    outer loop
      vertex 2.93444 0.623734 0.1
      vertex 3 0 0
      vertex 3 0 0.1
    endloop
  endfacet
  facet normal -0.866024 -0.500003 0
    outer loop
      vertex 2.74064 1.22021 0
      vertex 2.42705 1.76336 0.1
      vertex 2.42705 1.76336 0
    endloop
  endfacet
  facet normal -0.866024 -0.500003 0
    outer loop
      vertex 2.42705 1.76336 0.1
      vertex 2.74064 1.22021 0
      vertex 2.74064 1.22021 0.1
    endloop
  endfacet
  facet normal 0.595674 -0.536376 -0.597891
    outer loop
      vertex -1.31461 1.2564 1.66313
      vertex -2.00739 2.22943 0.1
      vertex -1.20789 1.3415 1.69311
    endloop
  endfacet
  facet normal 0.595684 -0.536367 -0.597889
    outer loop
      vertex -2.00739 2.22943 0.1
      vertex -1.31461 1.2564 1.66313
      vertex -2.42705 1.76336 0.1
    endloop
  endfacet
  facet normal 0.471163 -0.648484 -0.597891
    outer loop
      vertex -1.5 2.59808 0.1
      vertex -1.01513 1.49522 1.67828
      vertex -2.00739 2.22943 0.1
    endloop
  endfacet
  facet normal 0.471177 -0.648475 -0.59789
    outer loop
      vertex -1.01513 1.49522 1.67828
      vertex -1.5 2.59808 0.1
      vertex -0.911146 1.57815 1.67028
    endloop
  endfacet
  facet normal -0.797186 -0.0837913 -0.597891
    outer loop
      vertex 2 0 1.43333
      vertex 2.93444 0.623734 0.1
      vertex 3 0 0.1
    endloop
  endfacet
  facet normal -0.797192 -0.0837722 -0.597886
    outer loop
      vertex 2.93444 0.623734 0.1
      vertex 2 0 1.43333
      vertex 1.91343 0.179769 1.52357
    endloop
  endfacet
  facet normal 0.587795 0.80901 -0
    outer loop
      vertex -1.5 -2.59808 0
      vertex -2.00739 -2.22943 0.1
      vertex -1.5 -2.59808 0.1
    endloop
  endfacet
  facet normal 0.587795 0.80901 0
    outer loop
      vertex -2.00739 -2.22943 0.1
      vertex -1.5 -2.59808 0
      vertex -2.00739 -2.22943 0
    endloop
  endfacet
  facet normal -0.406732 0.913547 0
    outer loop
      vertex 1.5 -2.59808 0
      vertex 0.927051 -2.85317 0.1
      vertex 1.5 -2.59808 0.1
    endloop
  endfacet
  facet normal -0.406732 0.913547 0
    outer loop
      vertex 0.927051 -2.85317 0.1
      vertex 1.5 -2.59808 0
      vertex 0.927051 -2.85317 0
    endloop
  endfacet
  facet normal 0.326025 0.732279 -0.597892
    outer loop
      vertex -0.79257 -1.67271 1.61912
      vertex -0.594754 -1.83046 1.53378
      vertex -0.927051 -2.85317 0.1
    endloop
  endfacet
  facet normal 0.471177 0.648475 -0.59789
    outer loop
      vertex -1.5 -2.59808 0.1
      vertex -1.01513 -1.49522 1.67828
      vertex -0.911146 -1.57815 1.67028
    endloop
  endfacet
  facet normal 0.471163 0.648484 -0.597891
    outer loop
      vertex -1.01513 -1.49522 1.67828
      vertex -1.5 -2.59808 0.1
      vertex -2.00739 -2.22943 0.1
    endloop
  endfacet
  facet normal 0.866024 0.500003 0
    outer loop
      vertex -2.42705 -1.76336 0.1
      vertex -2.74064 -1.22021 0
      vertex -2.74064 -1.22021 0.1
    endloop
  endfacet
  facet normal 0.866024 0.500003 0
    outer loop
      vertex -2.74064 -1.22021 0
      vertex -2.42705 -1.76336 0.1
      vertex -2.42705 -1.76336 0
    endloop
  endfacet
  facet normal -0.406732 -0.913547 0
    outer loop
      vertex 0.927051 2.85317 0
      vertex 1.5 2.59808 0.1
      vertex 0.927051 2.85317 0.1
    endloop
  endfacet
  facet normal -0.406732 -0.913547 -0
    outer loop
      vertex 1.5 2.59808 0.1
      vertex 0.927051 2.85317 0
      vertex 1.5 2.59808 0
    endloop
  endfacet
  facet normal -0.471168 -0.648481 -0.597891
    outer loop
      vertex 1.5 2.59808 0.1
      vertex 1.14048 1.58797 1.4789
      vertex 0.942857 1.63308 1.58571
    endloop
  endfacet
  facet normal -0.471163 -0.648484 -0.597891
    outer loop
      vertex 1.14048 1.58797 1.4789
      vertex 1.5 2.59808 0.1
      vertex 2.00739 2.22943 0.1
    endloop
  endfacet
  facet normal -0.994521 0.104533 0
    outer loop
      vertex 2.93444 -0.623734 0
      vertex 3 0 0.1
      vertex 3 0 0
    endloop
  endfacet
  facet normal -0.994521 0.104533 0
    outer loop
      vertex 3 0 0.1
      vertex 2.93444 -0.623734 0
      vertex 2.93444 -0.623734 0.1
    endloop
  endfacet
  facet normal -0.595708 -0.536334 -0.597894
    outer loop
      vertex 2.42705 1.76336 0.1
      vertex 1.48161 1.07645 1.65817
      vertex 1.38049 1.28643 1.57056
    endloop
  endfacet
  facet normal -0.587795 0.80901 0
    outer loop
      vertex 2.00739 -2.22943 0
      vertex 1.5 -2.59808 0.1
      vertex 2.00739 -2.22943 0.1
    endloop
  endfacet
  facet normal -0.587795 0.80901 0
    outer loop
      vertex 1.5 -2.59808 0.1
      vertex 2.00739 -2.22943 0
      vertex 1.5 -2.59808 0
    endloop
  endfacet
  facet normal -0.326029 -0.732277 -0.597892
    outer loop
      vertex 0.927051 2.85317 0.1
      vertex 0.791978 1.66751 1.62581
      vertex 0.55908 1.72067 1.6877
    endloop
  endfacet
  facet normal 0.326027 -0.732279 -0.597891
    outer loop
      vertex -0.927051 2.85317 0.1
      vertex -0.911146 1.57815 1.67028
      vertex -1.5 2.59808 0.1
    endloop
  endfacet
  facet normal 0.326006 -0.732285 -0.597895
    outer loop
      vertex -0.911146 1.57815 1.67028
      vertex -0.927051 2.85317 0.1
      vertex -0.79257 1.67271 1.61912
    endloop
  endfacet
  facet normal 0.994521 0.104533 0
    outer loop
      vertex -2.93444 -0.623734 0.1
      vertex -3 0 0
      vertex -3 0 0.1
    endloop
  endfacet
  facet normal 0.994521 0.104533 0
    outer loop
      vertex -3 0 0
      vertex -2.93444 -0.623734 0.1
      vertex -2.93444 -0.623734 0
    endloop
  endfacet
  facet normal -0.95106 -0.309007 0
    outer loop
      vertex 2.93444 0.623734 0
      vertex 2.74064 1.22021 0.1
      vertex 2.74064 1.22021 0
    endloop
  endfacet
  facet normal -0.95106 -0.309007 0
    outer loop
      vertex 2.74064 1.22021 0.1
      vertex 2.93444 0.623734 0
      vertex 2.93444 0.623734 0.1
    endloop
  endfacet
  facet normal -0.595671 -0.536387 -0.597884
    outer loop
      vertex 1.30306 1.4472 1.50347
      vertex 2.42705 1.76336 0.1
      vertex 1.38049 1.28643 1.57056
    endloop
  endfacet
  facet normal -0.595683 -0.536367 -0.597889
    outer loop
      vertex 2.42705 1.76336 0.1
      vertex 1.30306 1.4472 1.50347
      vertex 2.00739 2.22943 0.1
    endloop
  endfacet
  facet normal -0.595708 0.536334 -0.597894
    outer loop
      vertex 1.48161 -1.07645 1.65817
      vertex 2.42705 -1.76336 0.1
      vertex 1.38049 -1.28643 1.57056
    endloop
  endfacet
  facet normal -0.166655 0.784061 -0.597892
    outer loop
      vertex 0.55908 -1.72067 1.6877
      vertex 0.927051 -2.85317 0.1
      vertex 0.317493 -1.77581 1.68273
    endloop
  endfacet
  facet normal 0.595679 -0.536373 -0.597888
    outer loop
      vertex -1.31461 1.2564 1.66313
      vertex -1.5123 1.09875 1.6076
      vertex -2.42705 1.76336 0.1
    endloop
  endfacet
  facet normal -0.587795 -0.80901 0
    outer loop
      vertex 1.5 2.59808 0
      vertex 2.00739 2.22943 0.1
      vertex 1.5 2.59808 0.1
    endloop
  endfacet
  facet normal -0.587795 -0.80901 -0
    outer loop
      vertex 2.00739 2.22943 0.1
      vertex 1.5 2.59808 0
      vertex 2.00739 2.22943 0
    endloop
  endfacet
  facet normal -0.762349 -0.247693 -0.59789
    outer loop
      vertex 2.93444 0.623734 0.1
      vertex 1.75199 0.514996 1.65275
      vertex 2.74064 1.22021 0.1
    endloop
  endfacet
  facet normal -0.762343 -0.24772 -0.597887
    outer loop
      vertex 1.75199 0.514996 1.65275
      vertex 2.93444 0.623734 0.1
      vertex 1.81429 0.385638 1.62691
    endloop
  endfacet
  facet normal -0.762344 -0.247704 -0.597891
    outer loop
      vertex 2.74064 1.22021 0.1
      vertex 1.75199 0.514996 1.65275
      vertex 1.64689 0.733242 1.69634
    endloop
  endfacet
  facet normal -0.743138 0.669138 0
    outer loop
      vertex 2.00739 -2.22943 0
      vertex 2.42705 -1.76336 0.1
      vertex 2.42705 -1.76336 0
    endloop
  endfacet
  facet normal -0.743138 0.669138 0
    outer loop
      vertex 2.42705 -1.76336 0.1
      vertex 2.00739 -2.22943 0
      vertex 2.00739 -2.22943 0.1
    endloop
  endfacet
  facet normal -0.166662 0.784059 -0.597893
    outer loop
      vertex 0.313585 -2.98357 0.1
      vertex 0.317493 -1.77581 1.68273
      vertex 0.927051 -2.85317 0.1
    endloop
  endfacet
  facet normal -0.166724 0.78405 -0.597887
    outer loop
      vertex 0.317493 -1.77581 1.68273
      vertex 0.313585 -2.98357 0.1
      vertex 0.189711 -1.80498 1.68011
    endloop
  endfacet
  facet normal -0.207917 0.978146 0
    outer loop
      vertex 0.927051 -2.85317 0
      vertex 0.313585 -2.98357 0.1
      vertex 0.927051 -2.85317 0.1
    endloop
  endfacet
  facet normal -0.207917 0.978146 0
    outer loop
      vertex 0.313585 -2.98357 0.1
      vertex 0.927051 -2.85317 0
      vertex 0.313585 -2.98357 0
    endloop
  endfacet
  facet normal 0.326006 0.732285 -0.597895
    outer loop
      vertex -0.927051 -2.85317 0.1
      vertex -0.911146 -1.57815 1.67028
      vertex -0.79257 -1.67271 1.61912
    endloop
  endfacet
  facet normal 0.326027 0.732279 -0.597891
    outer loop
      vertex -0.911146 -1.57815 1.67028
      vertex -0.927051 -2.85317 0.1
      vertex -1.5 -2.59808 0.1
    endloop
  endfacet
  facet normal -0.326029 0.732277 -0.597892
    outer loop
      vertex 0.791978 -1.66751 1.62581
      vertex 0.927051 -2.85317 0.1
      vertex 0.55908 -1.72067 1.6877
    endloop
  endfacet
  facet normal -0 -0.801578 -0.59789
    outer loop
      vertex 0.313585 2.98357 0.1
      vertex -0.199037 1.89371 1.56115
      vertex -0.313585 2.98357 0.1
    endloop
  endfacet
  facet normal 2.42907e-06 -0.801578 -0.59789
    outer loop
      vertex -0.199037 1.89371 1.56115
      vertex 0.313585 2.98357 0.1
      vertex 0.189711 1.80498 1.68011
    endloop
  endfacet
  facet normal -0.743138 -0.669138 0
    outer loop
      vertex 2.42705 1.76336 0
      vertex 2.00739 2.22943 0.1
      vertex 2.00739 2.22943 0
    endloop
  endfacet
  facet normal -0.743138 -0.669138 0
    outer loop
      vertex 2.00739 2.22943 0.1
      vertex 2.42705 1.76336 0
      vertex 2.42705 1.76336 0.1
    endloop
  endfacet
  facet normal -0.471167 -0.648481 -0.597892
    outer loop
      vertex 1.14048 1.58797 1.4789
      vertex 2.00739 2.22943 0.1
      vertex 1.24698 1.56366 1.42134
    endloop
  endfacet
  facet normal -0.471132 -0.648511 -0.597887
    outer loop
      vertex 1.30306 1.4472 1.50347
      vertex 1.24698 1.56366 1.42134
      vertex 2.00739 2.22943 0.1
    endloop
  endfacet
  facet normal 0.994521 -0.104533 0
    outer loop
      vertex -3 0 0.1
      vertex -2.93444 0.623734 0
      vertex -2.93444 0.623734 0.1
    endloop
  endfacet
  facet normal 0.994521 -0.104533 0
    outer loop
      vertex -2.93444 0.623734 0
      vertex -3 0 0.1
      vertex -3 0 0
    endloop
  endfacet
  facet normal 0.326025 -0.732279 -0.597892
    outer loop
      vertex -0.594754 1.83046 1.53378
      vertex -0.79257 1.67271 1.61912
      vertex -0.927051 2.85317 0.1
    endloop
  endfacet
  facet normal 0.471154 0.648493 -0.597889
    outer loop
      vertex -1.20789 -1.3415 1.69311
      vertex -1.01513 -1.49522 1.67828
      vertex -2.00739 -2.22943 0.1
    endloop
  endfacet
  facet normal 0.797187 0.0837966 -0.597889
    outer loop
      vertex -1.80194 -0.13129 1.67902
      vertex -1.80194 -0.383013 1.64374
      vertex -2.93444 -0.623734 0.1
    endloop
  endfacet
  facet normal 0.406732 0.913547 -0
    outer loop
      vertex -0.927051 -2.85317 0
      vertex -1.5 -2.59808 0.1
      vertex -0.927051 -2.85317 0.1
    endloop
  endfacet
  facet normal 0.406732 0.913547 0
    outer loop
      vertex -1.5 -2.59808 0.1
      vertex -0.927051 -2.85317 0
      vertex -1.5 -2.59808 0
    endloop
  endfacet
  facet normal 0.207917 -0.978146 0
    outer loop
      vertex -0.927051 2.85317 0
      vertex -0.313585 2.98357 0.1
      vertex -0.927051 2.85317 0.1
    endloop
  endfacet
  facet normal 0.207917 -0.978146 0
    outer loop
      vertex -0.313585 2.98357 0.1
      vertex -0.927051 2.85317 0
      vertex -0.313585 2.98357 0
    endloop
  endfacet
  facet normal 0 -1 0
    outer loop
      vertex -0.313585 2.98357 0
      vertex 0.313585 2.98357 0.1
      vertex -0.313585 2.98357 0.1
    endloop
  endfacet
  facet normal 0 -1 -0
    outer loop
      vertex 0.313585 2.98357 0.1
      vertex -0.313585 2.98357 0
      vertex 0.313585 2.98357 0
    endloop
  endfacet
  facet normal 0.166671 0.784057 -0.597892
    outer loop
      vertex -0.411654 -1.94224 1.43824
      vertex -0.927051 -2.85317 0.1
      vertex -0.445042 -1.94986 1.41894
    endloop
  endfacet
  facet normal 0.16668 0.784054 -0.597893
    outer loop
      vertex -0.594754 -1.83046 1.53378
      vertex -0.445042 -1.94986 1.41894
      vertex -0.927051 -2.85317 0.1
    endloop
  endfacet
  facet normal -0.207917 -0.978146 0
    outer loop
      vertex 0.313585 2.98357 0
      vertex 0.927051 2.85317 0.1
      vertex 0.313585 2.98357 0.1
    endloop
  endfacet
  facet normal -0.207917 -0.978146 -0
    outer loop
      vertex 0.927051 2.85317 0.1
      vertex 0.313585 2.98357 0
      vertex 0.927051 2.85317 0
    endloop
  endfacet
  facet normal 0.166662 -0.78406 -0.597891
    outer loop
      vertex -0.313585 2.98357 0.1
      vertex -0.411654 1.94224 1.43824
      vertex -0.927051 2.85317 0.1
    endloop
  endfacet
  facet normal 0.166667 -0.78406 -0.59789
    outer loop
      vertex -0.411654 1.94224 1.43824
      vertex -0.313585 2.98357 0.1
      vertex -0.199037 1.89371 1.56115
    endloop
  endfacet
  facet normal 0.762347 0.247701 -0.597889
    outer loop
      vertex -1.80194 -0.550624 1.5743
      vertex -2.93444 -0.623734 0.1
      vertex -1.80194 -0.383013 1.64374
    endloop
  endfacet
  facet normal 0.762349 0.247693 -0.59789
    outer loop
      vertex -2.93444 -0.623734 0.1
      vertex -1.80194 -0.550624 1.5743
      vertex -2.74064 -1.22021 0.1
    endloop
  endfacet
  facet normal 0.762341 -0.24771 -0.597893
    outer loop
      vertex -1.80194 0.802274 1.47004
      vertex -1.80194 0.550624 1.5743
      vertex -2.74064 1.22021 0.1
    endloop
  endfacet
  facet normal 0.595679 0.536373 -0.597888
    outer loop
      vertex -1.5123 -1.09875 1.6076
      vertex -1.31461 -1.2564 1.66313
      vertex -2.42705 -1.76336 0.1
    endloop
  endfacet
  facet normal 0.95106 -0.309007 0
    outer loop
      vertex -2.93444 0.623734 0.1
      vertex -2.74064 1.22021 0
      vertex -2.74064 1.22021 0.1
    endloop
  endfacet
  facet normal 0.95106 -0.309007 0
    outer loop
      vertex -2.74064 1.22021 0
      vertex -2.93444 0.623734 0.1
      vertex -2.93444 0.623734 0
    endloop
  endfacet
  facet normal 0.866024 -0.500003 0
    outer loop
      vertex -2.74064 1.22021 0.1
      vertex -2.42705 1.76336 0
      vertex -2.42705 1.76336 0.1
    endloop
  endfacet
  facet normal 0.866024 -0.500003 0
    outer loop
      vertex -2.42705 1.76336 0
      vertex -2.74064 1.22021 0.1
      vertex -2.74064 1.22021 0
    endloop
  endfacet
  facet normal -0.762344 0.247704 -0.597891
    outer loop
      vertex 1.75199 -0.514996 1.65275
      vertex 2.74064 -1.22021 0.1
      vertex 1.64689 -0.733242 1.69634
    endloop
  endfacet
  facet normal 0.595674 0.536376 -0.597891
    outer loop
      vertex -2.00739 -2.22943 0.1
      vertex -1.31461 -1.2564 1.66313
      vertex -1.20789 -1.3415 1.69311
    endloop
  endfacet
  facet normal 0.595684 0.536367 -0.597889
    outer loop
      vertex -1.31461 -1.2564 1.66313
      vertex -2.00739 -2.22943 0.1
      vertex -2.42705 -1.76336 0.1
    endloop
  endfacet
  facet normal -0.166655 -0.784061 -0.597892
    outer loop
      vertex 0.927051 2.85317 0.1
      vertex 0.55908 1.72067 1.6877
      vertex 0.317493 1.77581 1.68273
    endloop
  endfacet
  facet normal 0.762341 0.24771 -0.597893
    outer loop
      vertex -1.80194 -0.550624 1.5743
      vertex -1.80194 -0.802274 1.47004
      vertex -2.74064 -1.22021 0.1
    endloop
  endfacet
  facet normal 0.406732 -0.913547 0
    outer loop
      vertex -1.5 2.59808 0
      vertex -0.927051 2.85317 0.1
      vertex -1.5 2.59808 0.1
    endloop
  endfacet
  facet normal 0.406732 -0.913547 0
    outer loop
      vertex -0.927051 2.85317 0.1
      vertex -1.5 2.59808 0
      vertex -0.927051 2.85317 0
    endloop
  endfacet
  facet normal 0.797187 -0.0837966 -0.597889
    outer loop
      vertex -1.80194 0.383013 1.64374
      vertex -1.80194 0.13129 1.67902
      vertex -2.93444 0.623734 0.1
    endloop
  endfacet
  facet normal 0.743138 0.669138 0
    outer loop
      vertex -2.00739 -2.22943 0.1
      vertex -2.42705 -1.76336 0
      vertex -2.42705 -1.76336 0.1
    endloop
  endfacet
  facet normal 0.743138 0.669138 0
    outer loop
      vertex -2.42705 -1.76336 0
      vertex -2.00739 -2.22943 0.1
      vertex -2.00739 -2.22943 0
    endloop
  endfacet
  facet normal 0.694187 -0.400792 -0.597889
    outer loop
      vertex -1.5123 1.09875 1.6076
      vertex -2.74064 1.22021 0.1
      vertex -2.42705 1.76336 0.1
    endloop
  endfacet
  facet normal 0.694193 -0.400776 -0.597893
    outer loop
      vertex -1.80194 0.867767 1.42614
      vertex -2.74064 1.22021 0.1
      vertex -1.5123 1.09875 1.6076
    endloop
  endfacet
  facet normal 0.694196 -0.400768 -0.597893
    outer loop
      vertex -2.74064 1.22021 0.1
      vertex -1.80194 0.867767 1.42614
      vertex -1.80194 0.802274 1.47004
    endloop
  endfacet
  facet normal 0.762349 -0.247693 -0.59789
    outer loop
      vertex -1.80194 0.550624 1.5743
      vertex -2.93444 0.623734 0.1
      vertex -2.74064 1.22021 0.1
    endloop
  endfacet
  facet normal 0.762347 -0.247701 -0.597889
    outer loop
      vertex -2.93444 0.623734 0.1
      vertex -1.80194 0.550624 1.5743
      vertex -1.80194 0.383013 1.64374
    endloop
  endfacet
  facet normal 0.797188 0.0837927 -0.597888
    outer loop
      vertex -1.80194 -0.13129 1.67902
      vertex -3 0 0.1
      vertex -1.80194 0 1.69742
    endloop
  endfacet
  facet normal 0.797188 0.0837915 -0.597888
    outer loop
      vertex -3 0 0.1
      vertex -1.80194 -0.13129 1.67902
      vertex -2.93444 -0.623734 0.1
    endloop
  endfacet
  facet normal 0.694196 0.400768 -0.597893
    outer loop
      vertex -1.80194 -0.867767 1.42614
      vertex -2.74064 -1.22021 0.1
      vertex -1.80194 -0.802274 1.47004
    endloop
  endfacet
  facet normal 0.694193 0.400776 -0.597893
    outer loop
      vertex -1.5123 -1.09875 1.6076
      vertex -2.74064 -1.22021 0.1
      vertex -1.80194 -0.867767 1.42614
    endloop
  endfacet
  facet normal 0.694187 0.400792 -0.597889
    outer loop
      vertex -2.74064 -1.22021 0.1
      vertex -1.5123 -1.09875 1.6076
      vertex -2.42705 -1.76336 0.1
    endloop
  endfacet
  facet normal 0.797188 -0.0837927 -0.597888
    outer loop
      vertex -3 0 0.1
      vertex -1.80194 0.13129 1.67902
      vertex -1.80194 0 1.69742
    endloop
  endfacet
  facet normal 0.797188 -0.0837915 -0.597888
    outer loop
      vertex -1.80194 0.13129 1.67902
      vertex -3 0 0.1
      vertex -2.93444 0.623734 0.1
    endloop
  endfacet
endsolid OpenSCAD_Model
