solid OpenSCAD_Model
  facet normal 1 -0 0
    outer loop
      vertex 35.225 0 14.225
      vertex 35.225 3 1.5
      vertex 35.225 3 14.225
    endloop
  endfacet
  facet normal 1 0 0
    outer loop
      vertex 35.225 3 1.5
      vertex 35.225 0 14.225
      vertex 35.225 0 1.5
    endloop
  endfacet
  facet normal -1 0 0
    outer loop
      vertex 9.775 0 1.5
      vertex 9.775 3 14.225
      vertex 9.775 3 1.5
    endloop
  endfacet
  facet normal -1 -0 0
    outer loop
      vertex 9.775 3 14.225
      vertex 9.775 0 1.5
      vertex 9.775 0 14.225
    endloop
  endfacet
  facet normal 0 1 -0
    outer loop
      vertex 24.9721 3 22.221
      vertex 23.8301 3 26.8803
      vertex 26.4322 3 26.3272
    endloop
  endfacet
  facet normal 0 1 0
    outer loop
      vertex 23.8301 3 26.8803
      vertex 22.5 3 22.6125
      vertex 21.1699 3 26.8803
    endloop
  endfacet
  facet normal 0 1 0
    outer loop
      vertex 24.9721 3 22.221
      vertex 26.4322 3 26.3272
      vertex 28.8625 3 25.2452
    endloop
  endfacet
  facet normal 0 1 0
    outer loop
      vertex 20.0279 3 22.221
      vertex 21.1699 3 26.8803
      vertex 22.5 3 22.6125
    endloop
  endfacet
  facet normal 0 1 0
    outer loop
      vertex 27.2023 3 21.0846
      vertex 28.8625 3 25.2452
      vertex 31.0147 3 23.6815
    endloop
  endfacet
  facet normal 0 1 0
    outer loop
      vertex 21.1699 3 26.8803
      vertex 20.0279 3 22.221
      vertex 18.5678 3 26.3272
    endloop
  endfacet
  facet normal 0 1 0
    outer loop
      vertex 18.5678 3 26.3272
      vertex 20.0279 3 22.221
      vertex 16.1375 3 25.2452
    endloop
  endfacet
  facet normal 0 1 0
    outer loop
      vertex 23.8301 3 26.8803
      vertex 24.9721 3 22.221
      vertex 22.5 3 22.6125
    endloop
  endfacet
  facet normal 0 1 0
    outer loop
      vertex 28.9721 3 19.3148
      vertex 31.0147 3 23.6815
      vertex 32.7947 3 21.7046
    endloop
  endfacet
  facet normal 0 1 0
    outer loop
      vertex 28.8625 3 25.2452
      vertex 27.2023 3 21.0846
      vertex 24.9721 3 22.221
    endloop
  endfacet
  facet normal 0 1 0
    outer loop
      vertex 28.9721 3 19.3148
      vertex 32.7947 3 21.7046
      vertex 34.1249 3 19.4007
    endloop
  endfacet
  facet normal 0 1 0
    outer loop
      vertex 31.0147 3 23.6815
      vertex 28.9721 3 19.3148
      vertex 27.2023 3 21.0846
    endloop
  endfacet
  facet normal 0 1 0
    outer loop
      vertex 34.1249 3 19.4007
      vertex 30.1085 3 17.0846
      vertex 28.9721 3 19.3148
    endloop
  endfacet
  facet normal 0 1 0
    outer loop
      vertex 34.9469 3 16.8707
      vertex 30.1085 3 17.0846
      vertex 34.1249 3 19.4007
    endloop
  endfacet
  facet normal 0 1 0
    outer loop
      vertex 34.9469 3 16.8707
      vertex 30.5 3 14.6125
      vertex 30.1085 3 17.0846
    endloop
  endfacet
  facet normal 0 1 0
    outer loop
      vertex 35.225 3 14.225
      vertex 30.5 3 14.6125
      vertex 34.9469 3 16.8707
    endloop
  endfacet
  facet normal 0 1 0
    outer loop
      vertex 35.225 3 14.225
      vertex 30.1085 3 12.1404
      vertex 30.5 3 14.6125
    endloop
  endfacet
  facet normal 0 1 0
    outer loop
      vertex 35.225 3 14.225
      vertex 28.9721 3 9.91022
      vertex 30.1085 3 12.1404
    endloop
  endfacet
  facet normal 0 1 -0
    outer loop
      vertex 35.225 3 1.5
      vertex 28.9721 3 9.91022
      vertex 35.225 3 14.225
    endloop
  endfacet
  facet normal 0 1 0
    outer loop
      vertex 24.9721 3 7.00405
      vertex 35.225 3 1.5
      vertex 22.5 3 6.6125
    endloop
  endfacet
  facet normal 0 1 0
    outer loop
      vertex 27.2023 3 8.14036
      vertex 35.225 3 1.5
      vertex 24.9721 3 7.00405
    endloop
  endfacet
  facet normal 0 1 0
    outer loop
      vertex 28.9721 3 9.91022
      vertex 35.225 3 1.5
      vertex 27.2023 3 8.14036
    endloop
  endfacet
  facet normal 0 1 -0
    outer loop
      vertex 17.7977 3 21.0846
      vertex 16.1375 3 25.2452
      vertex 20.0279 3 22.221
    endloop
  endfacet
  facet normal 0 1 0
    outer loop
      vertex 16.1375 3 25.2452
      vertex 17.7977 3 21.0846
      vertex 13.9853 3 23.6815
    endloop
  endfacet
  facet normal 0 1 -0
    outer loop
      vertex 16.0279 3 19.3148
      vertex 13.9853 3 23.6815
      vertex 17.7977 3 21.0846
    endloop
  endfacet
  facet normal 0 1 0
    outer loop
      vertex 13.9853 3 23.6815
      vertex 16.0279 3 19.3148
      vertex 12.2053 3 21.7046
    endloop
  endfacet
  facet normal 0 1 0
    outer loop
      vertex 12.2053 3 21.7046
      vertex 16.0279 3 19.3148
      vertex 10.8751 3 19.4007
    endloop
  endfacet
  facet normal 0 1 -0
    outer loop
      vertex 14.8915 3 17.0846
      vertex 10.8751 3 19.4007
      vertex 16.0279 3 19.3148
    endloop
  endfacet
  facet normal 0 1 0
    outer loop
      vertex 14.8915 3 17.0846
      vertex 10.0531 3 16.8707
      vertex 10.8751 3 19.4007
    endloop
  endfacet
  facet normal 0 1 -0
    outer loop
      vertex 14.5 3 14.6125
      vertex 10.0531 3 16.8707
      vertex 14.8915 3 17.0846
    endloop
  endfacet
  facet normal 0 1 0
    outer loop
      vertex 14.5 3 14.6125
      vertex 9.775 3 14.225
      vertex 10.0531 3 16.8707
    endloop
  endfacet
  facet normal 0 1 0
    outer loop
      vertex 14.8915 3 12.1404
      vertex 9.775 3 14.225
      vertex 14.5 3 14.6125
    endloop
  endfacet
  facet normal 0 1 0
    outer loop
      vertex 16.0279 3 9.91022
      vertex 9.775 3 14.225
      vertex 14.8915 3 12.1404
    endloop
  endfacet
  facet normal 0 1 0
    outer loop
      vertex 9.775 3 1.5
      vertex 16.0279 3 9.91022
      vertex 17.7977 3 8.14036
    endloop
  endfacet
  facet normal 0 1 0
    outer loop
      vertex 9.775 3 1.5
      vertex 22.5 3 6.6125
      vertex 35.225 3 1.5
    endloop
  endfacet
  facet normal 0 1 0
    outer loop
      vertex 16.0279 3 9.91022
      vertex 9.775 3 1.5
      vertex 9.775 3 14.225
    endloop
  endfacet
  facet normal 0 1 0
    outer loop
      vertex 20.0279 3 7.00405
      vertex 9.775 3 1.5
      vertex 17.7977 3 8.14036
    endloop
  endfacet
  facet normal 0 1 0
    outer loop
      vertex 22.5 3 6.6125
      vertex 9.775 3 1.5
      vertex 20.0279 3 7.00405
    endloop
  endfacet
  facet normal 0 -1 0
    outer loop
      vertex 5 0 0
      vertex 9.775 0 1.5
      vertex 5 0 1.5
    endloop
  endfacet
  facet normal 0 -1 -0
    outer loop
      vertex 9.775 0 1.5
      vertex 5 0 0
      vertex 35.225 0 1.5
    endloop
  endfacet
  facet normal 0 -1 0
    outer loop
      vertex 40 0 0
      vertex 35.225 0 1.5
      vertex 5 0 0
    endloop
  endfacet
  facet normal 0 -1 0
    outer loop
      vertex 35.225 0 1.5
      vertex 40 0 0
      vertex 40 0 1.5
    endloop
  endfacet
  facet normal 0 -1 0
    outer loop
      vertex 20.0279 0 22.221
      vertex 21.1699 0 26.8803
      vertex 18.5678 0 26.3272
    endloop
  endfacet
  facet normal 0 -1 0
    outer loop
      vertex 21.1699 0 26.8803
      vertex 22.5 0 22.6125
      vertex 23.8301 0 26.8803
    endloop
  endfacet
  facet normal 0 -1 0
    outer loop
      vertex 20.0279 0 22.221
      vertex 18.5678 0 26.3272
      vertex 16.1375 0 25.2452
    endloop
  endfacet
  facet normal 0 -1 0
    outer loop
      vertex 24.9721 0 22.221
      vertex 23.8301 0 26.8803
      vertex 22.5 0 22.6125
    endloop
  endfacet
  facet normal 0 -1 0
    outer loop
      vertex 17.7977 0 21.0846
      vertex 16.1375 0 25.2452
      vertex 13.9853 0 23.6815
    endloop
  endfacet
  facet normal 0 -1 0
    outer loop
      vertex 23.8301 0 26.8803
      vertex 24.9721 0 22.221
      vertex 26.4322 0 26.3272
    endloop
  endfacet
  facet normal 0 -1 -0
    outer loop
      vertex 26.4322 0 26.3272
      vertex 24.9721 0 22.221
      vertex 28.8625 0 25.2452
    endloop
  endfacet
  facet normal 0 -1 -0
    outer loop
      vertex 21.1699 0 26.8803
      vertex 20.0279 0 22.221
      vertex 22.5 0 22.6125
    endloop
  endfacet
  facet normal 0 -1 0
    outer loop
      vertex 16.0279 0 19.3148
      vertex 13.9853 0 23.6815
      vertex 12.2053 0 21.7046
    endloop
  endfacet
  facet normal 0 -1 0
    outer loop
      vertex 16.1375 0 25.2452
      vertex 17.7977 0 21.0846
      vertex 20.0279 0 22.221
    endloop
  endfacet
  facet normal 0 -1 0
    outer loop
      vertex 16.0279 0 19.3148
      vertex 12.2053 0 21.7046
      vertex 10.8751 0 19.4007
    endloop
  endfacet
  facet normal 0 -1 0
    outer loop
      vertex 13.9853 0 23.6815
      vertex 16.0279 0 19.3148
      vertex 17.7977 0 21.0846
    endloop
  endfacet
  facet normal 0 -1 0
    outer loop
      vertex 10.8751 0 19.4007
      vertex 14.8915 0 17.0846
      vertex 16.0279 0 19.3148
    endloop
  endfacet
  facet normal 0 -1 0
    outer loop
      vertex 10.0531 0 16.8707
      vertex 14.8915 0 17.0846
      vertex 10.8751 0 19.4007
    endloop
  endfacet
  facet normal 0 -1 0
    outer loop
      vertex 10.0531 0 16.8707
      vertex 14.5 0 14.6125
      vertex 14.8915 0 17.0846
    endloop
  endfacet
  facet normal 0 -1 0
    outer loop
      vertex 9.775 0 14.225
      vertex 14.5 0 14.6125
      vertex 10.0531 0 16.8707
    endloop
  endfacet
  facet normal 0 -1 0
    outer loop
      vertex 9.775 0 14.225
      vertex 14.8915 0 12.1404
      vertex 14.5 0 14.6125
    endloop
  endfacet
  facet normal 0 -1 0
    outer loop
      vertex 9.775 0 14.225
      vertex 16.0279 0 9.91022
      vertex 14.8915 0 12.1404
    endloop
  endfacet
  facet normal 0 -1 0
    outer loop
      vertex 9.775 0 1.5
      vertex 16.0279 0 9.91022
      vertex 9.775 0 14.225
    endloop
  endfacet
  facet normal 0 -1 -0
    outer loop
      vertex 20.0279 0 7.00405
      vertex 9.775 0 1.5
      vertex 22.5 0 6.6125
    endloop
  endfacet
  facet normal 0 -1 -0
    outer loop
      vertex 17.7977 0 8.14036
      vertex 9.775 0 1.5
      vertex 20.0279 0 7.00405
    endloop
  endfacet
  facet normal 0 -1 -0
    outer loop
      vertex 16.0279 0 9.91022
      vertex 9.775 0 1.5
      vertex 17.7977 0 8.14036
    endloop
  endfacet
  facet normal 0 -1 0
    outer loop
      vertex 27.2023 0 21.0846
      vertex 28.8625 0 25.2452
      vertex 24.9721 0 22.221
    endloop
  endfacet
  facet normal 0 -1 -0
    outer loop
      vertex 28.8625 0 25.2452
      vertex 27.2023 0 21.0846
      vertex 31.0147 0 23.6815
    endloop
  endfacet
  facet normal 0 -1 0
    outer loop
      vertex 28.9721 0 19.3148
      vertex 31.0147 0 23.6815
      vertex 27.2023 0 21.0846
    endloop
  endfacet
  facet normal 0 -1 -0
    outer loop
      vertex 31.0147 0 23.6815
      vertex 28.9721 0 19.3148
      vertex 32.7947 0 21.7046
    endloop
  endfacet
  facet normal 0 -1 -0
    outer loop
      vertex 32.7947 0 21.7046
      vertex 28.9721 0 19.3148
      vertex 34.1249 0 19.4007
    endloop
  endfacet
  facet normal 0 -1 0
    outer loop
      vertex 30.1085 0 17.0846
      vertex 34.1249 0 19.4007
      vertex 28.9721 0 19.3148
    endloop
  endfacet
  facet normal 0 -1 0
    outer loop
      vertex 30.1085 0 17.0846
      vertex 34.9469 0 16.8707
      vertex 34.1249 0 19.4007
    endloop
  endfacet
  facet normal 0 -1 0
    outer loop
      vertex 30.5 0 14.6125
      vertex 34.9469 0 16.8707
      vertex 30.1085 0 17.0846
    endloop
  endfacet
  facet normal 0 -1 0
    outer loop
      vertex 30.5 0 14.6125
      vertex 35.225 0 14.225
      vertex 34.9469 0 16.8707
    endloop
  endfacet
  facet normal 0 -1 0
    outer loop
      vertex 30.1085 0 12.1404
      vertex 35.225 0 14.225
      vertex 30.5 0 14.6125
    endloop
  endfacet
  facet normal 0 -1 0
    outer loop
      vertex 28.9721 0 9.91022
      vertex 35.225 0 14.225
      vertex 30.1085 0 12.1404
    endloop
  endfacet
  facet normal 0 -1 0
    outer loop
      vertex 35.225 0 1.5
      vertex 28.9721 0 9.91022
      vertex 27.2023 0 8.14036
    endloop
  endfacet
  facet normal 0 -1 0
    outer loop
      vertex 35.225 0 1.5
      vertex 22.5 0 6.6125
      vertex 9.775 0 1.5
    endloop
  endfacet
  facet normal 0 -1 0
    outer loop
      vertex 28.9721 0 9.91022
      vertex 35.225 0 1.5
      vertex 35.225 0 14.225
    endloop
  endfacet
  facet normal 0 -1 0
    outer loop
      vertex 24.9721 0 7.00405
      vertex 35.225 0 1.5
      vertex 27.2023 0 8.14036
    endloop
  endfacet
  facet normal 0 -1 0
    outer loop
      vertex 22.5 0 6.6125
      vertex 35.225 0 1.5
      vertex 24.9721 0 7.00405
    endloop
  endfacet
  facet normal 0.951062 -0 0.309001
    outer loop
      vertex 34.1249 0 19.4007
      vertex 34.9469 3 16.8707
      vertex 34.1249 3 19.4007
    endloop
  endfacet
  facet normal 0.951062 0 0.309001
    outer loop
      vertex 34.9469 3 16.8707
      vertex 34.1249 0 19.4007
      vertex 34.9469 0 16.8707
    endloop
  endfacet
  facet normal -0.994521 0 0.104538
    outer loop
      vertex 9.775 0 14.225
      vertex 10.0531 3 16.8707
      vertex 9.775 3 14.225
    endloop
  endfacet
  facet normal -0.994521 0 0.104538
    outer loop
      vertex 10.0531 3 16.8707
      vertex 9.775 0 14.225
      vertex 10.0531 0 16.8707
    endloop
  endfacet
  facet normal 0.994521 -0 0.104538
    outer loop
      vertex 34.9469 0 16.8707
      vertex 35.225 3 14.225
      vertex 34.9469 3 16.8707
    endloop
  endfacet
  facet normal 0.994521 0 0.104538
    outer loop
      vertex 35.225 3 14.225
      vertex 34.9469 0 16.8707
      vertex 35.225 0 14.225
    endloop
  endfacet
  facet normal 0.207914 0 0.978147
    outer loop
      vertex 23.8301 3 26.8803
      vertex 26.4322 0 26.3272
      vertex 26.4322 3 26.3272
    endloop
  endfacet
  facet normal 0.207914 0 0.978147
    outer loop
      vertex 26.4322 0 26.3272
      vertex 23.8301 3 26.8803
      vertex 23.8301 0 26.8803
    endloop
  endfacet
  facet normal -0.743146 0 0.669129
    outer loop
      vertex 12.2053 0 21.7046
      vertex 13.9853 3 23.6815
      vertex 12.2053 3 21.7046
    endloop
  endfacet
  facet normal -0.743146 0 0.669129
    outer loop
      vertex 13.9853 3 23.6815
      vertex 12.2053 0 21.7046
      vertex 13.9853 0 23.6815
    endloop
  endfacet
  facet normal 0.406724 0 0.913551
    outer loop
      vertex 26.4322 3 26.3272
      vertex 28.8625 0 25.2452
      vertex 28.8625 3 25.2452
    endloop
  endfacet
  facet normal 0.406724 0 0.913551
    outer loop
      vertex 28.8625 0 25.2452
      vertex 26.4322 3 26.3272
      vertex 26.4322 0 26.3272
    endloop
  endfacet
  facet normal -0 0 1
    outer loop
      vertex 21.1699 3 26.8803
      vertex 23.8301 0 26.8803
      vertex 23.8301 3 26.8803
    endloop
  endfacet
  facet normal 0 0 1
    outer loop
      vertex 23.8301 0 26.8803
      vertex 21.1699 3 26.8803
      vertex 21.1699 0 26.8803
    endloop
  endfacet
  facet normal -0.207914 0 0.978147
    outer loop
      vertex 18.5678 3 26.3272
      vertex 21.1699 0 26.8803
      vertex 21.1699 3 26.8803
    endloop
  endfacet
  facet normal -0.207914 0 0.978147
    outer loop
      vertex 21.1699 0 26.8803
      vertex 18.5678 3 26.3272
      vertex 18.5678 0 26.3272
    endloop
  endfacet
  facet normal 0.743146 -0 0.669129
    outer loop
      vertex 31.0147 0 23.6815
      vertex 32.7947 3 21.7046
      vertex 31.0147 3 23.6815
    endloop
  endfacet
  facet normal 0.743146 0 0.669129
    outer loop
      vertex 32.7947 3 21.7046
      vertex 31.0147 0 23.6815
      vertex 32.7947 0 21.7046
    endloop
  endfacet
  facet normal 0.866018 -0 0.500012
    outer loop
      vertex 32.7947 0 21.7046
      vertex 34.1249 3 19.4007
      vertex 32.7947 3 21.7046
    endloop
  endfacet
  facet normal 0.866018 0 0.500012
    outer loop
      vertex 34.1249 3 19.4007
      vertex 32.7947 0 21.7046
      vertex 34.1249 0 19.4007
    endloop
  endfacet
  facet normal -0.587794 0 0.809011
    outer loop
      vertex 13.9853 3 23.6815
      vertex 16.1375 0 25.2452
      vertex 16.1375 3 25.2452
    endloop
  endfacet
  facet normal -0.587794 0 0.809011
    outer loop
      vertex 16.1375 0 25.2452
      vertex 13.9853 3 23.6815
      vertex 13.9853 0 23.6815
    endloop
  endfacet
  facet normal 0.587794 0 0.809011
    outer loop
      vertex 28.8625 3 25.2452
      vertex 31.0147 0 23.6815
      vertex 31.0147 3 23.6815
    endloop
  endfacet
  facet normal 0.587794 0 0.809011
    outer loop
      vertex 31.0147 0 23.6815
      vertex 28.8625 3 25.2452
      vertex 28.8625 0 25.2452
    endloop
  endfacet
  facet normal -0.406724 0 0.913551
    outer loop
      vertex 16.1375 3 25.2452
      vertex 18.5678 0 26.3272
      vertex 18.5678 3 26.3272
    endloop
  endfacet
  facet normal -0.406724 0 0.913551
    outer loop
      vertex 18.5678 0 26.3272
      vertex 16.1375 3 25.2452
      vertex 16.1375 0 25.2452
    endloop
  endfacet
  facet normal -0.951062 0 0.309001
    outer loop
      vertex 10.0531 0 16.8707
      vertex 10.8751 3 19.4007
      vertex 10.0531 3 16.8707
    endloop
  endfacet
  facet normal -0.951062 0 0.309001
    outer loop
      vertex 10.8751 3 19.4007
      vertex 10.0531 0 16.8707
      vertex 10.8751 0 19.4007
    endloop
  endfacet
  facet normal -0.866018 0 0.500012
    outer loop
      vertex 10.8751 0 19.4007
      vertex 12.2053 3 21.7046
      vertex 10.8751 3 19.4007
    endloop
  endfacet
  facet normal -0.866018 0 0.500012
    outer loop
      vertex 12.2053 3 21.7046
      vertex 10.8751 0 19.4007
      vertex 12.2053 0 21.7046
    endloop
  endfacet
  facet normal -0.987691 0 -0.156418
    outer loop
      vertex 30.5 0 14.6125
      vertex 30.1085 3 17.0846
      vertex 30.5 3 14.6125
    endloop
  endfacet
  facet normal -0.987691 -0 -0.156418
    outer loop
      vertex 30.1085 3 17.0846
      vertex 30.5 0 14.6125
      vertex 30.1085 0 17.0846
    endloop
  endfacet
  facet normal -0.890997 0 -0.454008
    outer loop
      vertex 30.1085 0 17.0846
      vertex 28.9721 3 19.3148
      vertex 30.1085 3 17.0846
    endloop
  endfacet
  facet normal -0.890997 -0 -0.454008
    outer loop
      vertex 28.9721 3 19.3148
      vertex 30.1085 0 17.0846
      vertex 28.9721 0 19.3148
    endloop
  endfacet
  facet normal 0.454008 0 -0.890997
    outer loop
      vertex 17.7977 0 21.0846
      vertex 20.0279 3 22.221
      vertex 20.0279 0 22.221
    endloop
  endfacet
  facet normal 0.454008 0 -0.890997
    outer loop
      vertex 20.0279 3 22.221
      vertex 17.7977 0 21.0846
      vertex 17.7977 3 21.0846
    endloop
  endfacet
  facet normal -0.45398 0 0.891012
    outer loop
      vertex 24.9721 3 7.00405
      vertex 27.2023 0 8.14036
      vertex 27.2023 3 8.14036
    endloop
  endfacet
  facet normal -0.45398 0 0.891012
    outer loop
      vertex 27.2023 0 8.14036
      vertex 24.9721 3 7.00405
      vertex 24.9721 0 7.00405
    endloop
  endfacet
  facet normal -0.987691 0 0.156418
    outer loop
      vertex 30.1085 0 12.1404
      vertex 30.5 3 14.6125
      vertex 30.1085 3 12.1404
    endloop
  endfacet
  facet normal -0.987691 0 0.156418
    outer loop
      vertex 30.5 3 14.6125
      vertex 30.1085 0 12.1404
      vertex 30.5 0 14.6125
    endloop
  endfacet
  facet normal 0.156438 0 0.987688
    outer loop
      vertex 20.0279 3 7.00405
      vertex 22.5 0 6.6125
      vertex 22.5 3 6.6125
    endloop
  endfacet
  facet normal 0.156438 0 0.987688
    outer loop
      vertex 22.5 0 6.6125
      vertex 20.0279 3 7.00405
      vertex 20.0279 0 7.00405
    endloop
  endfacet
  facet normal 0.890997 0 -0.454008
    outer loop
      vertex 16.0279 0 19.3148
      vertex 14.8915 3 17.0846
      vertex 16.0279 3 19.3148
    endloop
  endfacet
  facet normal 0.890997 0 -0.454008
    outer loop
      vertex 14.8915 3 17.0846
      vertex 16.0279 0 19.3148
      vertex 14.8915 0 17.0846
    endloop
  endfacet
  facet normal 0.890996 -0 0.454012
    outer loop
      vertex 14.8915 0 12.1404
      vertex 16.0279 3 9.91022
      vertex 14.8915 3 12.1404
    endloop
  endfacet
  facet normal 0.890996 0 0.454012
    outer loop
      vertex 16.0279 3 9.91022
      vertex 14.8915 0 12.1404
      vertex 16.0279 0 9.91022
    endloop
  endfacet
  facet normal 0.987691 -0 0.156418
    outer loop
      vertex 14.5 0 14.6125
      vertex 14.8915 3 12.1404
      vertex 14.5 3 14.6125
    endloop
  endfacet
  facet normal 0.987691 0 0.156418
    outer loop
      vertex 14.8915 3 12.1404
      vertex 14.5 0 14.6125
      vertex 14.8915 0 12.1404
    endloop
  endfacet
  facet normal -0.707107 0 -0.707107
    outer loop
      vertex 28.9721 0 19.3148
      vertex 27.2023 3 21.0846
      vertex 28.9721 3 19.3148
    endloop
  endfacet
  facet normal -0.707107 -0 -0.707107
    outer loop
      vertex 27.2023 3 21.0846
      vertex 28.9721 0 19.3148
      vertex 27.2023 0 21.0846
    endloop
  endfacet
  facet normal -0.890996 0 0.454012
    outer loop
      vertex 28.9721 0 9.91022
      vertex 30.1085 3 12.1404
      vertex 28.9721 3 9.91022
    endloop
  endfacet
  facet normal -0.890996 0 0.454012
    outer loop
      vertex 30.1085 3 12.1404
      vertex 28.9721 0 9.91022
      vertex 30.1085 0 12.1404
    endloop
  endfacet
  facet normal -0.156438 0 0.987688
    outer loop
      vertex 22.5 3 6.6125
      vertex 24.9721 0 7.00405
      vertex 24.9721 3 7.00405
    endloop
  endfacet
  facet normal -0.156438 0 0.987688
    outer loop
      vertex 24.9721 0 7.00405
      vertex 22.5 3 6.6125
      vertex 22.5 0 6.6125
    endloop
  endfacet
  facet normal 0.45398 0 0.891012
    outer loop
      vertex 17.7977 3 8.14036
      vertex 20.0279 0 7.00405
      vertex 20.0279 3 7.00405
    endloop
  endfacet
  facet normal 0.45398 0 0.891012
    outer loop
      vertex 20.0279 0 7.00405
      vertex 17.7977 3 8.14036
      vertex 17.7977 0 8.14036
    endloop
  endfacet
  facet normal -0.156418 0 -0.987691
    outer loop
      vertex 22.5 0 22.6125
      vertex 24.9721 3 22.221
      vertex 24.9721 0 22.221
    endloop
  endfacet
  facet normal -0.156418 0 -0.987691
    outer loop
      vertex 24.9721 3 22.221
      vertex 22.5 0 22.6125
      vertex 22.5 3 22.6125
    endloop
  endfacet
  facet normal -0.454008 0 -0.890997
    outer loop
      vertex 24.9721 0 22.221
      vertex 27.2023 3 21.0846
      vertex 27.2023 0 21.0846
    endloop
  endfacet
  facet normal -0.454008 0 -0.890997
    outer loop
      vertex 27.2023 3 21.0846
      vertex 24.9721 0 22.221
      vertex 24.9721 3 22.221
    endloop
  endfacet
  facet normal -0.707119 0 0.707095
    outer loop
      vertex 27.2023 0 8.14036
      vertex 28.9721 3 9.91022
      vertex 27.2023 3 8.14036
    endloop
  endfacet
  facet normal -0.707119 0 0.707095
    outer loop
      vertex 28.9721 3 9.91022
      vertex 27.2023 0 8.14036
      vertex 28.9721 0 9.91022
    endloop
  endfacet
  facet normal 0.156418 0 -0.987691
    outer loop
      vertex 20.0279 0 22.221
      vertex 22.5 3 22.6125
      vertex 22.5 0 22.6125
    endloop
  endfacet
  facet normal 0.156418 0 -0.987691
    outer loop
      vertex 22.5 3 22.6125
      vertex 20.0279 0 22.221
      vertex 20.0279 3 22.221
    endloop
  endfacet
  facet normal 0.987691 0 -0.156418
    outer loop
      vertex 14.8915 0 17.0846
      vertex 14.5 3 14.6125
      vertex 14.8915 3 17.0846
    endloop
  endfacet
  facet normal 0.987691 0 -0.156418
    outer loop
      vertex 14.5 3 14.6125
      vertex 14.8915 0 17.0846
      vertex 14.5 0 14.6125
    endloop
  endfacet
  facet normal 0.707107 0 -0.707107
    outer loop
      vertex 17.7977 0 21.0846
      vertex 16.0279 3 19.3148
      vertex 17.7977 3 21.0846
    endloop
  endfacet
  facet normal 0.707107 0 -0.707107
    outer loop
      vertex 16.0279 3 19.3148
      vertex 17.7977 0 21.0846
      vertex 16.0279 0 19.3148
    endloop
  endfacet
  facet normal 0.707119 -0 0.707095
    outer loop
      vertex 16.0279 0 9.91022
      vertex 17.7977 3 8.14036
      vertex 16.0279 3 9.91022
    endloop
  endfacet
  facet normal 0.707119 0 0.707095
    outer loop
      vertex 17.7977 3 8.14036
      vertex 16.0279 0 9.91022
      vertex 17.7977 0 8.14036
    endloop
  endfacet
  facet normal 0.980786 -0.195089 0
    outer loop
      vertex 44.6194 3.08658 1.5
      vertex 45 5 0
      vertex 45 5 1.5
    endloop
  endfacet
  facet normal 0.980786 -0.195089 0
    outer loop
      vertex 45 5 0
      vertex 44.6194 3.08658 1.5
      vertex 44.6194 3.08658 0
    endloop
  endfacet
  facet normal -0.195089 0.980786 0
    outer loop
      vertex 5 10 0
      vertex 3.08658 9.6194 1.5
      vertex 5 10 1.5
    endloop
  endfacet
  facet normal -0.195089 0.980786 0
    outer loop
      vertex 3.08658 9.6194 1.5
      vertex 5 10 0
      vertex 3.08658 9.6194 0
    endloop
  endfacet
  facet normal -0.555574 0.831467 0
    outer loop
      vertex 3.08658 9.6194 0
      vertex 1.46447 8.53553 1.5
      vertex 3.08658 9.6194 1.5
    endloop
  endfacet
  facet normal -0.555574 0.831467 0
    outer loop
      vertex 1.46447 8.53553 1.5
      vertex 3.08658 9.6194 0
      vertex 1.46447 8.53553 0
    endloop
  endfacet
  facet normal 0 1 -0
    outer loop
      vertex 40 10 0
      vertex 5 10 1.5
      vertex 40 10 1.5
    endloop
  endfacet
  facet normal 0 1 0
    outer loop
      vertex 5 10 1.5
      vertex 40 10 0
      vertex 5 10 0
    endloop
  endfacet
  facet normal -0.980785 -0.19509 0
    outer loop
      vertex 0.380602 3.08658 0
      vertex 0 5 1.5
      vertex 0 5 0
    endloop
  endfacet
  facet normal -0.980785 -0.19509 0
    outer loop
      vertex 0 5 1.5
      vertex 0.380602 3.08658 0
      vertex 0.380602 3.08658 1.5
    endloop
  endfacet
  facet normal -0.555573 -0.831468 0
    outer loop
      vertex 1.46447 1.46447 0
      vertex 3.08658 0.380602 1.5
      vertex 1.46447 1.46447 1.5
    endloop
  endfacet
  facet normal -0.555573 -0.831468 -0
    outer loop
      vertex 3.08658 0.380602 1.5
      vertex 1.46447 1.46447 0
      vertex 3.08658 0.380602 0
    endloop
  endfacet
  facet normal 0.195091 0.980785 -0
    outer loop
      vertex 41.9134 9.6194 0
      vertex 40 10 1.5
      vertex 41.9134 9.6194 1.5
    endloop
  endfacet
  facet normal 0.195091 0.980785 0
    outer loop
      vertex 40 10 1.5
      vertex 41.9134 9.6194 0
      vertex 40 10 0
    endloop
  endfacet
  facet normal 0 0 -1
    outer loop
      vertex 41.5217 4.50557 0
      vertex 45 5 0
      vertex 44.6194 3.08658 0
    endloop
  endfacet
  facet normal 0 0 -1
    outer loop
      vertex 41.2944 4.05954 0
      vertex 44.6194 3.08658 0
      vertex 43.5355 1.46447 0
    endloop
  endfacet
  facet normal -0 0 -1
    outer loop
      vertex 45 5 0
      vertex 41.5217 4.50557 0
      vertex 41.6 5 0
    endloop
  endfacet
  facet normal 0 0 -1
    outer loop
      vertex 40.9405 3.70557 0
      vertex 43.5355 1.46447 0
      vertex 41.9134 0.380602 0
    endloop
  endfacet
  facet normal 0 0 -1
    outer loop
      vertex 41.5217 5.49443 0
      vertex 45 5 0
      vertex 41.6 5 0
    endloop
  endfacet
  facet normal 0 0 -1
    outer loop
      vertex 41.2944 5.94046 0
      vertex 44.6194 6.91342 0
      vertex 41.5217 5.49443 0
    endloop
  endfacet
  facet normal 0 0 -1
    outer loop
      vertex 45 5 0
      vertex 41.5217 5.49443 0
      vertex 44.6194 6.91342 0
    endloop
  endfacet
  facet normal 0 0 -1
    outer loop
      vertex 44.6194 3.08658 0
      vertex 41.2944 4.05954 0
      vertex 41.5217 4.50557 0
    endloop
  endfacet
  facet normal 0 0 -1
    outer loop
      vertex 43.5355 1.46447 0
      vertex 40.9405 3.70557 0
      vertex 41.2944 4.05954 0
    endloop
  endfacet
  facet normal 0 0 -1
    outer loop
      vertex 41.9134 0.380602 0
      vertex 40.4944 3.47831 0
      vertex 40.9405 3.70557 0
    endloop
  endfacet
  facet normal 0 0 -1
    outer loop
      vertex 40 0 0
      vertex 40.4944 3.47831 0
      vertex 41.9134 0.380602 0
    endloop
  endfacet
  facet normal 0 0 -1
    outer loop
      vertex 40 0 0
      vertex 40 3.4 0
      vertex 40.4944 3.47831 0
    endloop
  endfacet
  facet normal 0 0 -1
    outer loop
      vertex 40 0 0
      vertex 39.5056 3.47831 0
      vertex 40 3.4 0
    endloop
  endfacet
  facet normal 0 0 -1
    outer loop
      vertex 40 0 0
      vertex 39.0595 3.70557 0
      vertex 39.5056 3.47831 0
    endloop
  endfacet
  facet normal 0 0 -1
    outer loop
      vertex 40 0 0
      vertex 38.7056 4.05954 0
      vertex 39.0595 3.70557 0
    endloop
  endfacet
  facet normal 0 0 -1
    outer loop
      vertex 40 0 0
      vertex 38.4783 4.50557 0
      vertex 38.7056 4.05954 0
    endloop
  endfacet
  facet normal 0 0 -1
    outer loop
      vertex 38.4783 4.50557 0
      vertex 6.6 5 0
      vertex 38.4 5 0
    endloop
  endfacet
  facet normal 0 0 -1
    outer loop
      vertex 6.52169 4.50557 0
      vertex 38.4783 4.50557 0
      vertex 40 0 0
    endloop
  endfacet
  facet normal 0 0 -1
    outer loop
      vertex 38.4783 4.50557 0
      vertex 6.52169 4.50557 0
      vertex 6.6 5 0
    endloop
  endfacet
  facet normal 0 0 -1
    outer loop
      vertex 5 0 0
      vertex 6.52169 4.50557 0
      vertex 40 0 0
    endloop
  endfacet
  facet normal 0 0 -1
    outer loop
      vertex 6.52169 4.50557 0
      vertex 5 0 0
      vertex 6.29443 4.05954 0
    endloop
  endfacet
  facet normal 0 0 -1
    outer loop
      vertex 6.29443 4.05954 0
      vertex 5 0 0
      vertex 5.94046 3.70557 0
    endloop
  endfacet
  facet normal 0 0 -1
    outer loop
      vertex 5.94046 3.70557 0
      vertex 5 0 0
      vertex 5.49443 3.47831 0
    endloop
  endfacet
  facet normal 0 0 -1
    outer loop
      vertex 5 0 0
      vertex 5 3.4 0
      vertex 5.49443 3.47831 0
    endloop
  endfacet
  facet normal 0 0 -1
    outer loop
      vertex 5 0 0
      vertex 4.50557 3.47831 0
      vertex 5 3.4 0
    endloop
  endfacet
  facet normal 0 0 -1
    outer loop
      vertex 3.08658 0.380602 0
      vertex 4.50557 3.47831 0
      vertex 5 0 0
    endloop
  endfacet
  facet normal -0 0 -1
    outer loop
      vertex 4.50557 3.47831 0
      vertex 3.08658 0.380602 0
      vertex 4.05954 3.70557 0
    endloop
  endfacet
  facet normal 0 0 -1
    outer loop
      vertex 1.46447 1.46447 0
      vertex 4.05954 3.70557 0
      vertex 3.08658 0.380602 0
    endloop
  endfacet
  facet normal 0 0 -1
    outer loop
      vertex 0.380602 3.08658 0
      vertex 3.70557 4.05954 0
      vertex 1.46447 1.46447 0
    endloop
  endfacet
  facet normal -0 0 -1
    outer loop
      vertex 4.05954 3.70557 0
      vertex 1.46447 1.46447 0
      vertex 3.70557 4.05954 0
    endloop
  endfacet
  facet normal -0 0 -1
    outer loop
      vertex 44.6194 6.91342 0
      vertex 41.2944 5.94046 0
      vertex 43.5355 8.53553 0
    endloop
  endfacet
  facet normal 0 0 -1
    outer loop
      vertex 40.9405 6.29443 0
      vertex 43.5355 8.53553 0
      vertex 41.2944 5.94046 0
    endloop
  endfacet
  facet normal -0 0 -1
    outer loop
      vertex 43.5355 8.53553 0
      vertex 40.9405 6.29443 0
      vertex 41.9134 9.6194 0
    endloop
  endfacet
  facet normal 0 0 -1
    outer loop
      vertex 40.4944 6.52169 0
      vertex 41.9134 9.6194 0
      vertex 40.9405 6.29443 0
    endloop
  endfacet
  facet normal 0 0 -1
    outer loop
      vertex 40 10 0
      vertex 40.4944 6.52169 0
      vertex 40 6.6 0
    endloop
  endfacet
  facet normal 0 0 -1
    outer loop
      vertex 40.4944 6.52169 0
      vertex 40 10 0
      vertex 41.9134 9.6194 0
    endloop
  endfacet
  facet normal 0 0 -1
    outer loop
      vertex 39.5056 6.52169 0
      vertex 40 10 0
      vertex 40 6.6 0
    endloop
  endfacet
  facet normal 0 0 -1
    outer loop
      vertex 39.0595 6.29443 0
      vertex 40 10 0
      vertex 39.5056 6.52169 0
    endloop
  endfacet
  facet normal 0 0 -1
    outer loop
      vertex 38.7056 5.94046 0
      vertex 40 10 0
      vertex 39.0595 6.29443 0
    endloop
  endfacet
  facet normal 0 0 -1
    outer loop
      vertex 38.4783 5.49443 0
      vertex 40 10 0
      vertex 38.7056 5.94046 0
    endloop
  endfacet
  facet normal 0 0 -1
    outer loop
      vertex 6.6 5 0
      vertex 38.4783 5.49443 0
      vertex 38.4 5 0
    endloop
  endfacet
  facet normal 0 0 -1
    outer loop
      vertex 6.52169 5.49443 0
      vertex 38.4783 5.49443 0
      vertex 6.6 5 0
    endloop
  endfacet
  facet normal 0 0 -1
    outer loop
      vertex 38.4783 5.49443 0
      vertex 6.52169 5.49443 0
      vertex 40 10 0
    endloop
  endfacet
  facet normal 0 0 -1
    outer loop
      vertex 5 10 0
      vertex 6.52169 5.49443 0
      vertex 6.29443 5.94046 0
    endloop
  endfacet
  facet normal 0 0 -1
    outer loop
      vertex 5 10 0
      vertex 6.29443 5.94046 0
      vertex 5.94046 6.29443 0
    endloop
  endfacet
  facet normal 0 0 -1
    outer loop
      vertex 5 10 0
      vertex 5.94046 6.29443 0
      vertex 5.49443 6.52169 0
    endloop
  endfacet
  facet normal 0 0 -1
    outer loop
      vertex 5 10 0
      vertex 5.49443 6.52169 0
      vertex 5 6.6 0
    endloop
  endfacet
  facet normal 0 0 -1
    outer loop
      vertex 6.52169 5.49443 0
      vertex 5 10 0
      vertex 40 10 0
    endloop
  endfacet
  facet normal 0 0 -1
    outer loop
      vertex 4.50557 6.52169 0
      vertex 5 10 0
      vertex 5 6.6 0
    endloop
  endfacet
  facet normal 0 0 -1
    outer loop
      vertex 3.08658 9.6194 0
      vertex 4.50557 6.52169 0
      vertex 4.05954 6.29443 0
    endloop
  endfacet
  facet normal 0 0 -1
    outer loop
      vertex 1.46447 8.53553 0
      vertex 4.05954 6.29443 0
      vertex 3.70557 5.94046 0
    endloop
  endfacet
  facet normal 0 0 -1
    outer loop
      vertex 0.380602 6.91342 0
      vertex 3.70557 5.94046 0
      vertex 3.47831 5.49443 0
    endloop
  endfacet
  facet normal 0 0 -1
    outer loop
      vertex 4.50557 6.52169 0
      vertex 3.08658 9.6194 0
      vertex 5 10 0
    endloop
  endfacet
  facet normal 0 0 -1
    outer loop
      vertex 0 5 0
      vertex 3.47831 5.49443 0
      vertex 3.4 5 0
    endloop
  endfacet
  facet normal -0 0 -1
    outer loop
      vertex 3.70557 4.05954 0
      vertex 0.380602 3.08658 0
      vertex 3.47831 4.50557 0
    endloop
  endfacet
  facet normal 0 0 -1
    outer loop
      vertex 0 5 0
      vertex 3.47831 4.50557 0
      vertex 0.380602 3.08658 0
    endloop
  endfacet
  facet normal 0 0 -1
    outer loop
      vertex 4.05954 6.29443 0
      vertex 1.46447 8.53553 0
      vertex 3.08658 9.6194 0
    endloop
  endfacet
  facet normal 0 0 -1
    outer loop
      vertex 3.47831 4.50557 0
      vertex 0 5 0
      vertex 3.4 5 0
    endloop
  endfacet
  facet normal 0 0 -1
    outer loop
      vertex 3.70557 5.94046 0
      vertex 0.380602 6.91342 0
      vertex 1.46447 8.53553 0
    endloop
  endfacet
  facet normal -0 0 -1
    outer loop
      vertex 3.47831 5.49443 0
      vertex 0 5 0
      vertex 0.380602 6.91342 0
    endloop
  endfacet
  facet normal 0.980786 0.195089 0
    outer loop
      vertex 45 5 1.5
      vertex 44.6194 6.91342 0
      vertex 44.6194 6.91342 1.5
    endloop
  endfacet
  facet normal 0.980786 0.195089 0
    outer loop
      vertex 44.6194 6.91342 0
      vertex 45 5 1.5
      vertex 45 5 0
    endloop
  endfacet
  facet normal -0.831468 0.555573 0
    outer loop
      vertex 0.380602 6.91342 0
      vertex 1.46447 8.53553 1.5
      vertex 1.46447 8.53553 0
    endloop
  endfacet
  facet normal -0.831468 0.555573 0
    outer loop
      vertex 1.46447 8.53553 1.5
      vertex 0.380602 6.91342 0
      vertex 0.380602 6.91342 1.5
    endloop
  endfacet
  facet normal 0.555576 0.831465 -0
    outer loop
      vertex 43.5355 8.53553 0
      vertex 41.9134 9.6194 1.5
      vertex 43.5355 8.53553 1.5
    endloop
  endfacet
  facet normal 0.555576 0.831465 0
    outer loop
      vertex 41.9134 9.6194 1.5
      vertex 43.5355 8.53553 0
      vertex 41.9134 9.6194 0
    endloop
  endfacet
  facet normal -0.980785 0.19509 0
    outer loop
      vertex 0 5 0
      vertex 0.380602 6.91342 1.5
      vertex 0.380602 6.91342 0
    endloop
  endfacet
  facet normal -0.980785 0.19509 0
    outer loop
      vertex 0.380602 6.91342 1.5
      vertex 0 5 0
      vertex 0 5 1.5
    endloop
  endfacet
  facet normal 0.83146 -0.555585 0
    outer loop
      vertex 43.5355 1.46447 1.5
      vertex 44.6194 3.08658 0
      vertex 44.6194 3.08658 1.5
    endloop
  endfacet
  facet normal 0.83146 -0.555585 0
    outer loop
      vertex 44.6194 3.08658 0
      vertex 43.5355 1.46447 1.5
      vertex 43.5355 1.46447 0
    endloop
  endfacet
  facet normal -0.19509 -0.980785 0
    outer loop
      vertex 3.08658 0.380602 0
      vertex 5 0 1.5
      vertex 3.08658 0.380602 1.5
    endloop
  endfacet
  facet normal -0.19509 -0.980785 -0
    outer loop
      vertex 5 0 1.5
      vertex 3.08658 0.380602 0
      vertex 5 0 0
    endloop
  endfacet
  facet normal -0.831468 -0.555573 0
    outer loop
      vertex 1.46447 1.46447 0
      vertex 0.380602 3.08658 1.5
      vertex 0.380602 3.08658 0
    endloop
  endfacet
  facet normal -0.831468 -0.555573 0
    outer loop
      vertex 0.380602 3.08658 1.5
      vertex 1.46447 1.46447 0
      vertex 1.46447 1.46447 1.5
    endloop
  endfacet
  facet normal 0.555576 -0.831466 0
    outer loop
      vertex 41.9134 0.380602 0
      vertex 43.5355 1.46447 1.5
      vertex 41.9134 0.380602 1.5
    endloop
  endfacet
  facet normal 0.555576 -0.831466 0
    outer loop
      vertex 43.5355 1.46447 1.5
      vertex 41.9134 0.380602 0
      vertex 43.5355 1.46447 0
    endloop
  endfacet
  facet normal 0.195092 -0.980785 0
    outer loop
      vertex 40 0 0
      vertex 41.9134 0.380602 1.5
      vertex 40 0 1.5
    endloop
  endfacet
  facet normal 0.195092 -0.980785 0
    outer loop
      vertex 41.9134 0.380602 1.5
      vertex 40 0 0
      vertex 41.9134 0.380602 0
    endloop
  endfacet
  facet normal 0.83146 0.555585 0
    outer loop
      vertex 44.6194 6.91342 1.5
      vertex 43.5355 8.53553 0
      vertex 43.5355 8.53553 1.5
    endloop
  endfacet
  facet normal 0.83146 0.555585 0
    outer loop
      vertex 43.5355 8.53553 0
      vertex 44.6194 6.91342 1.5
      vertex 44.6194 6.91342 0
    endloop
  endfacet
  facet normal -0 0 1
    outer loop
      vertex 41.5217 5.49443 1.5
      vertex 45 5 1.5
      vertex 44.6194 6.91342 1.5
    endloop
  endfacet
  facet normal 0 0 1
    outer loop
      vertex 41.2944 5.94046 1.5
      vertex 44.6194 6.91342 1.5
      vertex 43.5355 8.53553 1.5
    endloop
  endfacet
  facet normal 0 0 1
    outer loop
      vertex 45 5 1.5
      vertex 41.5217 5.49443 1.5
      vertex 41.6 5 1.5
    endloop
  endfacet
  facet normal 0 0 1
    outer loop
      vertex 40.9405 6.29443 1.5
      vertex 43.5355 8.53553 1.5
      vertex 41.9134 9.6194 1.5
    endloop
  endfacet
  facet normal 0 0 1
    outer loop
      vertex 41.5217 4.50557 1.5
      vertex 45 5 1.5
      vertex 41.6 5 1.5
    endloop
  endfacet
  facet normal -0 0 1
    outer loop
      vertex 41.2944 4.05954 1.5
      vertex 44.6194 3.08658 1.5
      vertex 41.5217 4.50557 1.5
    endloop
  endfacet
  facet normal 0 0 1
    outer loop
      vertex 45 5 1.5
      vertex 41.5217 4.50557 1.5
      vertex 44.6194 3.08658 1.5
    endloop
  endfacet
  facet normal 0 0 1
    outer loop
      vertex 44.6194 6.91342 1.5
      vertex 41.2944 5.94046 1.5
      vertex 41.5217 5.49443 1.5
    endloop
  endfacet
  facet normal 0 0 1
    outer loop
      vertex 43.5355 8.53553 1.5
      vertex 40.9405 6.29443 1.5
      vertex 41.2944 5.94046 1.5
    endloop
  endfacet
  facet normal 0 0 1
    outer loop
      vertex 41.9134 9.6194 1.5
      vertex 40.4944 6.52169 1.5
      vertex 40.9405 6.29443 1.5
    endloop
  endfacet
  facet normal 0 0 1
    outer loop
      vertex 40 10 1.5
      vertex 40.4944 6.52169 1.5
      vertex 41.9134 9.6194 1.5
    endloop
  endfacet
  facet normal 0 0 1
    outer loop
      vertex 40 10 1.5
      vertex 40 6.6 1.5
      vertex 40.4944 6.52169 1.5
    endloop
  endfacet
  facet normal 0 0 1
    outer loop
      vertex 40 10 1.5
      vertex 39.5056 6.52169 1.5
      vertex 40 6.6 1.5
    endloop
  endfacet
  facet normal 0 0 1
    outer loop
      vertex 40 10 1.5
      vertex 39.0595 6.29443 1.5
      vertex 39.5056 6.52169 1.5
    endloop
  endfacet
  facet normal 0 0 1
    outer loop
      vertex 40 10 1.5
      vertex 38.7056 5.94046 1.5
      vertex 39.0595 6.29443 1.5
    endloop
  endfacet
  facet normal 0 0 1
    outer loop
      vertex 35.225 3 1.5
      vertex 38.7056 5.94046 1.5
      vertex 40 10 1.5
    endloop
  endfacet
  facet normal 0 0 1
    outer loop
      vertex 38.4783 5.49443 1.5
      vertex 35.225 3 1.5
      vertex 38.4 5 1.5
    endloop
  endfacet
  facet normal 0 0 1
    outer loop
      vertex 38.7056 5.94046 1.5
      vertex 35.225 3 1.5
      vertex 38.4783 5.49443 1.5
    endloop
  endfacet
  facet normal 0 0 1
    outer loop
      vertex 40 10 1.5
      vertex 9.775 3 1.5
      vertex 35.225 3 1.5
    endloop
  endfacet
  facet normal -0 0 1
    outer loop
      vertex 6.52169 4.50557 1.5
      vertex 9.775 3 1.5
      vertex 6.6 5 1.5
    endloop
  endfacet
  facet normal -0 0 1
    outer loop
      vertex 5 10 1.5
      vertex 9.775 3 1.5
      vertex 40 10 1.5
    endloop
  endfacet
  facet normal 0 0 1
    outer loop
      vertex 9.775 3 1.5
      vertex 6.52169 5.49443 1.5
      vertex 6.6 5 1.5
    endloop
  endfacet
  facet normal -0 -0 1
    outer loop
      vertex 6.29443 5.94046 1.5
      vertex 9.775 3 1.5
      vertex 5 10 1.5
    endloop
  endfacet
  facet normal 0 0 1
    outer loop
      vertex 9.775 3 1.5
      vertex 6.29443 5.94046 1.5
      vertex 6.52169 5.49443 1.5
    endloop
  endfacet
  facet normal 0 0 1
    outer loop
      vertex 6.29443 5.94046 1.5
      vertex 5 10 1.5
      vertex 5.94046 6.29443 1.5
    endloop
  endfacet
  facet normal 0 0 1
    outer loop
      vertex 5.94046 6.29443 1.5
      vertex 5 10 1.5
      vertex 5.49443 6.52169 1.5
    endloop
  endfacet
  facet normal 0 0 1
    outer loop
      vertex 5 10 1.5
      vertex 5 6.6 1.5
      vertex 5.49443 6.52169 1.5
    endloop
  endfacet
  facet normal 0 0 1
    outer loop
      vertex 5 10 1.5
      vertex 4.50557 6.52169 1.5
      vertex 5 6.6 1.5
    endloop
  endfacet
  facet normal -0 0 1
    outer loop
      vertex 3.08658 9.6194 1.5
      vertex 4.50557 6.52169 1.5
      vertex 5 10 1.5
    endloop
  endfacet
  facet normal 0 0 1
    outer loop
      vertex 4.50557 6.52169 1.5
      vertex 3.08658 9.6194 1.5
      vertex 4.05954 6.29443 1.5
    endloop
  endfacet
  facet normal -0 0 1
    outer loop
      vertex 1.46447 8.53553 1.5
      vertex 4.05954 6.29443 1.5
      vertex 3.08658 9.6194 1.5
    endloop
  endfacet
  facet normal -0 0 1
    outer loop
      vertex 0.380602 6.91342 1.5
      vertex 3.70557 5.94046 1.5
      vertex 1.46447 8.53553 1.5
    endloop
  endfacet
  facet normal 0 0 1
    outer loop
      vertex 4.05954 6.29443 1.5
      vertex 1.46447 8.53553 1.5
      vertex 3.70557 5.94046 1.5
    endloop
  endfacet
  facet normal 0 0 1
    outer loop
      vertex 44.6194 3.08658 1.5
      vertex 41.2944 4.05954 1.5
      vertex 43.5355 1.46447 1.5
    endloop
  endfacet
  facet normal -0 0 1
    outer loop
      vertex 40.9405 3.70557 1.5
      vertex 43.5355 1.46447 1.5
      vertex 41.2944 4.05954 1.5
    endloop
  endfacet
  facet normal 0 0 1
    outer loop
      vertex 43.5355 1.46447 1.5
      vertex 40.9405 3.70557 1.5
      vertex 41.9134 0.380602 1.5
    endloop
  endfacet
  facet normal -0 0 1
    outer loop
      vertex 40.4944 3.47831 1.5
      vertex 41.9134 0.380602 1.5
      vertex 40.9405 3.70557 1.5
    endloop
  endfacet
  facet normal 0 0 1
    outer loop
      vertex 40 0 1.5
      vertex 40.4944 3.47831 1.5
      vertex 40 3.4 1.5
    endloop
  endfacet
  facet normal 0 0 1
    outer loop
      vertex 40.4944 3.47831 1.5
      vertex 40 0 1.5
      vertex 41.9134 0.380602 1.5
    endloop
  endfacet
  facet normal 0 0 1
    outer loop
      vertex 39.5056 3.47831 1.5
      vertex 40 0 1.5
      vertex 40 3.4 1.5
    endloop
  endfacet
  facet normal 0 0 1
    outer loop
      vertex 39.0595 3.70557 1.5
      vertex 40 0 1.5
      vertex 39.5056 3.47831 1.5
    endloop
  endfacet
  facet normal 0 0 1
    outer loop
      vertex 35.225 3 1.5
      vertex 39.0595 3.70557 1.5
      vertex 38.7056 4.05954 1.5
    endloop
  endfacet
  facet normal 0 0 1
    outer loop
      vertex 35.225 3 1.5
      vertex 38.7056 4.05954 1.5
      vertex 38.4783 4.50557 1.5
    endloop
  endfacet
  facet normal 0 0 1
    outer loop
      vertex 35.225 3 1.5
      vertex 38.4783 4.50557 1.5
      vertex 38.4 5 1.5
    endloop
  endfacet
  facet normal 0 0 1
    outer loop
      vertex 39.0595 3.70557 1.5
      vertex 35.225 3 1.5
      vertex 35.225 0 1.5
    endloop
  endfacet
  facet normal 0 0 1
    outer loop
      vertex 39.0595 3.70557 1.5
      vertex 35.225 0 1.5
      vertex 40 0 1.5
    endloop
  endfacet
  facet normal -0 0 1
    outer loop
      vertex 6.29443 4.05954 1.5
      vertex 9.775 3 1.5
      vertex 6.52169 4.50557 1.5
    endloop
  endfacet
  facet normal -0 0 1
    outer loop
      vertex 5.94046 3.70557 1.5
      vertex 9.775 3 1.5
      vertex 6.29443 4.05954 1.5
    endloop
  endfacet
  facet normal 0 0 1
    outer loop
      vertex 9.775 3 1.5
      vertex 5.94046 3.70557 1.5
      vertex 9.775 0 1.5
    endloop
  endfacet
  facet normal 0 0 1
    outer loop
      vertex 5 0 1.5
      vertex 5.94046 3.70557 1.5
      vertex 5.49443 3.47831 1.5
    endloop
  endfacet
  facet normal 0 0 1
    outer loop
      vertex 5 0 1.5
      vertex 5.49443 3.47831 1.5
      vertex 5 3.4 1.5
    endloop
  endfacet
  facet normal 0 0 1
    outer loop
      vertex 5.94046 3.70557 1.5
      vertex 5 0 1.5
      vertex 9.775 0 1.5
    endloop
  endfacet
  facet normal 0 0 1
    outer loop
      vertex 4.50557 3.47831 1.5
      vertex 5 0 1.5
      vertex 5 3.4 1.5
    endloop
  endfacet
  facet normal 0 0 1
    outer loop
      vertex 3.08658 0.380602 1.5
      vertex 4.50557 3.47831 1.5
      vertex 4.05954 3.70557 1.5
    endloop
  endfacet
  facet normal 0 0 1
    outer loop
      vertex 1.46447 1.46447 1.5
      vertex 4.05954 3.70557 1.5
      vertex 3.70557 4.05954 1.5
    endloop
  endfacet
  facet normal 0 0 1
    outer loop
      vertex 0.380602 3.08658 1.5
      vertex 3.70557 4.05954 1.5
      vertex 3.47831 4.50557 1.5
    endloop
  endfacet
  facet normal 0 0 1
    outer loop
      vertex 4.50557 3.47831 1.5
      vertex 3.08658 0.380602 1.5
      vertex 5 0 1.5
    endloop
  endfacet
  facet normal -0 0 1
    outer loop
      vertex 0 5 1.5
      vertex 3.47831 4.50557 1.5
      vertex 3.4 5 1.5
    endloop
  endfacet
  facet normal 0 0 1
    outer loop
      vertex 3.70557 5.94046 1.5
      vertex 0.380602 6.91342 1.5
      vertex 3.47831 5.49443 1.5
    endloop
  endfacet
  facet normal 0 0 1
    outer loop
      vertex 0 5 1.5
      vertex 3.47831 5.49443 1.5
      vertex 0.380602 6.91342 1.5
    endloop
  endfacet
  facet normal 0 0 1
    outer loop
      vertex 4.05954 3.70557 1.5
      vertex 1.46447 1.46447 1.5
      vertex 3.08658 0.380602 1.5
    endloop
  endfacet
  facet normal 0 0 1
    outer loop
      vertex 3.47831 5.49443 1.5
      vertex 0 5 1.5
      vertex 3.4 5 1.5
    endloop
  endfacet
  facet normal 0 0 1
    outer loop
      vertex 3.70557 4.05954 1.5
      vertex 0.380602 3.08658 1.5
      vertex 1.46447 1.46447 1.5
    endloop
  endfacet
  facet normal 0 0 1
    outer loop
      vertex 3.47831 4.50557 1.5
      vertex 0 5 1.5
      vertex 0.380602 3.08658 1.5
    endloop
  endfacet
  facet normal -0.891009 -0.453985 0
    outer loop
      vertex 6.52169 5.49443 0
      vertex 6.29443 5.94046 1.5
      vertex 6.29443 5.94046 0
    endloop
  endfacet
  facet normal -0.891009 -0.453985 0
    outer loop
      vertex 6.29443 5.94046 1.5
      vertex 6.52169 5.49443 0
      vertex 6.52169 5.49443 1.5
    endloop
  endfacet
  facet normal -0.987688 -0.156434 0
    outer loop
      vertex 6.6 5 0
      vertex 6.52169 5.49443 1.5
      vertex 6.52169 5.49443 0
    endloop
  endfacet
  facet normal -0.987688 -0.156434 0
    outer loop
      vertex 6.52169 5.49443 1.5
      vertex 6.6 5 0
      vertex 6.6 5 1.5
    endloop
  endfacet
  facet normal -0.707107 -0.707107 0
    outer loop
      vertex 6.29443 5.94046 0
      vertex 5.94046 6.29443 1.5
      vertex 5.94046 6.29443 0
    endloop
  endfacet
  facet normal -0.707107 -0.707107 0
    outer loop
      vertex 5.94046 6.29443 1.5
      vertex 6.29443 5.94046 0
      vertex 6.29443 5.94046 1.5
    endloop
  endfacet
  facet normal -0.987688 0.156434 0
    outer loop
      vertex 6.52169 4.50557 0
      vertex 6.6 5 1.5
      vertex 6.6 5 0
    endloop
  endfacet
  facet normal -0.987688 0.156434 0
    outer loop
      vertex 6.6 5 1.5
      vertex 6.52169 4.50557 0
      vertex 6.52169 4.50557 1.5
    endloop
  endfacet
  facet normal 0.987688 -0.156434 0
    outer loop
      vertex 3.4 5 1.5
      vertex 3.47831 5.49443 0
      vertex 3.47831 5.49443 1.5
    endloop
  endfacet
  facet normal 0.987688 -0.156434 0
    outer loop
      vertex 3.47831 5.49443 0
      vertex 3.4 5 1.5
      vertex 3.4 5 0
    endloop
  endfacet
  facet normal 0.156434 0.987688 -0
    outer loop
      vertex 5 3.4 0
      vertex 4.50557 3.47831 1.5
      vertex 5 3.4 1.5
    endloop
  endfacet
  facet normal 0.156434 0.987688 0
    outer loop
      vertex 4.50557 3.47831 1.5
      vertex 5 3.4 0
      vertex 4.50557 3.47831 0
    endloop
  endfacet
  facet normal 0.453985 0.891009 -0
    outer loop
      vertex 4.50557 3.47831 0
      vertex 4.05954 3.70557 1.5
      vertex 4.50557 3.47831 1.5
    endloop
  endfacet
  facet normal 0.453985 0.891009 0
    outer loop
      vertex 4.05954 3.70557 1.5
      vertex 4.50557 3.47831 0
      vertex 4.05954 3.70557 0
    endloop
  endfacet
  facet normal 0.156434 -0.987688 0
    outer loop
      vertex 4.50557 6.52169 0
      vertex 5 6.6 1.5
      vertex 4.50557 6.52169 1.5
    endloop
  endfacet
  facet normal 0.156434 -0.987688 0
    outer loop
      vertex 5 6.6 1.5
      vertex 4.50557 6.52169 0
      vertex 5 6.6 0
    endloop
  endfacet
  facet normal -0.891009 0.453985 0
    outer loop
      vertex 6.29443 4.05954 0
      vertex 6.52169 4.50557 1.5
      vertex 6.52169 4.50557 0
    endloop
  endfacet
  facet normal -0.891009 0.453985 0
    outer loop
      vertex 6.52169 4.50557 1.5
      vertex 6.29443 4.05954 0
      vertex 6.29443 4.05954 1.5
    endloop
  endfacet
  facet normal -0.453985 -0.891009 0
    outer loop
      vertex 5.49443 6.52169 0
      vertex 5.94046 6.29443 1.5
      vertex 5.49443 6.52169 1.5
    endloop
  endfacet
  facet normal -0.453985 -0.891009 -0
    outer loop
      vertex 5.94046 6.29443 1.5
      vertex 5.49443 6.52169 0
      vertex 5.94046 6.29443 0
    endloop
  endfacet
  facet normal 0.707107 -0.707107 0
    outer loop
      vertex 3.70557 5.94046 1.5
      vertex 4.05954 6.29443 0
      vertex 4.05954 6.29443 1.5
    endloop
  endfacet
  facet normal 0.707107 -0.707107 0
    outer loop
      vertex 4.05954 6.29443 0
      vertex 3.70557 5.94046 1.5
      vertex 3.70557 5.94046 0
    endloop
  endfacet
  facet normal -0.453985 0.891009 0
    outer loop
      vertex 5.94046 3.70557 0
      vertex 5.49443 3.47831 1.5
      vertex 5.94046 3.70557 1.5
    endloop
  endfacet
  facet normal -0.453985 0.891009 0
    outer loop
      vertex 5.49443 3.47831 1.5
      vertex 5.94046 3.70557 0
      vertex 5.49443 3.47831 0
    endloop
  endfacet
  facet normal -0.707107 0.707107 0
    outer loop
      vertex 5.94046 3.70557 0
      vertex 6.29443 4.05954 1.5
      vertex 6.29443 4.05954 0
    endloop
  endfacet
  facet normal -0.707107 0.707107 0
    outer loop
      vertex 6.29443 4.05954 1.5
      vertex 5.94046 3.70557 0
      vertex 5.94046 3.70557 1.5
    endloop
  endfacet
  facet normal 0.707107 0.707107 0
    outer loop
      vertex 4.05954 3.70557 1.5
      vertex 3.70557 4.05954 0
      vertex 3.70557 4.05954 1.5
    endloop
  endfacet
  facet normal 0.707107 0.707107 0
    outer loop
      vertex 3.70557 4.05954 0
      vertex 4.05954 3.70557 1.5
      vertex 4.05954 3.70557 0
    endloop
  endfacet
  facet normal 0.453985 -0.891009 0
    outer loop
      vertex 4.05954 6.29443 0
      vertex 4.50557 6.52169 1.5
      vertex 4.05954 6.29443 1.5
    endloop
  endfacet
  facet normal 0.453985 -0.891009 0
    outer loop
      vertex 4.50557 6.52169 1.5
      vertex 4.05954 6.29443 0
      vertex 4.50557 6.52169 0
    endloop
  endfacet
  facet normal -0.156434 -0.987688 0
    outer loop
      vertex 5 6.6 0
      vertex 5.49443 6.52169 1.5
      vertex 5 6.6 1.5
    endloop
  endfacet
  facet normal -0.156434 -0.987688 -0
    outer loop
      vertex 5.49443 6.52169 1.5
      vertex 5 6.6 0
      vertex 5.49443 6.52169 0
    endloop
  endfacet
  facet normal 0.891009 -0.453985 0
    outer loop
      vertex 3.47831 5.49443 1.5
      vertex 3.70557 5.94046 0
      vertex 3.70557 5.94046 1.5
    endloop
  endfacet
  facet normal 0.891009 -0.453985 0
    outer loop
      vertex 3.70557 5.94046 0
      vertex 3.47831 5.49443 1.5
      vertex 3.47831 5.49443 0
    endloop
  endfacet
  facet normal -0.156434 0.987688 0
    outer loop
      vertex 5.49443 3.47831 0
      vertex 5 3.4 1.5
      vertex 5.49443 3.47831 1.5
    endloop
  endfacet
  facet normal -0.156434 0.987688 0
    outer loop
      vertex 5 3.4 1.5
      vertex 5.49443 3.47831 0
      vertex 5 3.4 0
    endloop
  endfacet
  facet normal 0.891009 0.453985 0
    outer loop
      vertex 3.70557 4.05954 1.5
      vertex 3.47831 4.50557 0
      vertex 3.47831 4.50557 1.5
    endloop
  endfacet
  facet normal 0.891009 0.453985 0
    outer loop
      vertex 3.47831 4.50557 0
      vertex 3.70557 4.05954 1.5
      vertex 3.70557 4.05954 0
    endloop
  endfacet
  facet normal 0.987688 0.156434 0
    outer loop
      vertex 3.47831 4.50557 1.5
      vertex 3.4 5 0
      vertex 3.4 5 1.5
    endloop
  endfacet
  facet normal 0.987688 0.156434 0
    outer loop
      vertex 3.4 5 0
      vertex 3.47831 4.50557 1.5
      vertex 3.47831 4.50557 0
    endloop
  endfacet
  facet normal -0.890977 -0.454048 0
    outer loop
      vertex 41.5217 5.49443 0
      vertex 41.2944 5.94046 1.5
      vertex 41.2944 5.94046 0
    endloop
  endfacet
  facet normal -0.890977 -0.454048 0
    outer loop
      vertex 41.2944 5.94046 1.5
      vertex 41.5217 5.49443 0
      vertex 41.5217 5.49443 1.5
    endloop
  endfacet
  facet normal -0.987691 -0.156415 0
    outer loop
      vertex 41.6 5 0
      vertex 41.5217 5.49443 1.5
      vertex 41.5217 5.49443 0
    endloop
  endfacet
  facet normal -0.987691 -0.156415 0
    outer loop
      vertex 41.5217 5.49443 1.5
      vertex 41.6 5 0
      vertex 41.6 5 1.5
    endloop
  endfacet
  facet normal -0.707177 -0.707037 0
    outer loop
      vertex 41.2944 5.94046 0
      vertex 40.9405 6.29443 1.5
      vertex 40.9405 6.29443 0
    endloop
  endfacet
  facet normal -0.707177 -0.707037 0
    outer loop
      vertex 40.9405 6.29443 1.5
      vertex 41.2944 5.94046 0
      vertex 41.2944 5.94046 1.5
    endloop
  endfacet
  facet normal -0.987691 0.156415 0
    outer loop
      vertex 41.5217 4.50557 0
      vertex 41.6 5 1.5
      vertex 41.6 5 0
    endloop
  endfacet
  facet normal -0.987691 0.156415 0
    outer loop
      vertex 41.6 5 1.5
      vertex 41.5217 4.50557 0
      vertex 41.5217 4.50557 1.5
    endloop
  endfacet
  facet normal 0.987691 -0.156415 0
    outer loop
      vertex 38.4 5 1.5
      vertex 38.4783 5.49443 0
      vertex 38.4783 5.49443 1.5
    endloop
  endfacet
  facet normal 0.987691 -0.156415 0
    outer loop
      vertex 38.4783 5.49443 0
      vertex 38.4 5 1.5
      vertex 38.4 5 0
    endloop
  endfacet
  facet normal 0.156444 0.987687 -0
    outer loop
      vertex 40 3.4 0
      vertex 39.5056 3.47831 1.5
      vertex 40 3.4 1.5
    endloop
  endfacet
  facet normal 0.156444 0.987687 0
    outer loop
      vertex 39.5056 3.47831 1.5
      vertex 40 3.4 0
      vertex 39.5056 3.47831 0
    endloop
  endfacet
  facet normal 0.453928 0.891038 -0
    outer loop
      vertex 39.5056 3.47831 0
      vertex 39.0595 3.70557 1.5
      vertex 39.5056 3.47831 1.5
    endloop
  endfacet
  facet normal 0.453928 0.891038 0
    outer loop
      vertex 39.0595 3.70557 1.5
      vertex 39.5056 3.47831 0
      vertex 39.0595 3.70557 0
    endloop
  endfacet
  facet normal 0.156444 -0.987687 0
    outer loop
      vertex 39.5056 6.52169 0
      vertex 40 6.6 1.5
      vertex 39.5056 6.52169 1.5
    endloop
  endfacet
  facet normal 0.156444 -0.987687 0
    outer loop
      vertex 40 6.6 1.5
      vertex 39.5056 6.52169 0
      vertex 40 6.6 0
    endloop
  endfacet
  facet normal -0.890977 0.454048 0
    outer loop
      vertex 41.2944 4.05954 0
      vertex 41.5217 4.50557 1.5
      vertex 41.5217 4.50557 0
    endloop
  endfacet
  facet normal -0.890977 0.454048 0
    outer loop
      vertex 41.5217 4.50557 1.5
      vertex 41.2944 4.05954 0
      vertex 41.2944 4.05954 1.5
    endloop
  endfacet
  facet normal -0.453928 -0.891038 0
    outer loop
      vertex 40.4944 6.52169 0
      vertex 40.9405 6.29443 1.5
      vertex 40.4944 6.52169 1.5
    endloop
  endfacet
  facet normal -0.453928 -0.891038 -0
    outer loop
      vertex 40.9405 6.29443 1.5
      vertex 40.4944 6.52169 0
      vertex 40.9405 6.29443 0
    endloop
  endfacet
  facet normal 0.707177 -0.707037 0
    outer loop
      vertex 38.7056 5.94046 1.5
      vertex 39.0595 6.29443 0
      vertex 39.0595 6.29443 1.5
    endloop
  endfacet
  facet normal 0.707177 -0.707037 0
    outer loop
      vertex 39.0595 6.29443 0
      vertex 38.7056 5.94046 1.5
      vertex 38.7056 5.94046 0
    endloop
  endfacet
  facet normal -0.453928 0.891038 0
    outer loop
      vertex 40.9405 3.70557 0
      vertex 40.4944 3.47831 1.5
      vertex 40.9405 3.70557 1.5
    endloop
  endfacet
  facet normal -0.453928 0.891038 0
    outer loop
      vertex 40.4944 3.47831 1.5
      vertex 40.9405 3.70557 0
      vertex 40.4944 3.47831 0
    endloop
  endfacet
  facet normal -0.707177 0.707037 0
    outer loop
      vertex 40.9405 3.70557 0
      vertex 41.2944 4.05954 1.5
      vertex 41.2944 4.05954 0
    endloop
  endfacet
  facet normal -0.707177 0.707037 0
    outer loop
      vertex 41.2944 4.05954 1.5
      vertex 40.9405 3.70557 0
      vertex 40.9405 3.70557 1.5
    endloop
  endfacet
  facet normal 0.707177 0.707037 0
    outer loop
      vertex 39.0595 3.70557 1.5
      vertex 38.7056 4.05954 0
      vertex 38.7056 4.05954 1.5
    endloop
  endfacet
  facet normal 0.707177 0.707037 0
    outer loop
      vertex 38.7056 4.05954 0
      vertex 39.0595 3.70557 1.5
      vertex 39.0595 3.70557 0
    endloop
  endfacet
  facet normal 0.453928 -0.891038 0
    outer loop
      vertex 39.0595 6.29443 0
      vertex 39.5056 6.52169 1.5
      vertex 39.0595 6.29443 1.5
    endloop
  endfacet
  facet normal 0.453928 -0.891038 0
    outer loop
      vertex 39.5056 6.52169 1.5
      vertex 39.0595 6.29443 0
      vertex 39.5056 6.52169 0
    endloop
  endfacet
  facet normal -0.156444 -0.987687 0
    outer loop
      vertex 40 6.6 0
      vertex 40.4944 6.52169 1.5
      vertex 40 6.6 1.5
    endloop
  endfacet
  facet normal -0.156444 -0.987687 -0
    outer loop
      vertex 40.4944 6.52169 1.5
      vertex 40 6.6 0
      vertex 40.4944 6.52169 0
    endloop
  endfacet
  facet normal 0.890977 -0.454048 0
    outer loop
      vertex 38.4783 5.49443 1.5
      vertex 38.7056 5.94046 0
      vertex 38.7056 5.94046 1.5
    endloop
  endfacet
  facet normal 0.890977 -0.454048 0
    outer loop
      vertex 38.7056 5.94046 0
      vertex 38.4783 5.49443 1.5
      vertex 38.4783 5.49443 0
    endloop
  endfacet
  facet normal -0.156444 0.987687 0
    outer loop
      vertex 40.4944 3.47831 0
      vertex 40 3.4 1.5
      vertex 40.4944 3.47831 1.5
    endloop
  endfacet
  facet normal -0.156444 0.987687 0
    outer loop
      vertex 40 3.4 1.5
      vertex 40.4944 3.47831 0
      vertex 40 3.4 0
    endloop
  endfacet
  facet normal 0.890977 0.454048 0
    outer loop
      vertex 38.7056 4.05954 1.5
      vertex 38.4783 4.50557 0
      vertex 38.4783 4.50557 1.5
    endloop
  endfacet
  facet normal 0.890977 0.454048 0
    outer loop
      vertex 38.4783 4.50557 0
      vertex 38.7056 4.05954 1.5
      vertex 38.7056 4.05954 0
    endloop
  endfacet
  facet normal 0.987691 0.156415 0
    outer loop
      vertex 38.4783 4.50557 1.5
      vertex 38.4 5 0
      vertex 38.4 5 1.5
    endloop
  endfacet
  facet normal 0.987691 0.156415 0
    outer loop
      vertex 38.4 5 0
      vertex 38.4783 4.50557 1.5
      vertex 38.4783 4.50557 0
    endloop
  endfacet
endsolid OpenSCAD_Model
