solid OpenSCAD_Model
  facet normal 0 0 -1
    outer loop
      vertex 0 0 -12
      vertex 5.2 26 -12
      vertex 5.2 0 -12
    endloop
  endfacet
  facet normal -0 0 -1
    outer loop
      vertex 5.2 26 -12
      vertex 0 0 -12
      vertex 0 26 -12
    endloop
  endfacet
  facet normal 1 -0 0
    outer loop
      vertex 5.2 0 0
      vertex 5.2 26 -12
      vertex 5.2 26 0
    endloop
  endfacet
  facet normal 1 0 0
    outer loop
      vertex 5.2 26 -12
      vertex 5.2 0 0
      vertex 5.2 0 -12
    endloop
  endfacet
  facet normal -1 0 0
    outer loop
      vertex 0 26 -12
      vertex 0 23 -10
      vertex 0 26 0
    endloop
  endfacet
  facet normal -1 0 0
    outer loop
      vertex 0 26 -12
      vertex 0 3 -10
      vertex 0 23 -10
    endloop
  endfacet
  facet normal -1 0 0
    outer loop
      vertex 0 0 -12
      vertex 0 3 -10
      vertex 0 26 -12
    endloop
  endfacet
  facet normal -1 0 0
    outer loop
      vertex 0 0 0
      vertex 0 3 -10
      vertex 0 0 -12
    endloop
  endfacet
  facet normal -1 0 0
    outer loop
      vertex 0 3 -10
      vertex 0 0 0
      vertex 0 3 0
    endloop
  endfacet
  facet normal -1 -0 0
    outer loop
      vertex 0 26 0
      vertex 0 23 -10
      vertex 0 23 0
    endloop
  endfacet
  facet normal 0 0 1
    outer loop
      vertex 1 3 0
      vertex 0 3 0
      vertex 1 1 0
    endloop
  endfacet
  facet normal 0 0 1
    outer loop
      vertex 5.2 26 0
      vertex 4.2 23 0
      vertex 5.2 0 0
    endloop
  endfacet
  facet normal 0 0 1
    outer loop
      vertex 5.2 26 0
      vertex 3.13333 25 0
      vertex 4.2 23 0
    endloop
  endfacet
  facet normal -0 0 1
    outer loop
      vertex 0 26 0
      vertex 3.13333 25 0
      vertex 5.2 26 0
    endloop
  endfacet
  facet normal 0 0 1
    outer loop
      vertex 3.13333 25 0
      vertex 0 26 0
      vertex 1 25 0
    endloop
  endfacet
  facet normal 0 0 1
    outer loop
      vertex 0 23 0
      vertex 1 25 0
      vertex 0 26 0
    endloop
  endfacet
  facet normal 0 0 1
    outer loop
      vertex 1 25 0
      vertex 0 23 0
      vertex 1 23 0
    endloop
  endfacet
  facet normal -0 0 1
    outer loop
      vertex 4.2 3 0
      vertex 5.2 0 0
      vertex 4.2 23 0
    endloop
  endfacet
  facet normal 0 0 1
    outer loop
      vertex 3.13333 1 0
      vertex 4.2 3 0
      vertex 3.13333 3 0
    endloop
  endfacet
  facet normal 0 0 1
    outer loop
      vertex 4.2 3 0
      vertex 3.13333 1 0
      vertex 5.2 0 0
    endloop
  endfacet
  facet normal 0 0 1
    outer loop
      vertex 0 0 0
      vertex 3.13333 1 0
      vertex 1 1 0
    endloop
  endfacet
  facet normal 0 0 1
    outer loop
      vertex 3.13333 1 0
      vertex 0 0 0
      vertex 5.2 0 0
    endloop
  endfacet
  facet normal 0 0 1
    outer loop
      vertex 0 0 0
      vertex 1 1 0
      vertex 0 3 0
    endloop
  endfacet
  facet normal 0 0 1
    outer loop
      vertex 4.2 23 0
      vertex 3.13333 25 0
      vertex 3.13333 23 0
    endloop
  endfacet
  facet normal 0 1 -0
    outer loop
      vertex 5.2 26 -12
      vertex 0 26 0
      vertex 5.2 26 0
    endloop
  endfacet
  facet normal 0 1 0
    outer loop
      vertex 0 26 0
      vertex 5.2 26 -12
      vertex 0 26 -12
    endloop
  endfacet
  facet normal 0 -1 0
    outer loop
      vertex 0 0 -12
      vertex 5.2 0 0
      vertex 0 0 0
    endloop
  endfacet
  facet normal 0 -1 -0
    outer loop
      vertex 5.2 0 0
      vertex 0 0 -12
      vertex 5.2 0 -12
    endloop
  endfacet
  facet normal -0 0 1
    outer loop
      vertex 0 23 -10
      vertex 1 3 -10
      vertex 1 23 -10
    endloop
  endfacet
  facet normal 0 0 1
    outer loop
      vertex 1 3 -10
      vertex 0 23 -10
      vertex 0 3 -10
    endloop
  endfacet
  facet normal 0 0 1
    outer loop
      vertex 1 23 -10
      vertex 3.13333 23 -10
      vertex 3.13333 25 -10
    endloop
  endfacet
  facet normal 0 0 1
    outer loop
      vertex 3.13333 23 -10
      vertex 1 23 -10
      vertex 3.13333 3 -10
    endloop
  endfacet
  facet normal 0 0 1
    outer loop
      vertex 1 23 -10
      vertex 3.13333 25 -10
      vertex 1 25 -10
    endloop
  endfacet
  facet normal 0 0 1
    outer loop
      vertex 1 3 -10
      vertex 3.13333 3 -10
      vertex 1 23 -10
    endloop
  endfacet
  facet normal 0 0 1
    outer loop
      vertex 3.13333 3 -10
      vertex 1 3 -10
      vertex 3.13333 1 -10
    endloop
  endfacet
  facet normal 0 0 1
    outer loop
      vertex 3.13333 1 -10
      vertex 1 3 -10
      vertex 1 1 -10
    endloop
  endfacet
  facet normal -0 0 1
    outer loop
      vertex 3.13333 23 -10
      vertex 4.2 3 -10
      vertex 4.2 23 -10
    endloop
  endfacet
  facet normal 0 0 1
    outer loop
      vertex 4.2 3 -10
      vertex 3.13333 23 -10
      vertex 3.13333 3 -10
    endloop
  endfacet
  facet normal -1 0 0
    outer loop
      vertex 3.13333 23 -10
      vertex 3.13333 25 0
      vertex 3.13333 25 -10
    endloop
  endfacet
  facet normal -1 -0 0
    outer loop
      vertex 3.13333 25 0
      vertex 3.13333 23 -10
      vertex 3.13333 23 0
    endloop
  endfacet
  facet normal -1 0 0
    outer loop
      vertex 3.13333 1 -10
      vertex 3.13333 3 0
      vertex 3.13333 3 -10
    endloop
  endfacet
  facet normal -1 -0 0
    outer loop
      vertex 3.13333 3 0
      vertex 3.13333 1 -10
      vertex 3.13333 1 0
    endloop
  endfacet
  facet normal 1 -0 0
    outer loop
      vertex 1 23 0
      vertex 1 25 -10
      vertex 1 25 0
    endloop
  endfacet
  facet normal 1 0 0
    outer loop
      vertex 1 25 -10
      vertex 1 23 0
      vertex 1 23 -10
    endloop
  endfacet
  facet normal 1 -0 0
    outer loop
      vertex 1 1 0
      vertex 1 3 -10
      vertex 1 3 0
    endloop
  endfacet
  facet normal 1 0 0
    outer loop
      vertex 1 3 -10
      vertex 1 1 0
      vertex 1 1 -10
    endloop
  endfacet
  facet normal 0 -1 0
    outer loop
      vertex 1 25 -10
      vertex 3.13333 25 0
      vertex 1 25 0
    endloop
  endfacet
  facet normal 0 -1 -0
    outer loop
      vertex 3.13333 25 0
      vertex 1 25 -10
      vertex 3.13333 25 -10
    endloop
  endfacet
  facet normal 0 1 -0
    outer loop
      vertex 3.13333 1 -10
      vertex 1 1 0
      vertex 3.13333 1 0
    endloop
  endfacet
  facet normal 0 1 0
    outer loop
      vertex 1 1 0
      vertex 3.13333 1 -10
      vertex 1 1 -10
    endloop
  endfacet
  facet normal -1 0 0
    outer loop
      vertex 4.2 3 -10
      vertex 4.2 23 0
      vertex 4.2 23 -10
    endloop
  endfacet
  facet normal -1 -0 0
    outer loop
      vertex 4.2 23 0
      vertex 4.2 3 -10
      vertex 4.2 3 0
    endloop
  endfacet
  facet normal 0 -1 0
    outer loop
      vertex 3.13333 23 -10
      vertex 4.2 23 0
      vertex 3.13333 23 0
    endloop
  endfacet
  facet normal 0 -1 -0
    outer loop
      vertex 4.2 23 0
      vertex 3.13333 23 -10
      vertex 4.2 23 -10
    endloop
  endfacet
  facet normal 0 -1 0
    outer loop
      vertex 0 23 -10
      vertex 1 23 0
      vertex 0 23 0
    endloop
  endfacet
  facet normal 0 -1 -0
    outer loop
      vertex 1 23 0
      vertex 0 23 -10
      vertex 1 23 -10
    endloop
  endfacet
  facet normal 0 1 -0
    outer loop
      vertex 4.2 3 -10
      vertex 3.13333 3 0
      vertex 4.2 3 0
    endloop
  endfacet
  facet normal 0 1 0
    outer loop
      vertex 3.13333 3 0
      vertex 4.2 3 -10
      vertex 3.13333 3 -10
    endloop
  endfacet
  facet normal 0 1 -0
    outer loop
      vertex 1 3 -10
      vertex 0 3 0
      vertex 1 3 0
    endloop
  endfacet
  facet normal 0 1 0
    outer loop
      vertex 0 3 0
      vertex 1 3 -10
      vertex 0 3 -10
    endloop
  endfacet
endsolid OpenSCAD_Model
